<svg width="262" height="215" viewBox="0 0 262 215" fill="none" xmlns="http://www.w3.org/2000/svg">
<path d="M101.832 210.441C101.832 212.958 83.9061 214.996 61.7932 214.996C39.6803 214.996 21.7539 212.944 21.7539 210.441C21.7539 207.938 39.6803 205.886 61.7932 205.886C83.9061 205.886 101.832 207.938 101.832 210.441Z" fill="#020901"/>
<path d="M162.07 164.526C162.681 165.237 163.238 165.991 163.738 166.783" stroke="#020901" stroke-width="0.5" stroke-linecap="round" stroke-linejoin="round"/>
<path d="M159.734 166.51C160.236 167.115 160.695 167.755 161.107 168.425" stroke="#020901" stroke-width="0.5" stroke-linecap="round" stroke-linejoin="round"/>
<path d="M162.947 165.628L160.477 167.44" stroke="#020901" stroke-width="0.5" stroke-linecap="round" stroke-linejoin="round"/>
<path d="M163.938 167.099C164.424 167.9 164.852 168.734 165.221 169.595" stroke="#020901" stroke-width="0.5" stroke-linecap="round" stroke-linejoin="round"/>
<path d="M161.316 168.686C161.724 169.366 162.086 170.072 162.401 170.799" stroke="#020901" stroke-width="0.5" stroke-linecap="round" stroke-linejoin="round"/>
<path d="M164.622 168.322L161.891 169.724" stroke="#020901" stroke-width="0.5" stroke-linecap="round" stroke-linejoin="round"/>
<path d="M165.363 169.938C165.716 170.807 166.005 171.701 166.228 172.612" stroke="#020901" stroke-width="0.5" stroke-linecap="round" stroke-linejoin="round"/>
<path d="M162.516 171.086C162.816 171.819 163.061 172.574 163.25 173.343" stroke="#020901" stroke-width="0.5" stroke-linecap="round" stroke-linejoin="round"/>
<path d="M165.846 171.257L162.922 172.201" stroke="#020901" stroke-width="0.5" stroke-linecap="round" stroke-linejoin="round"/>
<path d="M166.312 172.967C166.519 173.884 166.662 174.814 166.738 175.751" stroke="#020901" stroke-width="0.5" stroke-linecap="round" stroke-linejoin="round"/>
<path d="M163.32 173.644C163.495 174.416 163.614 175.2 163.677 175.99" stroke="#020901" stroke-width="0.5" stroke-linecap="round" stroke-linejoin="round"/>
<path d="M166.573 174.349L163.539 174.807" stroke="#020901" stroke-width="0.5" stroke-linecap="round" stroke-linejoin="round"/>
<path d="M166.757 176.113C166.791 176.578 166.798 177.05 166.791 177.481L166.723 178.883" stroke="#020901" stroke-width="0.5" stroke-linecap="round" stroke-linejoin="round"/>
<path d="M163.694 176.298C163.694 176.695 163.728 177.091 163.694 177.488L163.633 178.678" stroke="#020901" stroke-width="0.5" stroke-linecap="round" stroke-linejoin="round"/>
<path d="M166.79 177.515L163.723 177.487" stroke="#020901" stroke-width="0.5" stroke-linecap="round" stroke-linejoin="round"/>
<path d="M166.704 179.287C166.642 179.752 166.567 180.21 166.498 180.655C166.457 180.888 166.43 181.12 166.382 181.339L166.203 182.023" stroke="#020901" stroke-width="0.5" stroke-linecap="round" stroke-linejoin="round"/>
<path d="M163.648 178.986L163.47 180.163C163.435 180.354 163.415 180.553 163.374 180.744L163.223 181.319" stroke="#020901" stroke-width="0.5" stroke-linecap="round" stroke-linejoin="round"/>
<path d="M166.495 180.675L163.469 180.162" stroke="#020901" stroke-width="0.5" stroke-linecap="round" stroke-linejoin="round"/>
<path d="M166.11 182.405C166.007 182.87 165.872 183.327 165.705 183.773C165.54 184.211 165.383 184.656 165.211 185.093" stroke="#020901" stroke-width="0.5" stroke-linecap="round" stroke-linejoin="round"/>
<path d="M163.149 181.619C163.061 182.005 162.947 182.385 162.805 182.755C162.661 183.124 162.538 183.5 162.387 183.869" stroke="#020901" stroke-width="0.5" stroke-linecap="round" stroke-linejoin="round"/>
<path d="M165.708 183.753L162.805 182.754" stroke="#020901" stroke-width="0.5" stroke-linecap="round" stroke-linejoin="round"/>
<path d="M165.056 185.401L164.438 186.667C164.205 187.077 163.958 187.474 163.711 187.87" stroke="#020901" stroke-width="0.5" stroke-linecap="round" stroke-linejoin="round"/>
<path d="M162.257 184.143L161.736 185.216L161.125 186.236" stroke="#020901" stroke-width="0.5" stroke-linecap="round" stroke-linejoin="round"/>
<path d="M164.438 186.667L161.734 185.217" stroke="#020901" stroke-width="0.5" stroke-linecap="round" stroke-linejoin="round"/>
<path d="M163.531 188.185C163.284 188.581 162.982 188.944 162.708 189.32L162.282 189.881L161.809 190.407" stroke="#020901" stroke-width="0.5" stroke-linecap="round" stroke-linejoin="round"/>
<path d="M160.957 186.502C160.751 186.837 160.49 187.138 160.271 187.46L159.914 187.938L159.516 188.376" stroke="#020901" stroke-width="0.5" stroke-linecap="round" stroke-linejoin="round"/>
<path d="M162.694 189.32L160.258 187.46" stroke="#020901" stroke-width="0.5" stroke-linecap="round" stroke-linejoin="round"/>
<path d="M161.55 190.675C161.243 191.032 160.913 191.367 160.562 191.68C160.212 191.988 159.875 192.316 159.512 192.61" stroke="#020901" stroke-width="0.5" stroke-linecap="round" stroke-linejoin="round"/>
<path d="M159.289 188.603C159.036 188.916 158.755 189.206 158.452 189.471C158.157 189.731 157.868 190.012 157.566 190.265" stroke="#020901" stroke-width="0.5" stroke-linecap="round" stroke-linejoin="round"/>
<path d="M160.56 191.68L158.453 189.45" stroke="#020901" stroke-width="0.5" stroke-linecap="round" stroke-linejoin="round"/>
<path d="M159.216 192.836L158.084 193.677L156.883 194.409" stroke="#020901" stroke-width="0.5" stroke-linecap="round" stroke-linejoin="round"/>
<path d="M157.32 190.429L156.366 191.14L155.344 191.756" stroke="#020901" stroke-width="0.5" stroke-linecap="round" stroke-linejoin="round"/>
<path d="M158.083 193.677L156.367 191.14" stroke="#020901" stroke-width="0.5" stroke-linecap="round" stroke-linejoin="round"/>
<path d="M156.564 194.594C156.152 194.826 155.72 195.011 155.301 195.223L154.663 195.524L153.977 195.763" stroke="#020901" stroke-width="0.5" stroke-linecap="round" stroke-linejoin="round"/>
<path d="M155.076 191.92C154.733 192.111 154.39 192.269 154.012 192.447C153.834 192.529 153.655 192.624 153.47 192.7L152.914 192.905" stroke="#020901" stroke-width="0.5" stroke-linecap="round" stroke-linejoin="round"/>
<path d="M155.302 195.223L154.012 192.446" stroke="#020901" stroke-width="0.5" stroke-linecap="round" stroke-linejoin="round"/>
<path d="M153.656 195.894C152.77 196.207 151.865 196.463 150.945 196.66" stroke="#020901" stroke-width="0.5" stroke-linecap="round" stroke-linejoin="round"/>
<path d="M152.621 193.007C151.876 193.286 151.112 193.514 150.336 193.691" stroke="#020901" stroke-width="0.5" stroke-linecap="round" stroke-linejoin="round"/>
<path d="M152.312 196.317L151.488 193.369" stroke="#020901" stroke-width="0.5" stroke-linecap="round" stroke-linejoin="round"/>
<path d="M150.581 196.721L149.209 196.933C148.749 196.987 148.275 196.987 147.836 197.022" stroke="#020901" stroke-width="0.5" stroke-linecap="round" stroke-linejoin="round"/>
<path d="M150.024 193.712L148.85 193.89C148.452 193.938 148.054 193.938 147.656 193.965" stroke="#020901" stroke-width="0.5" stroke-linecap="round" stroke-linejoin="round"/>
<path d="M149.181 196.932L148.852 193.889" stroke="#020901" stroke-width="0.5" stroke-linecap="round" stroke-linejoin="round"/>
<path d="M147.408 197.035C146.468 197.044 145.528 196.999 144.594 196.898" stroke="#020901" stroke-width="0.5" stroke-linecap="round" stroke-linejoin="round"/>
<path d="M147.35 193.978C146.953 194.005 146.554 194.005 146.156 193.978C145.759 193.975 145.362 193.946 144.969 193.889" stroke="#020901" stroke-width="0.5" stroke-linecap="round" stroke-linejoin="round"/>
<path d="M146.004 197.009L146.155 193.951" stroke="#020901" stroke-width="0.5" stroke-linecap="round" stroke-linejoin="round"/>
<path d="M144.234 196.844C143.774 196.769 143.3 196.714 142.861 196.612L141.488 196.263" stroke="#020901" stroke-width="0.5" stroke-linecap="round" stroke-linejoin="round"/>
<path d="M144.659 193.814C144.267 193.745 143.869 193.711 143.485 193.622L142.332 193.328" stroke="#020901" stroke-width="0.5" stroke-linecap="round" stroke-linejoin="round"/>
<path d="M142.84 196.612L143.485 193.623" stroke="#020901" stroke-width="0.5" stroke-linecap="round" stroke-linejoin="round"/>
<path d="M141.115 196.173C140.222 195.88 139.348 195.531 138.5 195.127" stroke="#020901" stroke-width="0.5" stroke-linecap="round" stroke-linejoin="round"/>
<path d="M142.03 193.253C141.275 193.006 140.537 192.709 139.82 192.364" stroke="#020901" stroke-width="0.5" stroke-linecap="round" stroke-linejoin="round"/>
<path d="M139.793 195.688L140.912 192.843" stroke="#020901" stroke-width="0.5" stroke-linecap="round" stroke-linejoin="round"/>
<path d="M138.14 194.942L137.509 194.634L136.905 194.272C136.507 194.019 136.088 193.8 135.711 193.52" stroke="#020901" stroke-width="0.5" stroke-linecap="round" stroke-linejoin="round"/>
<path d="M139.513 192.207L138.978 191.947L138.47 191.639C138.134 191.427 137.784 191.242 137.461 191.003" stroke="#020901" stroke-width="0.5" stroke-linecap="round" stroke-linejoin="round"/>
<path d="M136.93 194.299L138.494 191.666" stroke="#020901" stroke-width="0.5" stroke-linecap="round" stroke-linejoin="round"/>
<path d="M135.443 193.328C135.073 193.048 134.688 192.774 134.324 192.48L133.281 191.522" stroke="#020901" stroke-width="0.5" stroke-linecap="round" stroke-linejoin="round"/>
<path d="M137.237 190.839C136.921 190.599 136.592 190.374 136.283 190.121L135.391 189.327" stroke="#020901" stroke-width="0.5" stroke-linecap="round" stroke-linejoin="round"/>
<path d="M134.324 192.48L136.287 190.127" stroke="#020901" stroke-width="0.5" stroke-linecap="round" stroke-linejoin="round"/>
<path d="M133.004 191.283C132.346 190.614 131.734 189.901 131.172 189.149" stroke="#020901" stroke-width="0.5" stroke-linecap="round" stroke-linejoin="round"/>
<path d="M135.173 189.122C134.622 188.552 134.106 187.949 133.629 187.316" stroke="#020901" stroke-width="0.5" stroke-linecap="round" stroke-linejoin="round"/>
<path d="M132.059 190.25L134.371 188.239" stroke="#020901" stroke-width="0.5" stroke-linecap="round" stroke-linejoin="round"/>
<path d="M130.953 188.863C130.816 188.671 130.665 188.486 130.534 188.295L130.171 187.693C129.937 187.283 129.663 186.9 129.484 186.476" stroke="#020901" stroke-width="0.5" stroke-linecap="round" stroke-linejoin="round"/>
<path d="M133.436 187.07C133.319 186.906 133.195 186.756 133.086 186.592L132.777 186.079C132.585 185.737 132.344 185.395 132.18 185.053" stroke="#020901" stroke-width="0.5" stroke-linecap="round" stroke-linejoin="round"/>
<path d="M130.172 187.692L132.78 186.078" stroke="#020901" stroke-width="0.5" stroke-linecap="round" stroke-linejoin="round"/>
<path d="M129.299 186.147C129.1 185.723 128.881 185.306 128.702 184.875L128.215 183.555" stroke="#020901" stroke-width="0.5" stroke-linecap="round" stroke-linejoin="round"/>
<path d="M132.046 184.772C131.881 184.416 131.689 184.088 131.538 183.698L131.133 182.583" stroke="#020901" stroke-width="0.5" stroke-linecap="round" stroke-linejoin="round"/>
<path d="M128.703 184.875L131.538 183.698" stroke="#020901" stroke-width="0.5" stroke-linecap="round" stroke-linejoin="round"/>
<path d="M128.089 183.206C127.82 182.309 127.611 181.395 127.465 180.47" stroke="#020901" stroke-width="0.5" stroke-linecap="round" stroke-linejoin="round"/>
<path d="M131.022 182.296C130.797 181.538 130.623 180.765 130.5 179.984" stroke="#020901" stroke-width="0.5" stroke-linecap="round" stroke-linejoin="round"/>
<path d="M127.734 181.844L130.727 181.146" stroke="#020901" stroke-width="0.5" stroke-linecap="round" stroke-linejoin="round"/>
<path d="M127.412 180.1L127.309 179.416C127.309 179.184 127.309 178.944 127.261 178.732L127.199 177.33" stroke="#020901" stroke-width="0.5" stroke-linecap="round" stroke-linejoin="round"/>
<path d="M130.452 179.676L130.363 179.088C130.352 178.89 130.352 178.691 130.363 178.493L130.301 177.31" stroke="#020901" stroke-width="0.5" stroke-linecap="round" stroke-linejoin="round"/>
<path d="M127.262 178.705L130.33 178.493" stroke="#020901" stroke-width="0.5" stroke-linecap="round" stroke-linejoin="round"/>
<path d="M127.211 176.94L127.28 175.538C127.28 175.066 127.41 174.608 127.472 174.17" stroke="#020901" stroke-width="0.5" stroke-linecap="round" stroke-linejoin="round"/>
<path d="M130.281 176.995L130.343 175.812C130.343 175.415 130.453 175.026 130.501 174.636" stroke="#020901" stroke-width="0.5" stroke-linecap="round" stroke-linejoin="round"/>
<path d="M127.281 175.538L130.342 175.812" stroke="#020901" stroke-width="0.5" stroke-linecap="round" stroke-linejoin="round"/>
<path d="M127.527 173.781C127.604 173.319 127.707 172.862 127.836 172.413C127.938 171.949 128.069 171.493 128.227 171.045" stroke="#020901" stroke-width="0.5" stroke-linecap="round" stroke-linejoin="round"/>
<path d="M130.547 174.327C130.609 173.937 130.696 173.551 130.808 173.172C130.892 172.784 131.002 172.402 131.137 172.029" stroke="#020901" stroke-width="0.5" stroke-linecap="round" stroke-linejoin="round"/>
<path d="M127.836 172.405L130.808 173.171" stroke="#020901" stroke-width="0.5" stroke-linecap="round" stroke-linejoin="round"/>
<path d="M128.352 170.716C128.523 170.279 128.654 169.827 128.866 169.403L129.477 168.138" stroke="#020901" stroke-width="0.5" stroke-linecap="round" stroke-linejoin="round"/>
<path d="M131.273 171.742C131.418 171.373 131.521 170.983 131.699 170.634L132.221 169.561" stroke="#020901" stroke-width="0.5" stroke-linecap="round" stroke-linejoin="round"/>
<path d="M128.867 169.403L131.674 170.634" stroke="#020901" stroke-width="0.5" stroke-linecap="round" stroke-linejoin="round"/>
<path d="M129.648 167.81C130.111 166.995 130.627 166.211 131.193 165.464" stroke="#020901" stroke-width="0.5" stroke-linecap="round" stroke-linejoin="round"/>
<path d="M132.332 169.287C132.727 168.6 133.165 167.937 133.643 167.304" stroke="#020901" stroke-width="0.5" stroke-linecap="round" stroke-linejoin="round"/>
<path d="M130.375 166.605L132.956 168.274" stroke="#020901" stroke-width="0.5" stroke-linecap="round" stroke-linejoin="round"/>
<path d="M131.414 165.169C131.694 164.791 131.999 164.432 132.327 164.095C132.649 163.76 132.945 163.411 133.301 163.083" stroke="#020901" stroke-width="0.5" stroke-linecap="round" stroke-linejoin="round"/>
<path d="M133.828 167.057C134.066 166.736 134.325 166.433 134.604 166.147C134.859 165.844 135.134 165.558 135.427 165.292" stroke="#020901" stroke-width="0.5" stroke-linecap="round" stroke-linejoin="round"/>
<path d="M132.324 164.096L134.603 166.148" stroke="#020901" stroke-width="0.5" stroke-linecap="round" stroke-linejoin="round"/>
<path d="M133.574 162.838C133.931 162.537 134.261 162.188 134.638 161.915L135.764 161.073" stroke="#020901" stroke-width="0.5" stroke-linecap="round" stroke-linejoin="round"/>
<path d="M135.656 165.088C135.958 164.828 136.233 164.534 136.555 164.308L137.509 163.624" stroke="#020901" stroke-width="0.5" stroke-linecap="round" stroke-linejoin="round"/>
<path d="M134.641 161.914L136.555 164.308" stroke="#020901" stroke-width="0.5" stroke-linecap="round" stroke-linejoin="round"/>
<path d="M136.078 160.867C136.863 160.353 137.684 159.896 138.535 159.499" stroke="#020901" stroke-width="0.5" stroke-linecap="round" stroke-linejoin="round"/>
<path d="M137.766 163.419C138.424 162.986 139.112 162.6 139.825 162.263" stroke="#020901" stroke-width="0.5" stroke-linecap="round" stroke-linejoin="round"/>
<path d="M137.273 160.136L138.783 162.803" stroke="#020901" stroke-width="0.5" stroke-linecap="round" stroke-linejoin="round"/>
<path d="M138.867 159.377C139.29 159.173 139.725 158.997 140.171 158.85C140.619 158.674 141.078 158.525 141.544 158.405" stroke="#020901" stroke-width="0.5" stroke-linecap="round" stroke-linejoin="round"/>
<path d="M140.129 162.113C140.485 161.943 140.852 161.797 141.227 161.675C141.595 161.523 141.973 161.397 142.359 161.299" stroke="#020901" stroke-width="0.5" stroke-linecap="round" stroke-linejoin="round"/>
<path d="M140.172 158.815L141.229 161.688" stroke="#020901" stroke-width="0.5" stroke-linecap="round" stroke-linejoin="round"/>
<path d="M141.867 158.276C142.327 158.173 142.773 158.023 143.24 157.954L144.612 157.742" stroke="#020901" stroke-width="0.5" stroke-linecap="round" stroke-linejoin="round"/>
<path d="M142.664 161.23C143.048 161.141 143.426 161.011 143.817 160.956L144.998 160.778" stroke="#020901" stroke-width="0.5" stroke-linecap="round" stroke-linejoin="round"/>
<path d="M143.238 157.953L143.815 160.956" stroke="#020901" stroke-width="0.5" stroke-linecap="round" stroke-linejoin="round"/>
<path d="M145 157.688C145.938 157.614 146.88 157.589 147.821 157.612" stroke="#020901" stroke-width="0.5" stroke-linecap="round" stroke-linejoin="round"/>
<path d="M145.305 160.745C146.101 160.745 146.89 160.627 147.686 160.676" stroke="#020901" stroke-width="0.5" stroke-linecap="round" stroke-linejoin="round"/>
<path d="M146.402 157.612L146.498 160.67" stroke="#020901" stroke-width="0.5" stroke-linecap="round" stroke-linejoin="round"/>
<path d="M148.18 157.625C149.118 157.68 150.052 157.802 150.973 157.988" stroke="#020901" stroke-width="0.5" stroke-linecap="round" stroke-linejoin="round"/>
<path d="M148 160.676C148.794 160.722 149.583 160.828 150.361 160.99" stroke="#020901" stroke-width="0.5" stroke-linecap="round" stroke-linejoin="round"/>
<path d="M149.586 157.762L149.188 160.792" stroke="#020901" stroke-width="0.5" stroke-linecap="round" stroke-linejoin="round"/>
<path d="M151.336 158.062C152.254 158.268 153.155 158.54 154.033 158.876" stroke="#020901" stroke-width="0.5" stroke-linecap="round" stroke-linejoin="round"/>
<path d="M150.664 161.045C151.439 161.22 152.2 161.449 152.943 161.729" stroke="#020901" stroke-width="0.5" stroke-linecap="round" stroke-linejoin="round"/>
<path d="M152.702 158.426L151.816 161.353" stroke="#020901" stroke-width="0.5" stroke-linecap="round" stroke-linejoin="round"/>
<path d="M154.383 159.008C155.256 159.359 156.102 159.773 156.915 160.246" stroke="#020901" stroke-width="0.5" stroke-linecap="round" stroke-linejoin="round"/>
<path d="M153.238 161.846C153.973 162.144 154.686 162.491 155.373 162.885" stroke="#020901" stroke-width="0.5" stroke-linecap="round" stroke-linejoin="round"/>
<path d="M155.665 159.581L154.32 162.331" stroke="#020901" stroke-width="0.5" stroke-linecap="round" stroke-linejoin="round"/>
<path d="M157.234 160.423C158.037 160.913 158.805 161.457 159.534 162.051" stroke="#020901" stroke-width="0.5" stroke-linecap="round" stroke-linejoin="round"/>
<path d="M155.648 163.042C156.326 163.453 156.975 163.91 157.591 164.41" stroke="#020901" stroke-width="0.5" stroke-linecap="round" stroke-linejoin="round"/>
<path d="M158.411 161.195L156.641 163.699" stroke="#020901" stroke-width="0.5" stroke-linecap="round" stroke-linejoin="round"/>
<path d="M159.82 162.283C160.532 162.894 161.204 163.549 161.831 164.246" stroke="#020901" stroke-width="0.5" stroke-linecap="round" stroke-linejoin="round"/>
<path d="M157.828 164.615C158.434 165.129 159.003 165.684 159.53 166.277" stroke="#020901" stroke-width="0.5" stroke-linecap="round" stroke-linejoin="round"/>
<path d="M160.855 163.234L158.707 165.416" stroke="#020901" stroke-width="0.5" stroke-linecap="round" stroke-linejoin="round"/>
<path d="M153.926 187.063C152.539 188.039 150.96 188.711 149.294 189.033C147.627 189.356 145.911 189.322 144.258 188.934C142.606 188.546 141.055 187.813 139.708 186.783C138.361 185.753 137.249 184.449 136.445 182.959" stroke="#020901" stroke-width="2" stroke-miterlimit="10"/>
<path d="M158.568 174.253C159.192 176.606 159.082 179.092 158.252 181.381C157.422 183.67 155.911 185.652 153.922 187.064" stroke="#2A5F61" stroke-width="5" stroke-miterlimit="10"/>
<path d="M138.336 169.082C139.805 167.549 141.657 166.434 143.702 165.851C145.747 165.268 147.911 165.238 149.971 165.765C152.031 166.291 153.914 167.355 155.425 168.847C156.936 170.339 158.021 172.204 158.568 174.253" stroke="#020901" stroke-width="2" stroke-miterlimit="10"/>
<path d="M136.437 182.953C135.248 180.736 134.792 178.201 135.134 175.711C135.475 173.22 136.596 170.9 138.338 169.082" stroke="#2A5F61" stroke-width="5" stroke-miterlimit="10"/>
<path d="M203.737 192.344C203.02 192.951 202.261 193.506 201.465 194.006" stroke="#020901" stroke-width="0.5" stroke-linecap="round" stroke-linejoin="round"/>
<path d="M201.739 190.011C201.137 190.527 200.497 190.998 199.824 191.42" stroke="#020901" stroke-width="0.5" stroke-linecap="round" stroke-linejoin="round"/>
<path d="M202.63 193.219L200.805 190.75" stroke="#020901" stroke-width="0.5" stroke-linecap="round" stroke-linejoin="round"/>
<path d="M201.156 194.204C200.348 194.684 199.509 195.112 198.645 195.483" stroke="#020901" stroke-width="0.5" stroke-linecap="round" stroke-linejoin="round"/>
<path d="M199.555 191.584C198.876 191.994 198.17 192.357 197.441 192.671" stroke="#020901" stroke-width="0.5" stroke-linecap="round" stroke-linejoin="round"/>
<path d="M199.92 194.887L198.52 192.165" stroke="#020901" stroke-width="0.5" stroke-linecap="round" stroke-linejoin="round"/>
<path d="M198.301 195.627C197.428 195.977 196.531 196.265 195.617 196.489" stroke="#020901" stroke-width="0.5" stroke-linecap="round" stroke-linejoin="round"/>
<path d="M197.163 192.788C196.428 193.086 195.671 193.329 194.898 193.513" stroke="#020901" stroke-width="0.5" stroke-linecap="round" stroke-linejoin="round"/>
<path d="M196.975 196.105L196.035 193.191" stroke="#020901" stroke-width="0.5" stroke-linecap="round" stroke-linejoin="round"/>
<path d="M195.259 196.57C194.342 196.777 193.41 196.917 192.473 196.988" stroke="#020901" stroke-width="0.5" stroke-linecap="round" stroke-linejoin="round"/>
<path d="M194.587 193.575C193.81 193.749 193.021 193.867 192.227 193.931" stroke="#020901" stroke-width="0.5" stroke-linecap="round" stroke-linejoin="round"/>
<path d="M193.874 196.83L193.414 193.807" stroke="#020901" stroke-width="0.5" stroke-linecap="round" stroke-linejoin="round"/>
<path d="M192.103 196.995C191.636 197.029 191.163 197.036 190.696 197.029L189.289 196.953" stroke="#020901" stroke-width="0.5" stroke-linecap="round" stroke-linejoin="round"/>
<path d="M191.917 193.964C191.519 193.964 191.121 193.999 190.722 193.964L189.535 193.909" stroke="#020901" stroke-width="0.5" stroke-linecap="round" stroke-linejoin="round"/>
<path d="M190.695 197.05L190.723 193.985" stroke="#020901" stroke-width="0.5" stroke-linecap="round" stroke-linejoin="round"/>
<path d="M188.925 196.994L187.552 196.789C187.319 196.748 187.086 196.721 186.866 196.673L186.18 196.495" stroke="#020901" stroke-width="0.5" stroke-linecap="round" stroke-linejoin="round"/>
<path d="M189.223 193.909L188.05 193.738C187.851 193.704 187.651 193.684 187.459 193.643L186.883 193.492" stroke="#020901" stroke-width="0.5" stroke-linecap="round" stroke-linejoin="round"/>
<path d="M187.523 196.755L188.045 193.738" stroke="#020901" stroke-width="0.5" stroke-linecap="round" stroke-linejoin="round"/>
<path d="M185.788 196.372C185.321 196.27 184.862 196.133 184.415 195.961C183.976 195.804 183.53 195.647 183.098 195.476" stroke="#020901" stroke-width="0.5" stroke-linecap="round" stroke-linejoin="round"/>
<path d="M186.579 193.417C186.192 193.331 185.811 193.216 185.44 193.075C185.069 192.932 184.692 192.809 184.328 192.658" stroke="#020901" stroke-width="0.5" stroke-linecap="round" stroke-linejoin="round"/>
<path d="M184.438 195.962L185.44 193.075" stroke="#020901" stroke-width="0.5" stroke-linecap="round" stroke-linejoin="round"/>
<path d="M182.782 195.312L181.513 194.704C181.108 194.471 180.71 194.225 180.305 193.979" stroke="#020901" stroke-width="0.5" stroke-linecap="round" stroke-linejoin="round"/>
<path d="M184.046 192.522L182.969 192.009L181.953 191.4" stroke="#020901" stroke-width="0.5" stroke-linecap="round" stroke-linejoin="round"/>
<path d="M181.516 194.703L182.971 192.008" stroke="#020901" stroke-width="0.5" stroke-linecap="round" stroke-linejoin="round"/>
<path d="M180.005 193.787C179.607 193.541 179.243 193.24 178.866 192.966L178.303 192.542L177.781 192.07" stroke="#020901" stroke-width="0.5" stroke-linecap="round" stroke-linejoin="round"/>
<path d="M181.685 191.236C181.349 191.031 181.04 190.771 180.717 190.552L180.244 190.197L179.805 189.793" stroke="#020901" stroke-width="0.5" stroke-linecap="round" stroke-linejoin="round"/>
<path d="M178.852 192.965L180.718 190.537" stroke="#020901" stroke-width="0.5" stroke-linecap="round" stroke-linejoin="round"/>
<path d="M177.489 191.824C177.133 191.519 176.799 191.19 176.487 190.839C176.171 190.491 175.849 190.155 175.547 189.793" stroke="#020901" stroke-width="0.5" stroke-linecap="round" stroke-linejoin="round"/>
<path d="M179.569 189.573C179.265 189.316 178.981 189.037 178.718 188.739C178.457 188.445 178.176 188.157 177.922 187.856" stroke="#020901" stroke-width="0.5" stroke-linecap="round" stroke-linejoin="round"/>
<path d="M176.488 190.839L178.719 188.739" stroke="#020901" stroke-width="0.5" stroke-linecap="round" stroke-linejoin="round"/>
<path d="M175.329 189.498L174.484 188.37L173.75 187.173" stroke="#020901" stroke-width="0.5" stroke-linecap="round" stroke-linejoin="round"/>
<path d="M177.738 187.604L177.024 186.653L176.406 185.641" stroke="#020901" stroke-width="0.5" stroke-linecap="round" stroke-linejoin="round"/>
<path d="M174.484 188.369L177.024 186.652" stroke="#020901" stroke-width="0.5" stroke-linecap="round" stroke-linejoin="round"/>
<path d="M173.556 186.858C173.323 186.447 173.138 186.017 172.932 185.599C172.829 185.387 172.719 185.175 172.63 184.963L172.383 184.279" stroke="#020901" stroke-width="0.5" stroke-linecap="round" stroke-linejoin="round"/>
<path d="M176.243 185.367C176.051 185.025 175.893 184.683 175.715 184.307C175.632 184.129 175.543 183.952 175.461 183.767L175.262 183.213" stroke="#020901" stroke-width="0.5" stroke-linecap="round" stroke-linejoin="round"/>
<path d="M172.934 185.599L175.713 184.313" stroke="#020901" stroke-width="0.5" stroke-linecap="round" stroke-linejoin="round"/>
<path d="M172.26 183.958C171.94 183.076 171.681 182.173 171.484 181.256" stroke="#020901" stroke-width="0.5" stroke-linecap="round" stroke-linejoin="round"/>
<path d="M175.151 182.925C174.874 182.181 174.645 181.42 174.465 180.647" stroke="#020901" stroke-width="0.5" stroke-linecap="round" stroke-linejoin="round"/>
<path d="M171.828 182.618L174.786 181.797" stroke="#020901" stroke-width="0.5" stroke-linecap="round" stroke-linejoin="round"/>
<path d="M171.431 180.894L171.218 179.526C171.156 179.061 171.156 178.596 171.129 178.124" stroke="#020901" stroke-width="0.5" stroke-linecap="round" stroke-linejoin="round"/>
<path d="M174.449 180.34L174.264 179.164C174.216 178.774 174.223 178.377 174.195 177.98" stroke="#020901" stroke-width="0.5" stroke-linecap="round" stroke-linejoin="round"/>
<path d="M171.219 179.498L174.266 179.163" stroke="#020901" stroke-width="0.5" stroke-linecap="round" stroke-linejoin="round"/>
<path d="M171.082 177.734C171.056 177.278 171.056 176.822 171.082 176.366C171.095 175.897 171.131 175.429 171.192 174.964" stroke="#020901" stroke-width="0.5" stroke-linecap="round" stroke-linejoin="round"/>
<path d="M174.177 177.672C174.149 177.276 174.149 176.878 174.177 176.482C174.182 176.086 174.212 175.691 174.266 175.299" stroke="#020901" stroke-width="0.5" stroke-linecap="round" stroke-linejoin="round"/>
<path d="M171.137 176.332L174.205 176.483" stroke="#020901" stroke-width="0.5" stroke-linecap="round" stroke-linejoin="round"/>
<path d="M171.301 174.567C171.383 174.109 171.431 173.637 171.534 173.199L171.884 171.831" stroke="#020901" stroke-width="0.5" stroke-linecap="round" stroke-linejoin="round"/>
<path d="M174.34 174.991C174.408 174.602 174.443 174.205 174.532 173.822L174.834 172.673" stroke="#020901" stroke-width="0.5" stroke-linecap="round" stroke-linejoin="round"/>
<path d="M171.535 173.179L174.534 173.822" stroke="#020901" stroke-width="0.5" stroke-linecap="round" stroke-linejoin="round"/>
<path d="M171.98 171.462C172.272 170.573 172.621 169.702 173.024 168.856" stroke="#020901" stroke-width="0.5" stroke-linecap="round" stroke-linejoin="round"/>
<path d="M174.91 172.371C175.156 171.619 175.452 170.883 175.796 170.169" stroke="#020901" stroke-width="0.5" stroke-linecap="round" stroke-linejoin="round"/>
<path d="M172.461 170.143L175.323 171.257" stroke="#020901" stroke-width="0.5" stroke-linecap="round" stroke-linejoin="round"/>
<path d="M173.18 168.521L173.495 167.892L173.859 167.29C174.106 166.893 174.333 166.476 174.607 166.1" stroke="#020901" stroke-width="0.5" stroke-linecap="round" stroke-linejoin="round"/>
<path d="M175.934 169.889L176.188 169.355L176.503 168.849C176.716 168.514 176.894 168.165 177.135 167.844" stroke="#020901" stroke-width="0.5" stroke-linecap="round" stroke-linejoin="round"/>
<path d="M173.859 167.29L176.502 168.849" stroke="#020901" stroke-width="0.5" stroke-linecap="round" stroke-linejoin="round"/>
<path d="M174.828 165.805C175.116 165.436 175.384 165.053 175.686 164.69L176.633 163.65" stroke="#020901" stroke-width="0.5" stroke-linecap="round" stroke-linejoin="round"/>
<path d="M177.32 167.584C177.561 167.269 177.787 166.941 178.041 166.633L178.844 165.758" stroke="#020901" stroke-width="0.5" stroke-linecap="round" stroke-linejoin="round"/>
<path d="M175.688 164.69L178.042 166.647" stroke="#020901" stroke-width="0.5" stroke-linecap="round" stroke-linejoin="round"/>
<path d="M176.883 163.377C177.558 162.725 178.273 162.115 179.024 161.551" stroke="#020901" stroke-width="0.5" stroke-linecap="round" stroke-linejoin="round"/>
<path d="M179.047 165.532C179.619 164.983 180.224 164.469 180.859 163.993" stroke="#020901" stroke-width="0.5" stroke-linecap="round" stroke-linejoin="round"/>
<path d="M177.922 162.434L179.933 164.739" stroke="#020901" stroke-width="0.5" stroke-linecap="round" stroke-linejoin="round"/>
<path d="M179.316 161.333C179.502 161.196 179.687 161.046 179.886 160.916L180.49 160.553C180.895 160.321 181.279 160.047 181.705 159.869" stroke="#020901" stroke-width="0.5" stroke-linecap="round" stroke-linejoin="round"/>
<path d="M181.117 163.808C181.275 163.692 181.433 163.569 181.598 163.459L182.105 163.152C182.438 162.936 182.782 162.738 183.135 162.557" stroke="#020901" stroke-width="0.5" stroke-linecap="round" stroke-linejoin="round"/>
<path d="M180.492 160.553L182.105 163.152" stroke="#020901" stroke-width="0.5" stroke-linecap="round" stroke-linejoin="round"/>
<path d="M182.062 159.684C182.495 159.486 182.907 159.267 183.346 159.089L184.67 158.604" stroke="#020901" stroke-width="0.5" stroke-linecap="round" stroke-linejoin="round"/>
<path d="M183.434 162.42C183.79 162.256 184.12 162.065 184.511 161.914L185.63 161.511" stroke="#020901" stroke-width="0.5" stroke-linecap="round" stroke-linejoin="round"/>
<path d="M183.316 159.089L184.49 161.914" stroke="#020901" stroke-width="0.5" stroke-linecap="round" stroke-linejoin="round"/>
<path d="M184.984 158.48C185.884 158.211 186.802 158.003 187.73 157.857" stroke="#020901" stroke-width="0.5" stroke-linecap="round" stroke-linejoin="round"/>
<path d="M185.898 161.428C186.662 161.204 187.439 161.03 188.225 160.908" stroke="#020901" stroke-width="0.5" stroke-linecap="round" stroke-linejoin="round"/>
<path d="M186.352 158.125L187.058 161.107" stroke="#020901" stroke-width="0.5" stroke-linecap="round" stroke-linejoin="round"/>
<path d="M188.102 157.803L188.788 157.7C189.021 157.7 189.255 157.7 189.474 157.652L190.881 157.584" stroke="#020901" stroke-width="0.5" stroke-linecap="round" stroke-linejoin="round"/>
<path d="M188.535 160.834L189.119 160.745C189.318 160.745 189.517 160.745 189.716 160.704L190.91 160.649" stroke="#020901" stroke-width="0.5" stroke-linecap="round" stroke-linejoin="round"/>
<path d="M189.5 157.652L189.713 160.703" stroke="#020901" stroke-width="0.5" stroke-linecap="round" stroke-linejoin="round"/>
<path d="M191.281 157.604L192.688 157.673C193.155 157.673 193.622 157.803 194.061 157.864" stroke="#020901" stroke-width="0.5" stroke-linecap="round" stroke-linejoin="round"/>
<path d="M191.219 160.662L192.413 160.724C192.811 160.724 193.195 160.833 193.593 160.881" stroke="#020901" stroke-width="0.5" stroke-linecap="round" stroke-linejoin="round"/>
<path d="M192.689 157.674L192.414 160.724" stroke="#020901" stroke-width="0.5" stroke-linecap="round" stroke-linejoin="round"/>
<path d="M194.414 157.92C194.877 157.995 195.336 158.098 195.787 158.228C196.252 158.329 196.71 158.459 197.159 158.618" stroke="#020901" stroke-width="0.5" stroke-linecap="round" stroke-linejoin="round"/>
<path d="M193.902 160.929C194.294 160.992 194.681 161.079 195.062 161.189C195.449 161.274 195.829 161.384 196.201 161.517" stroke="#020901" stroke-width="0.5" stroke-linecap="round" stroke-linejoin="round"/>
<path d="M195.824 158.228L195.062 161.189" stroke="#020901" stroke-width="0.5" stroke-linecap="round" stroke-linejoin="round"/>
<path d="M197.523 158.74C197.963 158.911 198.416 159.041 198.834 159.253L200.111 159.862" stroke="#020901" stroke-width="0.5" stroke-linecap="round" stroke-linejoin="round"/>
<path d="M196.477 161.627C196.847 161.771 197.231 161.873 197.588 162.051L198.659 162.571" stroke="#020901" stroke-width="0.5" stroke-linecap="round" stroke-linejoin="round"/>
<path d="M198.838 159.253L197.609 162.05" stroke="#020901" stroke-width="0.5" stroke-linecap="round" stroke-linejoin="round"/>
<path d="M200.434 160.061C201.252 160.52 202.039 161.034 202.788 161.599" stroke="#020901" stroke-width="0.5" stroke-linecap="round" stroke-linejoin="round"/>
<path d="M198.953 162.707C199.646 163.097 200.311 163.533 200.943 164.013" stroke="#020901" stroke-width="0.5" stroke-linecap="round" stroke-linejoin="round"/>
<path d="M201.644 160.758L199.977 163.33" stroke="#020901" stroke-width="0.5" stroke-linecap="round" stroke-linejoin="round"/>
<path d="M203.086 161.79C203.465 162.069 203.825 162.373 204.163 162.7C204.52 163.004 204.859 163.328 205.179 163.671" stroke="#020901" stroke-width="0.5" stroke-linecap="round" stroke-linejoin="round"/>
<path d="M201.195 164.198C201.813 164.696 202.402 165.228 202.959 165.792" stroke="#020901" stroke-width="0.5" stroke-linecap="round" stroke-linejoin="round"/>
<path d="M204.16 162.7L202.102 164.971" stroke="#020901" stroke-width="0.5" stroke-linecap="round" stroke-linejoin="round"/>
<path d="M205.398 163.945C205.707 164.301 206.05 164.629 206.325 165.005L207.169 166.127" stroke="#020901" stroke-width="0.5" stroke-linecap="round" stroke-linejoin="round"/>
<path d="M203.172 166.018C203.426 166.319 203.721 166.592 203.954 166.914L204.641 167.864" stroke="#020901" stroke-width="0.5" stroke-linecap="round" stroke-linejoin="round"/>
<path d="M206.352 165.005L203.957 166.913" stroke="#020901" stroke-width="0.5" stroke-linecap="round" stroke-linejoin="round"/>
<path d="M207.402 166.435C207.918 167.217 208.377 168.035 208.775 168.883" stroke="#020901" stroke-width="0.5" stroke-linecap="round" stroke-linejoin="round"/>
<path d="M204.84 168.124C205.273 168.781 205.661 169.466 206 170.176" stroke="#020901" stroke-width="0.5" stroke-linecap="round" stroke-linejoin="round"/>
<path d="M208.135 167.632L205.465 169.137" stroke="#020901" stroke-width="0.5" stroke-linecap="round" stroke-linejoin="round"/>
<path d="M208.938 169.219C209.139 169.641 209.315 170.075 209.466 170.518C209.639 170.954 209.786 171.399 209.905 171.852" stroke="#020901" stroke-width="0.5" stroke-linecap="round" stroke-linejoin="round"/>
<path d="M206.137 170.477C206.309 170.831 206.459 171.197 206.583 171.571C206.729 171.94 206.855 172.317 206.96 172.699" stroke="#020901" stroke-width="0.5" stroke-linecap="round" stroke-linejoin="round"/>
<path d="M209.468 170.519L206.586 171.572" stroke="#020901" stroke-width="0.5" stroke-linecap="round" stroke-linejoin="round"/>
<path d="M210 172.208C210.11 172.666 210.254 173.111 210.329 173.576L210.542 174.944" stroke="#020901" stroke-width="0.5" stroke-linecap="round" stroke-linejoin="round"/>
<path d="M207.039 173.001C207.128 173.384 207.259 173.76 207.314 174.15L207.499 175.326" stroke="#020901" stroke-width="0.5" stroke-linecap="round" stroke-linejoin="round"/>
<path d="M210.332 173.575L207.312 174.15" stroke="#020901" stroke-width="0.5" stroke-linecap="round" stroke-linejoin="round"/>
<path d="M210.594 175.326C210.628 176.263 210.731 177.2 210.676 178.137" stroke="#020901" stroke-width="0.5" stroke-linecap="round" stroke-linejoin="round"/>
<path d="M207.539 175.634C207.539 176.427 207.662 177.214 207.607 178.007" stroke="#020901" stroke-width="0.5" stroke-linecap="round" stroke-linejoin="round"/>
<path d="M210.669 176.729L207.602 176.825" stroke="#020901" stroke-width="0.5" stroke-linecap="round" stroke-linejoin="round"/>
<path d="M210.66 178.527C210.598 179.462 210.475 180.392 210.289 181.311" stroke="#020901" stroke-width="0.5" stroke-linecap="round" stroke-linejoin="round"/>
<path d="M207.594 178.322C207.546 179.113 207.443 179.899 207.285 180.675" stroke="#020901" stroke-width="0.5" stroke-linecap="round" stroke-linejoin="round"/>
<path d="M210.524 179.895L207.477 179.505" stroke="#020901" stroke-width="0.5" stroke-linecap="round" stroke-linejoin="round"/>
<path d="M210.2 181.646C209.993 182.56 209.72 183.458 209.383 184.333" stroke="#020901" stroke-width="0.5" stroke-linecap="round" stroke-linejoin="round"/>
<path d="M207.221 180.976C207.048 181.748 206.819 182.507 206.535 183.246" stroke="#020901" stroke-width="0.5" stroke-linecap="round" stroke-linejoin="round"/>
<path d="M209.858 183.007L206.914 182.125" stroke="#020901" stroke-width="0.5" stroke-linecap="round" stroke-linejoin="round"/>
<path d="M209.273 184.683C208.915 185.55 208.5 186.393 208.031 187.206" stroke="#020901" stroke-width="0.5" stroke-linecap="round" stroke-linejoin="round"/>
<path d="M206.425 183.541C206.124 184.273 205.773 184.984 205.375 185.668" stroke="#020901" stroke-width="0.5" stroke-linecap="round" stroke-linejoin="round"/>
<path d="M208.693 185.962L205.934 184.621" stroke="#020901" stroke-width="0.5" stroke-linecap="round" stroke-linejoin="round"/>
<path d="M207.845 187.521C207.354 188.32 206.81 189.085 206.219 189.813" stroke="#020901" stroke-width="0.5" stroke-linecap="round" stroke-linejoin="round"/>
<path d="M205.22 185.941C204.808 186.617 204.349 187.264 203.848 187.877" stroke="#020901" stroke-width="0.5" stroke-linecap="round" stroke-linejoin="round"/>
<path d="M207.071 188.697L204.566 186.926" stroke="#020901" stroke-width="0.5" stroke-linecap="round" stroke-linejoin="round"/>
<path d="M205.988 190.093C205.375 190.806 204.715 191.478 204.012 192.104" stroke="#020901" stroke-width="0.5" stroke-linecap="round" stroke-linejoin="round"/>
<path d="M203.646 188.104C203.122 188.707 202.56 189.278 201.965 189.813" stroke="#020901" stroke-width="0.5" stroke-linecap="round" stroke-linejoin="round"/>
<path d="M205.032 191.133L202.836 188.992" stroke="#020901" stroke-width="0.5" stroke-linecap="round" stroke-linejoin="round"/>
<path d="M181.115 184.217C180.136 182.836 179.462 181.262 179.138 179.601C178.814 177.94 178.848 176.23 179.237 174.583C179.627 172.936 180.363 171.39 181.396 170.048C182.43 168.706 183.738 167.598 185.233 166.797" stroke="#020901" stroke-width="2" stroke-miterlimit="10"/>
<path d="M193.979 188.855C191.616 189.477 189.119 189.366 186.821 188.538C184.523 187.709 182.534 186.202 181.117 184.218" stroke="#2A5F61" stroke-width="5" stroke-miterlimit="10"/>
<path d="M199.158 168.692C200.696 170.156 201.815 172.001 202.401 174.039C202.986 176.076 203.017 178.232 202.489 180.285C201.962 182.339 200.895 184.215 199.399 185.721C197.903 187.227 196.031 188.309 193.977 188.856" stroke="#020901" stroke-width="2" stroke-miterlimit="10"/>
<path d="M185.242 166.797C187.467 165.613 190.01 165.158 192.509 165.499C195.008 165.839 197.336 166.956 199.161 168.692" stroke="#2A5F61" stroke-width="5" stroke-miterlimit="10"/>
<path d="M215.053 178.862C214.988 177.926 214.988 176.987 215.053 176.051" stroke="#020901" stroke-width="0.5" stroke-linecap="round" stroke-linejoin="round"/>
<path d="M218.114 178.623C218.056 177.833 218.056 177.04 218.114 176.25" stroke="#020901" stroke-width="0.5" stroke-linecap="round" stroke-linejoin="round"/>
<path d="M214.992 177.46L218.067 177.433" stroke="#020901" stroke-width="0.5" stroke-linecap="round" stroke-linejoin="round"/>
<path d="M215.062 175.689C215.144 174.755 215.289 173.827 215.495 172.912" stroke="#020901" stroke-width="0.5" stroke-linecap="round" stroke-linejoin="round"/>
<path d="M218.121 175.935C218.188 175.145 218.309 174.362 218.485 173.589" stroke="#020901" stroke-width="0.5" stroke-linecap="round" stroke-linejoin="round"/>
<path d="M215.227 174.293L218.26 174.758" stroke="#020901" stroke-width="0.5" stroke-linecap="round" stroke-linejoin="round"/>
<path d="M215.582 172.556C215.803 171.644 216.094 170.75 216.454 169.882" stroke="#020901" stroke-width="0.5" stroke-linecap="round" stroke-linejoin="round"/>
<path d="M218.559 173.288C218.745 172.521 218.991 171.768 219.293 171.038" stroke="#020901" stroke-width="0.5" stroke-linecap="round" stroke-linejoin="round"/>
<path d="M215.965 171.202L218.882 172.153" stroke="#020901" stroke-width="0.5" stroke-linecap="round" stroke-linejoin="round"/>
<path d="M216.598 169.54C216.968 168.68 217.402 167.848 217.895 167.051" stroke="#020901" stroke-width="0.5" stroke-linecap="round" stroke-linejoin="round"/>
<path d="M219.41 170.75C219.724 170.022 220.091 169.318 220.508 168.644" stroke="#020901" stroke-width="0.5" stroke-linecap="round" stroke-linejoin="round"/>
<path d="M217.203 168.274L219.928 169.677" stroke="#020901" stroke-width="0.5" stroke-linecap="round" stroke-linejoin="round"/>
<path d="M218.086 166.736C218.333 166.339 218.601 165.956 218.889 165.58L219.767 164.485" stroke="#020901" stroke-width="0.5" stroke-linecap="round" stroke-linejoin="round"/>
<path d="M220.672 168.378C220.885 168.043 221.111 167.694 221.358 167.4L222.106 166.477" stroke="#020901" stroke-width="0.5" stroke-linecap="round" stroke-linejoin="round"/>
<path d="M218.891 165.58L221.354 167.399" stroke="#020901" stroke-width="0.5" stroke-linecap="round" stroke-linejoin="round"/>
<path d="M220 164.205C220.323 163.863 220.686 163.521 220.988 163.2C221.153 163.036 221.311 162.858 221.489 162.7L222.031 162.256" stroke="#020901" stroke-width="0.5" stroke-linecap="round" stroke-linejoin="round"/>
<path d="M222.301 166.216L223.131 165.368C223.275 165.224 223.406 165.08 223.557 164.944L224.017 164.567" stroke="#020901" stroke-width="0.5" stroke-linecap="round" stroke-linejoin="round"/>
<path d="M220.988 163.2L223.13 165.389" stroke="#020901" stroke-width="0.5" stroke-linecap="round" stroke-linejoin="round"/>
<path d="M222.312 162.016C222.67 161.711 223.045 161.427 223.438 161.168C223.829 160.908 224.214 160.642 224.612 160.389" stroke="#020901" stroke-width="0.5" stroke-linecap="round" stroke-linejoin="round"/>
<path d="M224.258 164.389C224.555 164.137 224.872 163.908 225.205 163.705C225.534 163.487 225.857 163.254 226.193 163.021" stroke="#020901" stroke-width="0.5" stroke-linecap="round" stroke-linejoin="round"/>
<path d="M223.438 161.168L225.201 163.678" stroke="#020901" stroke-width="0.5" stroke-linecap="round" stroke-linejoin="round"/>
<path d="M224.938 160.217L226.187 159.534C226.612 159.342 227.051 159.171 227.484 158.986" stroke="#020901" stroke-width="0.5" stroke-linecap="round" stroke-linejoin="round"/>
<path d="M226.465 162.872L227.515 162.304L228.613 161.846" stroke="#020901" stroke-width="0.5" stroke-linecap="round" stroke-linejoin="round"/>
<path d="M226.184 159.547L227.515 162.303" stroke="#020901" stroke-width="0.5" stroke-linecap="round" stroke-linejoin="round"/>
<path d="M227.816 158.857C228.256 158.686 228.709 158.57 229.155 158.419L229.841 158.214L230.527 158.07" stroke="#020901" stroke-width="0.5" stroke-linecap="round" stroke-linejoin="round"/>
<path d="M228.898 161.722C229.269 161.572 229.66 161.483 230.038 161.353L230.6 161.175L231.191 161.059" stroke="#020901" stroke-width="0.5" stroke-linecap="round" stroke-linejoin="round"/>
<path d="M229.156 158.419L230.035 161.353" stroke="#020901" stroke-width="0.5" stroke-linecap="round" stroke-linejoin="round"/>
<path d="M230.887 158.008C231.339 157.901 231.797 157.823 232.259 157.775C232.726 157.728 233.193 157.666 233.632 157.632" stroke="#020901" stroke-width="0.5" stroke-linecap="round" stroke-linejoin="round"/>
<path d="M231.477 160.997C231.862 160.901 232.254 160.834 232.65 160.799C233.048 160.758 233.439 160.703 233.837 160.676" stroke="#020901" stroke-width="0.5" stroke-linecap="round" stroke-linejoin="round"/>
<path d="M232.273 157.762L232.665 160.799" stroke="#020901" stroke-width="0.5" stroke-linecap="round" stroke-linejoin="round"/>
<path d="M234.043 157.618L235.457 157.598L236.864 157.707" stroke="#020901" stroke-width="0.5" stroke-linecap="round" stroke-linejoin="round"/>
<path d="M234.16 160.669L235.354 160.655L236.542 160.752" stroke="#020901" stroke-width="0.5" stroke-linecap="round" stroke-linejoin="round"/>
<path d="M235.455 157.598L235.352 160.655" stroke="#020901" stroke-width="0.5" stroke-linecap="round" stroke-linejoin="round"/>
<path d="M237.227 157.742C237.693 157.797 238.153 157.893 238.599 157.975L239.285 158.105L239.972 158.296" stroke="#020901" stroke-width="0.5" stroke-linecap="round" stroke-linejoin="round"/>
<path d="M236.852 160.744C237.25 160.792 237.634 160.881 238.025 160.949C238.224 160.984 238.423 161.011 238.615 161.052L239.185 161.216" stroke="#020901" stroke-width="0.5" stroke-linecap="round" stroke-linejoin="round"/>
<path d="M238.621 157.975L238.023 160.977" stroke="#020901" stroke-width="0.5" stroke-linecap="round" stroke-linejoin="round"/>
<path d="M240.344 158.392C241.246 158.657 242.131 158.979 242.993 159.356" stroke="#020901" stroke-width="0.5" stroke-linecap="round" stroke-linejoin="round"/>
<path d="M239.484 161.333C240.246 161.555 240.994 161.825 241.722 162.14" stroke="#020901" stroke-width="0.5" stroke-linecap="round" stroke-linejoin="round"/>
<path d="M241.68 158.836L240.609 161.702" stroke="#020901" stroke-width="0.5" stroke-linecap="round" stroke-linejoin="round"/>
<path d="M243.32 159.52L244.576 160.203C244.988 160.429 245.366 160.703 245.764 160.956" stroke="#020901" stroke-width="0.5" stroke-linecap="round" stroke-linejoin="round"/>
<path d="M241.996 162.283L243.053 162.824C243.403 163.015 243.739 163.254 244.062 163.466" stroke="#020901" stroke-width="0.5" stroke-linecap="round" stroke-linejoin="round"/>
<path d="M244.578 160.17L243.055 162.824" stroke="#020901" stroke-width="0.5" stroke-linecap="round" stroke-linejoin="round"/>
<path d="M246.074 161.12C246.84 161.663 247.573 162.25 248.27 162.878" stroke="#020901" stroke-width="0.5" stroke-linecap="round" stroke-linejoin="round"/>
<path d="M244.324 163.631C244.655 163.838 244.971 164.066 245.271 164.315C245.591 164.554 245.896 164.812 246.184 165.088" stroke="#020901" stroke-width="0.5" stroke-linecap="round" stroke-linejoin="round"/>
<path d="M247.202 161.969L245.273 164.349" stroke="#020901" stroke-width="0.5" stroke-linecap="round" stroke-linejoin="round"/>
<path d="M248.531 163.131C248.861 163.466 249.218 163.781 249.526 164.136L250.425 165.217" stroke="#020901" stroke-width="0.5" stroke-linecap="round" stroke-linejoin="round"/>
<path d="M246.402 165.341C246.677 165.621 246.979 165.881 247.24 166.182L248.001 167.099" stroke="#020901" stroke-width="0.5" stroke-linecap="round" stroke-linejoin="round"/>
<path d="M249.528 164.137L247.242 166.182" stroke="#020901" stroke-width="0.5" stroke-linecap="round" stroke-linejoin="round"/>
<path d="M250.695 165.532C251.247 166.293 251.749 167.088 252.198 167.912" stroke="#020901" stroke-width="0.5" stroke-linecap="round" stroke-linejoin="round"/>
<path d="M248.203 167.331C248.664 167.977 249.088 168.648 249.473 169.342" stroke="#020901" stroke-width="0.5" stroke-linecap="round" stroke-linejoin="round"/>
<path d="M251.448 166.667L248.867 168.315" stroke="#020901" stroke-width="0.5" stroke-linecap="round" stroke-linejoin="round"/>
<path d="M252.34 168.199L252.669 168.822L252.944 169.471C253.115 169.902 253.328 170.326 253.465 170.771" stroke="#020901" stroke-width="0.5" stroke-linecap="round" stroke-linejoin="round"/>
<path d="M249.617 169.636L249.899 170.156L250.132 170.703C250.276 171.072 250.454 171.428 250.571 171.804" stroke="#020901" stroke-width="0.5" stroke-linecap="round" stroke-linejoin="round"/>
<path d="M252.943 169.472L250.129 170.682" stroke="#020901" stroke-width="0.5" stroke-linecap="round" stroke-linejoin="round"/>
<path d="M253.574 171.126C253.711 171.571 253.862 172.015 253.986 172.494L254.274 173.862" stroke="#020901" stroke-width="0.5" stroke-linecap="round" stroke-linejoin="round"/>
<path d="M250.695 172.084C250.805 172.46 250.936 172.836 251.038 173.219L251.286 174.382" stroke="#020901" stroke-width="0.5" stroke-linecap="round" stroke-linejoin="round"/>
<path d="M253.986 172.468L251.008 173.22" stroke="#020901" stroke-width="0.5" stroke-linecap="round" stroke-linejoin="round"/>
<path d="M254.352 174.204C254.485 175.131 254.561 176.065 254.578 177.002" stroke="#020901" stroke-width="0.5" stroke-linecap="round" stroke-linejoin="round"/>
<path d="M251.32 174.684C251.433 175.47 251.495 176.263 251.506 177.057" stroke="#020901" stroke-width="0.5" stroke-linecap="round" stroke-linejoin="round"/>
<path d="M254.51 175.601L251.449 175.867" stroke="#020901" stroke-width="0.5" stroke-linecap="round" stroke-linejoin="round"/>
<path d="M254.578 177.371C254.578 177.604 254.578 177.836 254.578 178.055L254.516 178.739C254.468 179.204 254.468 179.676 254.379 180.107" stroke="#020901" stroke-width="0.5" stroke-linecap="round" stroke-linejoin="round"/>
<path d="M251.508 177.364C251.508 177.563 251.508 177.761 251.508 177.959L251.453 178.548C251.434 178.944 251.396 179.339 251.336 179.731" stroke="#020901" stroke-width="0.5" stroke-linecap="round" stroke-linejoin="round"/>
<path d="M254.522 178.774L251.461 178.548" stroke="#020901" stroke-width="0.5" stroke-linecap="round" stroke-linejoin="round"/>
<path d="M254.316 180.531C254.227 180.99 254.165 181.455 254.055 181.899L253.664 183.267" stroke="#020901" stroke-width="0.5" stroke-linecap="round" stroke-linejoin="round"/>
<path d="M251.291 180.039C251.216 180.422 251.161 180.819 251.072 181.202L250.742 182.344" stroke="#020901" stroke-width="0.5" stroke-linecap="round" stroke-linejoin="round"/>
<path d="M254.056 181.913L251.07 181.201" stroke="#020901" stroke-width="0.5" stroke-linecap="round" stroke-linejoin="round"/>
<path d="M253.569 183.616C253.255 184.501 252.884 185.365 252.457 186.202" stroke="#020901" stroke-width="0.5" stroke-linecap="round" stroke-linejoin="round"/>
<path d="M250.694 182.631C250.426 183.375 250.112 184.101 249.754 184.806" stroke="#020901" stroke-width="0.5" stroke-linecap="round" stroke-linejoin="round"/>
<path d="M253.053 184.929L250.219 183.746" stroke="#020901" stroke-width="0.5" stroke-linecap="round" stroke-linejoin="round"/>
<path d="M252.285 186.53L251.963 187.153C251.846 187.358 251.709 187.549 251.585 187.748L250.816 188.924" stroke="#020901" stroke-width="0.5" stroke-linecap="round" stroke-linejoin="round"/>
<path d="M249.574 185.101L249.307 185.627C249.204 185.798 249.087 185.962 248.984 186.127L248.332 187.125" stroke="#020901" stroke-width="0.5" stroke-linecap="round" stroke-linejoin="round"/>
<path d="M251.585 187.747L248.984 186.126" stroke="#020901" stroke-width="0.5" stroke-linecap="round" stroke-linejoin="round"/>
<path d="M250.583 189.204L249.698 190.298C249.403 190.668 249.053 190.982 248.73 191.318" stroke="#020901" stroke-width="0.5" stroke-linecap="round" stroke-linejoin="round"/>
<path d="M248.134 187.364L247.386 188.288C247.139 188.602 246.837 188.862 246.562 189.149" stroke="#020901" stroke-width="0.5" stroke-linecap="round" stroke-linejoin="round"/>
<path d="M249.696 190.298L247.383 188.287" stroke="#020901" stroke-width="0.5" stroke-linecap="round" stroke-linejoin="round"/>
<path d="M248.47 191.577C248.139 191.91 247.785 192.221 247.413 192.507C247.059 192.816 246.688 193.104 246.301 193.369" stroke="#020901" stroke-width="0.5" stroke-linecap="round" stroke-linejoin="round"/>
<path d="M246.348 189.368C246.066 189.65 245.766 189.913 245.449 190.155C245.155 190.419 244.843 190.664 244.516 190.887" stroke="#020901" stroke-width="0.5" stroke-linecap="round" stroke-linejoin="round"/>
<path d="M247.412 192.508L245.449 190.155" stroke="#020901" stroke-width="0.5" stroke-linecap="round" stroke-linejoin="round"/>
<path d="M245.993 193.575C245.602 193.828 245.224 194.122 244.813 194.341L243.57 195.025" stroke="#020901" stroke-width="0.5" stroke-linecap="round" stroke-linejoin="round"/>
<path d="M244.256 191.058C243.92 191.27 243.611 191.516 243.261 191.701L242.211 192.261" stroke="#020901" stroke-width="0.5" stroke-linecap="round" stroke-linejoin="round"/>
<path d="M244.813 194.34L243.262 191.7" stroke="#020901" stroke-width="0.5" stroke-linecap="round" stroke-linejoin="round"/>
<path d="M243.241 195.168C242.386 195.56 241.506 195.894 240.605 196.167" stroke="#020901" stroke-width="0.5" stroke-linecap="round" stroke-linejoin="round"/>
<path d="M241.927 192.405C241.204 192.733 240.462 193.014 239.703 193.247" stroke="#020901" stroke-width="0.5" stroke-linecap="round" stroke-linejoin="round"/>
<path d="M241.937 195.715L240.832 192.863" stroke="#020901" stroke-width="0.5" stroke-linecap="round" stroke-linejoin="round"/>
<path d="M240.245 196.311C239.796 196.454 239.337 196.566 238.873 196.646C238.42 196.754 237.962 196.837 237.5 196.892" stroke="#020901" stroke-width="0.5" stroke-linecap="round" stroke-linejoin="round"/>
<path d="M239.405 193.335C239.028 193.456 238.642 193.549 238.252 193.615C237.865 193.71 237.473 193.781 237.078 193.827" stroke="#020901" stroke-width="0.5" stroke-linecap="round" stroke-linejoin="round"/>
<path d="M238.881 196.611L238.25 193.615" stroke="#020901" stroke-width="0.5" stroke-linecap="round" stroke-linejoin="round"/>
<path d="M237.13 196.898C236.664 196.963 236.194 197.004 235.723 197.022H234.316" stroke="#020901" stroke-width="0.5" stroke-linecap="round" stroke-linejoin="round"/>
<path d="M236.768 193.862C236.37 193.862 235.979 193.972 235.581 193.972H234.387" stroke="#020901" stroke-width="0.5" stroke-linecap="round" stroke-linejoin="round"/>
<path d="M235.726 197.021L235.582 193.971" stroke="#020901" stroke-width="0.5" stroke-linecap="round" stroke-linejoin="round"/>
<path d="M233.949 197.035C233.009 196.989 232.073 196.877 231.148 196.7" stroke="#020901" stroke-width="0.5" stroke-linecap="round" stroke-linejoin="round"/>
<path d="M234.079 193.979C233.284 193.937 232.493 193.843 231.711 193.698" stroke="#020901" stroke-width="0.5" stroke-linecap="round" stroke-linejoin="round"/>
<path d="M232.539 196.92L232.889 193.883" stroke="#020901" stroke-width="0.5" stroke-linecap="round" stroke-linejoin="round"/>
<path d="M230.789 196.639C229.871 196.438 228.966 196.182 228.078 195.873" stroke="#020901" stroke-width="0.5" stroke-linecap="round" stroke-linejoin="round"/>
<path d="M231.409 193.643C230.633 193.473 229.868 193.259 229.117 193" stroke="#020901" stroke-width="0.5" stroke-linecap="round" stroke-linejoin="round"/>
<path d="M229.418 196.297L230.255 193.355" stroke="#020901" stroke-width="0.5" stroke-linecap="round" stroke-linejoin="round"/>
<path d="M227.729 195.743C227.296 195.558 226.844 195.415 226.425 195.203L225.176 194.56" stroke="#020901" stroke-width="0.5" stroke-linecap="round" stroke-linejoin="round"/>
<path d="M228.826 192.89C228.462 192.733 228.078 192.617 227.728 192.439L226.664 191.892" stroke="#020901" stroke-width="0.5" stroke-linecap="round" stroke-linejoin="round"/>
<path d="M226.426 195.203L227.73 192.433" stroke="#020901" stroke-width="0.5" stroke-linecap="round" stroke-linejoin="round"/>
<path d="M224.846 194.389C224.064 193.869 223.247 193.397 222.52 192.802" stroke="#020901" stroke-width="0.5" stroke-linecap="round" stroke-linejoin="round"/>
<path d="M226.392 191.742C225.74 191.297 225.019 190.908 224.422 190.374" stroke="#020901" stroke-width="0.5" stroke-linecap="round" stroke-linejoin="round"/>
<path d="M223.664 193.622L225.394 191.092" stroke="#020901" stroke-width="0.5" stroke-linecap="round" stroke-linejoin="round"/>
<path d="M222.231 192.576C221.5 191.98 220.812 191.333 220.172 190.641" stroke="#020901" stroke-width="0.5" stroke-linecap="round" stroke-linejoin="round"/>
<path d="M224.183 190.21C223.567 189.708 222.989 189.161 222.453 188.575" stroke="#020901" stroke-width="0.5" stroke-linecap="round" stroke-linejoin="round"/>
<path d="M221.176 191.646L223.29 189.423" stroke="#020901" stroke-width="0.5" stroke-linecap="round" stroke-linejoin="round"/>
<path d="M219.939 190.373C219.317 189.669 218.746 188.921 218.23 188.137" stroke="#020901" stroke-width="0.5" stroke-linecap="round" stroke-linejoin="round"/>
<path d="M222.238 188.35C221.715 187.754 221.234 187.123 220.797 186.462" stroke="#020901" stroke-width="0.5" stroke-linecap="round" stroke-linejoin="round"/>
<path d="M219.047 189.286L221.483 187.426" stroke="#020901" stroke-width="0.5" stroke-linecap="round" stroke-linejoin="round"/>
<path d="M218.025 187.829C217.532 187.031 217.092 186.202 216.707 185.347" stroke="#020901" stroke-width="0.5" stroke-linecap="round" stroke-linejoin="round"/>
<path d="M220.627 186.201C220.208 185.528 219.837 184.826 219.516 184.102" stroke="#020901" stroke-width="0.5" stroke-linecap="round" stroke-linejoin="round"/>
<path d="M217.324 186.612L220.035 185.169" stroke="#020901" stroke-width="0.5" stroke-linecap="round" stroke-linejoin="round"/>
<path d="M216.554 185.011C216.191 184.146 215.888 183.257 215.648 182.351" stroke="#020901" stroke-width="0.5" stroke-linecap="round" stroke-linejoin="round"/>
<path d="M219.383 183.822C219.077 183.09 218.822 182.338 218.621 181.571" stroke="#020901" stroke-width="0.5" stroke-linecap="round" stroke-linejoin="round"/>
<path d="M216.062 183.698L218.966 182.706" stroke="#020901" stroke-width="0.5" stroke-linecap="round" stroke-linejoin="round"/>
<path d="M215.559 181.996C215.336 181.085 215.178 180.159 215.086 179.226" stroke="#020901" stroke-width="0.5" stroke-linecap="round" stroke-linejoin="round"/>
<path d="M218.539 181.263C218.354 180.493 218.221 179.711 218.141 178.924" stroke="#020901" stroke-width="0.5" stroke-linecap="round" stroke-linejoin="round"/>
<path d="M215.281 180.62L218.308 180.107" stroke="#020901" stroke-width="0.5" stroke-linecap="round" stroke-linejoin="round"/>
<path d="M234.906 165.389C236.604 165.408 238.278 165.787 239.818 166.5C241.357 167.214 242.727 168.246 243.835 169.527C244.944 170.809 245.766 172.311 246.248 173.933C246.73 175.556 246.859 177.262 246.628 178.938" stroke="#020901" stroke-width="2" stroke-miterlimit="10"/>
<path d="M223.617 173.055C224.489 170.782 226.039 168.829 228.057 167.459C230.075 166.088 232.465 165.366 234.907 165.388" stroke="#2A5F61" stroke-width="5" stroke-miterlimit="10"/>
<path d="M236.968 189.06C234.877 189.443 232.721 189.264 230.722 188.542C228.723 187.82 226.953 186.58 225.594 184.951C224.235 183.321 223.336 181.361 222.989 179.27C222.642 177.18 222.859 175.035 223.619 173.056" stroke="#020901" stroke-width="2" stroke-miterlimit="10"/>
<path d="M246.659 178.938C246.32 181.427 245.2 183.746 243.46 185.563C241.719 187.381 239.448 188.605 236.969 189.06" stroke="#2A5F61" stroke-width="5" stroke-miterlimit="10"/>
<path d="M119.758 124.062H131.954" stroke="#020901" stroke-width="2" stroke-linecap="round" stroke-linejoin="round"/>
<path d="M119.758 126.799H131.954" stroke="#020901" stroke-width="2" stroke-linecap="round" stroke-linejoin="round"/>
<path d="M119.758 129.528H131.954" stroke="#020901" stroke-width="2" stroke-linecap="round" stroke-linejoin="round"/>
<path d="M135.109 141.073L143.819 124.795L151.045 141.073L158.753 113.728L166.982 141.073L175.073 133.33L182.925 141.073L190.707 127.052L197.653 141.073L206.335 133.33L214.797 141.073L221.962 104.036L230.733 141.073L238.982 133.33L246.669 141.073" stroke="#020901" stroke-linecap="round" stroke-linejoin="round"/>
<path d="M246.669 138.084L238.982 120L230.733 120.274L221.962 90.7129L214.797 99.2077L206.335 120L197.653 120.78L190.707 109.228L182.925 127.75L175.073 131.395L166.982 122.558L158.753 106.581L151.045 116.17L143.819 113.113L135.109 138.084" stroke="#020901" stroke-linecap="round" stroke-linejoin="round"/>
<path d="M134.977 144.378V147.244" stroke="#020901" stroke-width="0.5" stroke-linecap="round" stroke-linejoin="round"/>
<path d="M150.91 144.378V147.244" stroke="#020901" stroke-width="0.5" stroke-linecap="round" stroke-linejoin="round"/>
<path d="M166.848 144.378V147.244" stroke="#020901" stroke-width="0.5" stroke-linecap="round" stroke-linejoin="round"/>
<path d="M182.781 144.378V147.244" stroke="#020901" stroke-width="0.5" stroke-linecap="round" stroke-linejoin="round"/>
<path d="M198.719 144.378V147.244" stroke="#020901" stroke-width="0.5" stroke-linecap="round" stroke-linejoin="round"/>
<path d="M214.656 144.378V147.244" stroke="#020901" stroke-width="0.5" stroke-linecap="round" stroke-linejoin="round"/>
<path d="M230.594 144.378V147.244" stroke="#020901" stroke-width="0.5" stroke-linecap="round" stroke-linejoin="round"/>
<path d="M246.531 144.378V147.244" stroke="#020901" stroke-width="0.5" stroke-linecap="round" stroke-linejoin="round"/>
<path d="M131.48 144.378H250.308" stroke="#020901" stroke-width="0.5" stroke-linecap="round" stroke-linejoin="round"/>
<path d="M210.586 91.8761C210.238 91.8688 209.899 91.7559 209.617 91.5523C209.334 91.3488 209.121 91.0643 209.004 90.7368C208.888 90.4092 208.875 90.0541 208.966 89.7188C209.057 89.3835 209.249 89.0839 209.515 88.8598C216.028 83.4312 220.897 76.3034 223.575 68.274C226.254 60.2447 226.638 51.6308 224.683 43.3965C224.578 42.9548 224.654 42.4898 224.893 42.1037C225.133 41.7176 225.516 41.4421 225.959 41.3378C226.403 41.2335 226.869 41.3089 227.257 41.5475C227.644 41.7861 227.921 42.1683 228.025 42.61C228.901 46.3176 229.343 50.1138 229.343 53.9228C229.35 61.0881 227.774 68.167 224.728 74.6576C221.683 81.1481 217.241 86.8912 211.718 91.4794C211.402 91.7443 210.999 91.8853 210.586 91.8761Z" fill="#2A5F61" stroke="#020901" stroke-miterlimit="10"/>
<path d="M180.202 91.4452C200.996 91.4452 217.853 74.6458 217.853 53.9228C217.853 33.1997 200.996 16.4004 180.202 16.4004C159.408 16.4004 142.551 33.1997 142.551 53.9228C142.551 74.6458 159.408 91.4452 180.202 91.4452Z" stroke="#020901" stroke-miterlimit="10"/>
<path d="M180.205 26.3105C174.725 26.3092 169.368 27.9274 164.811 30.9606C160.254 33.9938 156.701 38.3057 154.603 43.351C152.505 48.3962 151.955 53.9482 153.024 59.3048C154.092 64.6614 156.73 69.582 160.605 73.4443C164.479 77.3065 169.416 79.937 174.791 81.0029C180.165 82.0689 185.737 81.5225 190.8 79.4328C195.863 77.3431 200.19 73.8041 203.235 69.2632C206.28 64.7223 207.905 59.3836 207.905 53.9223C207.905 46.6004 204.987 39.5783 199.792 34.4003C194.598 29.2222 187.552 26.3124 180.205 26.3105ZM180.205 74.1882C176.178 74.1828 172.243 72.9873 168.897 70.7529C165.551 68.5186 162.946 65.3457 161.41 61.6355C159.873 57.9253 159.476 53.8445 160.267 49.9091C161.058 45.9736 163.002 42.3603 165.854 39.5261C168.705 36.6918 172.336 34.764 176.287 33.9863C180.238 33.2085 184.332 33.6159 188.051 35.1569C191.769 36.6978 194.946 39.3031 197.179 42.6433C199.412 45.9835 200.601 49.9086 200.596 53.9223C200.596 56.5895 200.068 59.2306 199.043 61.6945C198.018 64.1584 196.516 66.3967 194.622 68.2815C192.728 70.1662 190.48 71.6604 188.006 72.6787C185.533 73.6969 182.882 74.2191 180.205 74.2155V74.1882Z" fill="#2A5F61" stroke="#020901" stroke-miterlimit="10"/>
<path d="M184.05 53.923C184.05 54.6835 183.824 55.427 183.4 56.0593C182.975 56.6915 182.373 57.1842 181.667 57.4749C180.962 57.7657 180.186 57.8414 179.438 57.6925C178.69 57.5436 178.002 57.1769 177.463 56.6386C176.924 56.1003 176.557 55.4148 176.409 54.6687C176.261 53.9226 176.339 53.1495 176.632 52.4473C176.924 51.745 177.42 51.1451 178.055 50.7236C178.69 50.302 179.437 50.0778 180.2 50.0791C181.222 50.0809 182.201 50.4867 182.923 51.2074C183.645 51.928 184.05 52.9047 184.05 53.923Z" fill="#020901" stroke="#020901" stroke-linecap="round" stroke-linejoin="round"/>
<path d="M210.586 40.2081L237.743 32.8213" stroke="#020901" stroke-linecap="round" stroke-linejoin="round"/>
<path d="M159.277 73.0947L145.139 85.837H128.551" stroke="#020901" stroke-linecap="round" stroke-linejoin="round"/>
<path d="M168.89 25.285L160.922 3.95898H151.32" stroke="#020901" stroke-linecap="round" stroke-linejoin="round"/>
<path d="M132.945 1.22266H145.141" stroke="#020901" stroke-width="2" stroke-linecap="round" stroke-linejoin="round"/>
<path d="M132.945 3.95898H145.141" stroke="#020901" stroke-width="2" stroke-linecap="round" stroke-linejoin="round"/>
<path d="M132.945 6.69434H145.141" stroke="#020901" stroke-width="2" stroke-linecap="round" stroke-linejoin="round"/>
<path d="M128.551 89.1465H140.753" stroke="#020901" stroke-width="2" stroke-linecap="round" stroke-linejoin="round"/>
<path d="M128.551 91.875H140.753" stroke="#020901" stroke-width="2" stroke-linecap="round" stroke-linejoin="round"/>
<path d="M128.551 94.6113H140.753" stroke="#020901" stroke-width="2" stroke-linecap="round" stroke-linejoin="round"/>
<path d="M241.039 26.0088H253.235" stroke="#020901" stroke-width="2" stroke-linecap="round" stroke-linejoin="round"/>
<path d="M241.039 28.7383H253.235" stroke="#020901" stroke-width="2" stroke-linecap="round" stroke-linejoin="round"/>
<path d="M241.039 31.4746H253.235" stroke="#020901" stroke-width="2" stroke-linecap="round" stroke-linejoin="round"/>
<path d="M241.039 63.8535H253.235" stroke="#020901" stroke-width="2" stroke-linecap="round" stroke-linejoin="round"/>
<path d="M241.039 66.582H253.235" stroke="#020901" stroke-width="2" stroke-linecap="round" stroke-linejoin="round"/>
<path d="M241.039 69.3184H253.235" stroke="#020901" stroke-width="2" stroke-linecap="round" stroke-linejoin="round"/>
<path d="M180.203 17.6523V20.4156" stroke="#020901" stroke-linecap="round" stroke-linejoin="round"/>
<path d="M170.781 18.8896L171.502 21.5571" stroke="#020901" stroke-linecap="round" stroke-linejoin="round"/>
<path d="M162 22.5146L163.386 24.9017" stroke="#020901" stroke-linecap="round" stroke-linejoin="round"/>
<path d="M154.465 28.2744L156.421 30.2305" stroke="#020901" stroke-linecap="round" stroke-linejoin="round"/>
<path d="M148.68 35.79L151.082 37.1648" stroke="#020901" stroke-linecap="round" stroke-linejoin="round"/>
<path d="M145.043 44.5381L147.72 45.2494" stroke="#020901" stroke-linecap="round" stroke-linejoin="round"/>
<path d="M143.809 53.9219H146.574" stroke="#020901" stroke-linecap="round" stroke-linejoin="round"/>
<path d="M145.043 63.307L147.72 62.5957" stroke="#020901" stroke-linecap="round" stroke-linejoin="round"/>
<path d="M148.68 72.0545L151.082 70.6797" stroke="#020901" stroke-linecap="round" stroke-linejoin="round"/>
<path d="M154.465 79.5714L156.421 77.6152" stroke="#020901" stroke-linecap="round" stroke-linejoin="round"/>
<path d="M162 85.3294L163.386 82.9424" stroke="#020901" stroke-linecap="round" stroke-linejoin="round"/>
<path d="M170.781 88.9556L171.502 86.2881" stroke="#020901" stroke-linecap="round" stroke-linejoin="round"/>
<path d="M180.203 90.1939V87.4307" stroke="#020901" stroke-linecap="round" stroke-linejoin="round"/>
<path d="M189.62 88.9556L188.906 86.2881" stroke="#020901" stroke-linecap="round" stroke-linejoin="round"/>
<path d="M198.398 85.3294L197.012 82.9424" stroke="#020901" stroke-linecap="round" stroke-linejoin="round"/>
<path d="M205.933 79.5714L203.977 77.6152" stroke="#020901" stroke-linecap="round" stroke-linejoin="round"/>
<path d="M209.316 70.6797L227.751 81.2812H240.344" stroke="#020901" stroke-linecap="round" stroke-linejoin="round"/>
<path d="M215.356 63.307L212.68 62.5957" stroke="#020901" stroke-linecap="round" stroke-linejoin="round"/>
<path d="M216.59 53.9219H213.824" stroke="#020901" stroke-linecap="round" stroke-linejoin="round"/>
<path d="M215.356 44.5381L212.68 45.2494" stroke="#020901" stroke-linecap="round" stroke-linejoin="round"/>
<path d="M211.718 35.79L209.316 37.1648" stroke="#020901" stroke-linecap="round" stroke-linejoin="round"/>
<path d="M205.933 28.2744L203.977 30.2305" stroke="#020901" stroke-linecap="round" stroke-linejoin="round"/>
<path d="M198.398 22.5146L197.012 24.9017" stroke="#020901" stroke-linecap="round" stroke-linejoin="round"/>
<path d="M189.62 18.8896L188.906 21.5571" stroke="#020901" stroke-linecap="round" stroke-linejoin="round"/>
<path d="M115.023 45.5301H128.805V37.09H120.809L119.992 35.0312H115.023V45.5301Z" fill="#2A5F61" stroke="#020901" stroke-miterlimit="10"/>
<path d="M115.023 59.1747H128.805V50.7345H120.809L119.992 48.6689H115.023V59.1747Z" fill="#2A5F61" stroke="#020901" stroke-miterlimit="10"/>
<path d="M115.023 72.8133H128.805V64.3732H120.809L119.992 62.3145H115.023V72.8133Z" fill="#2A5F61" stroke="#020901" stroke-miterlimit="10"/>
<path d="M148.181 100.479C148.181 100.796 148.086 101.105 147.91 101.369C147.734 101.632 147.483 101.837 147.189 101.958C146.896 102.079 146.573 102.111 146.261 102.049C145.95 101.987 145.664 101.835 145.439 101.611C145.215 101.387 145.062 101.102 145 100.792C144.938 100.481 144.969 100.159 145.091 99.8669C145.213 99.5745 145.418 99.3245 145.682 99.1486C145.947 98.9728 146.257 98.8789 146.575 98.8789C147 98.8807 147.408 99.0499 147.708 99.3497C148.009 99.6494 148.179 100.055 148.181 100.479Z" fill="#2A5F61"/>
<path d="M154.309 102.08C155.196 102.08 155.915 101.363 155.915 100.479C155.915 99.5955 155.196 98.8789 154.309 98.8789C153.422 98.8789 152.703 99.5955 152.703 100.479C152.703 101.363 153.422 102.08 154.309 102.08Z" fill="#2A5F61"/>
<path d="M162.036 102.08C162.923 102.08 163.642 101.363 163.642 100.479C163.642 99.5955 162.923 98.8789 162.036 98.8789C161.149 98.8789 160.43 99.5955 160.43 100.479C160.43 101.363 161.149 102.08 162.036 102.08Z" fill="#2A5F61"/>
<path d="M169.762 102.08C170.649 102.08 171.368 101.363 171.368 100.479C171.368 99.5955 170.649 98.8789 169.762 98.8789C168.875 98.8789 168.156 99.5955 168.156 100.479C168.156 101.363 168.875 102.08 169.762 102.08Z" fill="#2A5F61"/>
<path d="M117.048 157.728H6.53125L9.96966 153.221H112.6L117.048 157.728Z" fill="white" stroke="#020901" stroke-linecap="round" stroke-linejoin="round"/>
<path d="M72.2519 153.836C71.0506 153.346 69.8875 152.768 68.7723 152.106C68.7723 152.106 75.203 120.274 75.4432 109.816C75.6834 99.3584 77.111 77.7383 77.111 77.7383H48.3203C48.3203 77.7383 49.7478 99.3653 49.988 109.816C50.2282 120.267 55.3001 152.106 55.3001 152.106C54.1857 152.77 53.0225 153.348 51.8205 153.836C50.2763 154.418 48.3478 155.204 49.3086 155.574C50.619 155.994 52.0054 156.124 53.3715 155.957C55.3889 155.422 57.3339 154.646 59.164 153.645C59.9327 153.07 60.969 91.0414 60.969 91.0414H63.0279C63.0279 91.0414 64.1123 153.07 64.8809 153.645C66.7129 154.647 68.6603 155.423 70.6803 155.957C72.0442 156.124 73.4282 155.993 74.7363 155.574C75.6834 155.184 73.7755 154.418 72.2519 153.836Z" fill="#020901" stroke="#020901" stroke-linecap="round" stroke-linejoin="round"/>
<path d="M58.574 37.5752L49.5078 45.4135V78.921H72.8766V45.1741L65.4233 37.753L58.574 37.5752Z" fill="white" stroke="#020901" stroke-linecap="round" stroke-linejoin="round"/>
<path d="M64.1401 45.8385L61.841 44.7852L60.0978 45.6059L61.5459 50.2911L59.082 75.2285L61.4155 77.7386L64.1401 75.1259L62.4724 50.2911L64.1401 45.8385Z" fill="#2A5F61"/>
<path d="M46.2569 43.7168L31.6797 62.095L41.542 63.2235L46.3873 58.8667L46.2569 43.7168Z" fill="white" stroke="#020901" stroke-linecap="round" stroke-linejoin="round"/>
<path d="M57.077 37.3701L46.2539 43.7173V120.793H57.8388V37.7531L57.077 37.3701Z" fill="white" stroke="#020901" stroke-linecap="round" stroke-linejoin="round"/>
<path d="M77.0159 43.7168L91.7922 60.2004L81.9299 61.3289L76.9336 58.8667L77.0159 43.7168Z" fill="white" stroke="#020901" stroke-linecap="round" stroke-linejoin="round"/>
<path d="M66.1837 37.3701L77.0136 43.7173V120.793H65.4219V37.7531L66.1837 37.3701Z" fill="white" stroke="#020901" stroke-linecap="round" stroke-linejoin="round"/>
<path d="M61.9014 44.7846L56.6992 47.1443V40.3594H66.9115V47.1443L61.9014 44.7846Z" fill="white" stroke="#020901" stroke-linecap="round" stroke-linejoin="round"/>
<path d="M66.9118 40.36L61.84 44.7852L56.8711 40.36V28.5547H66.9118V40.36Z" fill="white" stroke="#020901" stroke-linecap="round" stroke-linejoin="round"/>
<g style="mix-blend-mode:multiply">
<path d="M56.7148 36.1659L60.318 40.3244H63.5917L66.9134 36.6652L66.5977 33.1975L56.8727 32.7393L56.7148 36.1659Z" fill="#E1BEE7"/>
</g>
<path d="M55.7813 25.4209C55.7813 25.4209 53.9214 24.9353 54.1067 26.2348C54.292 27.5343 54.8548 29.9487 55.7882 30.5096L56.7147 31.0636L55.7813 25.4209Z" fill="white" stroke="#020901" stroke-linecap="round" stroke-linejoin="round"/>
<path d="M68.2576 25.4209C68.2576 25.4209 70.1175 24.9353 69.9322 26.2348C69.7469 27.5343 69.1841 29.9487 68.2576 30.5096L67.3242 31.0636L68.2576 25.4209Z" fill="white" stroke="#020901" stroke-linecap="round" stroke-linejoin="round"/>
<path d="M69.1302 23.2661C69.1355 22.2438 68.918 21.2326 68.4926 20.3023C68.0672 19.372 67.4441 18.545 66.6664 17.8783C65.8887 17.2116 64.975 16.7212 63.9884 16.4411C63.0019 16.1609 61.966 16.0977 60.9526 16.2558C59.9391 16.4138 58.9721 16.7894 58.1186 17.3565C57.2651 17.9236 56.5454 18.6687 56.0092 19.5403C55.4731 20.4118 55.1333 21.3891 55.0134 22.4044C54.8935 23.4197 54.9963 24.4488 55.3148 25.4206L57.1129 33.8676L60.4072 38.4707H63.5848L66.7761 34.4627L68.7253 25.619C68.9934 24.8633 69.1304 24.0677 69.1302 23.2661Z" fill="white" stroke="#020901" stroke-linecap="round" stroke-linejoin="round"/>
<path d="M56.7159 24.6689C56.7159 24.6689 57.8552 23.4377 58.8778 23.8481C59.9004 24.2585 59.5023 25.4896 62.4809 25.7974C64.1553 26.0001 65.8541 25.8224 67.4498 25.2776L67.6076 22.7059L56.6953 21.2148L56.7159 24.6689Z" fill="#E1BEE7"/>
<path d="M67.6045 22.7056C67.209 23.5902 66.9587 24.5324 66.8633 25.4962C67.0211 26.6458 67.3351 27.7687 67.7967 28.8339C67.7967 28.8339 70.0272 24.1967 69.8556 22.5209C69.684 20.8452 67.4466 22.1516 67.6045 22.7056Z" fill="#020901" stroke="#020901" stroke-linecap="round" stroke-linejoin="round"/>
<path d="M55.8712 28.4654C55.8712 28.4654 55.8712 28.1781 55.9192 27.7404C56.0221 26.5434 56.3035 24.2316 56.9898 23.8213C57.9232 23.2672 57.8271 20.3399 57.8271 20.3399C57.8271 20.3399 56.5232 21.8036 60.9979 23.2878C65.4726 24.772 69.1032 24.1974 71.5259 21.0375C73.9485 17.8776 71.7112 15.6547 71.3337 16.7696C70.9562 17.8844 70.215 19.3686 68.911 18.2538C67.607 17.1389 65.5618 14.9092 61.8352 14.9092C58.1085 14.9092 56.4339 18.2538 56.4339 18.2538C55.8355 18.5431 55.3276 18.9896 54.9648 19.5452C54.602 20.1008 54.3981 20.7444 54.375 21.4069C54.4093 23.6366 55.8712 28.4654 55.8712 28.4654Z" fill="#020901" stroke="#020901" stroke-linecap="round" stroke-linejoin="round"/>
<path d="M68.9801 22.5834C66.3447 22.686 64.1005 20.9145 61.8082 19.3551C59.5159 17.7957 57.9648 19.3551 57.9648 19.3551C58.1427 18.5066 58.596 17.74 59.2547 17.1738C59.9134 16.6076 60.7408 16.2733 61.6092 16.2225C64.725 16.0242 65.727 20.2853 68.637 20.6615" stroke="white" stroke-width="0.5" stroke-linecap="round" stroke-linejoin="round"/>
<path d="M61.5471 28.3076H55.3086L55.9949 30.3595C56.0559 30.5558 56.1778 30.7278 56.343 30.8507C56.5083 30.9736 56.7084 31.0411 56.9146 31.0435H60.1333C60.3484 31.0422 60.5569 30.9696 60.7259 30.837C60.895 30.7045 61.0149 30.5197 61.0667 30.3116L61.5471 28.3076Z" fill="white" stroke="#020901" stroke-linecap="round" stroke-linejoin="round"/>
<path d="M68.4583 28.3076H62.2266L62.9129 30.3595C62.9716 30.5558 63.0919 30.7282 63.2562 30.8513C63.4205 30.9744 63.6201 31.0418 63.8257 31.0435H67.0445C67.2607 31.0437 67.4708 30.9718 67.6412 30.8391C67.8116 30.7065 67.9326 30.5208 67.9847 30.3116L68.4583 28.3076Z" fill="white" stroke="#020901" stroke-linecap="round" stroke-linejoin="round"/>
<path d="M55.3088 28.3083L55 25.2783" stroke="#020901" stroke-linecap="round" stroke-linejoin="round"/>
<path d="M68.457 28.3072L69.1708 25.4346" stroke="#020901" stroke-linecap="round" stroke-linejoin="round"/>
<path d="M61.5469 28.3076H62.2263" stroke="#020901" stroke-linecap="round" stroke-linejoin="round"/>
<path d="M61.375 29.2793H62.48" stroke="#020901" stroke-linecap="round" stroke-linejoin="round"/>
<path d="M63.1849 33.1982C63.1849 33.1982 62.7113 33.8822 62.1623 33.8822C61.6132 33.8822 61.1328 33.1982 61.1328 33.1982" stroke="#020901" stroke-linecap="round" stroke-linejoin="round"/>
<path d="M56.9003 37.377L57.9641 47.2534L57.8543 69.4618L51.7461 48.5461L55.2463 46.9662L51.4922 45.311L54.91 38.3413L56.9003 37.377Z" fill="white" stroke="#020901" stroke-linecap="round" stroke-linejoin="round"/>
<path d="M66.9826 37.377L65.4453 46.5626L65.5002 69.7833L72.1437 48.5461L68.6435 46.9662L72.3908 45.311L68.9729 38.3413L66.9826 37.377Z" fill="white" stroke="#020901" stroke-linecap="round" stroke-linejoin="round"/>
<path d="M47.1211 62.9779L51.3831 60.4814V62.8274L47.1211 62.9779Z" fill="white" stroke="#020901" stroke-linecap="round" stroke-linejoin="round"/>
<path d="M68.0055 58.1488C68.0055 58.1488 66.3858 55.6592 65.8024 55.6592C65.2191 55.6592 63.8876 57.8547 64.1828 58.5934C64.4779 59.3321 66.0976 57.5674 66.0976 57.5674L67.2712 60.7889L68.0055 58.1488Z" fill="white" stroke="#020901" stroke-linecap="round" stroke-linejoin="round"/>
<path d="M67.4479 58.8672L65.2449 59.0177C64.6262 59.4473 63.9253 59.7453 63.1859 59.8931C62.1565 60.0436 61.5662 60.3377 62.4516 61.0696C63.3369 61.8014 65.2449 60.6318 65.2449 60.6318L67.4479 61.5073C67.6269 61.3368 67.7693 61.1319 67.8666 60.905C67.964 60.6782 68.0141 60.434 68.0141 60.1872C68.0141 59.9405 67.964 59.6963 67.8666 59.4694C67.7693 59.2426 67.6269 59.0377 67.4479 58.8672Z" fill="white" stroke="#020901" stroke-linecap="round" stroke-linejoin="round"/>
<path d="M68.3008 63.2657C68.8107 63.7728 69.4789 64.0913 70.195 64.1686C71.3617 64.278 73.7913 62.486 73.7913 62.486L73.3657 60.5914L69.9822 59.5176L68.3008 63.2657Z" fill="white" stroke="#020901" stroke-linecap="round" stroke-linejoin="round"/>
<path d="M68.0038 57.2598C68.0038 57.2598 65.8008 60.1871 65.8008 60.7754C65.8008 61.3636 67.5646 63.265 68.2989 63.265C68.7794 63.265 70.0353 62.3895 70.8383 61.7808C70.9362 61.7085 71.0188 61.6178 71.0814 61.5137C71.144 61.4096 71.1854 61.2942 71.2033 61.1741C71.2211 61.0541 71.2151 60.9317 71.1854 60.814C71.1558 60.6962 71.1031 60.5855 71.0305 60.4881C70.1932 59.339 68.5391 57.2598 68.0038 57.2598Z" fill="white" stroke="#020901" stroke-linecap="round" stroke-linejoin="round"/>
<path d="M66.5977 61.8563L69.24 58.4844" stroke="#020901" stroke-linecap="round" stroke-linejoin="round"/>
<path d="M70.5102 60.167L67.4492 62.8003" stroke="#020901" stroke-linecap="round" stroke-linejoin="round"/>
<path d="M71.9648 59.7969V68.88L89.5618 66.8281C90.3838 66.714 91.1348 66.3023 91.6716 65.6715C92.2083 65.0407 92.4932 64.235 92.4718 63.4083V62.1019C92.4632 61.6501 92.3635 61.2046 92.1788 60.792C91.994 60.3793 91.7279 60.0079 91.3963 59.6997C91.0647 59.3915 90.6743 59.153 90.2483 58.9981C89.8224 58.8433 89.3695 58.7753 88.9167 58.7983L71.9648 59.7969Z" fill="white" stroke="#020901" stroke-linecap="round" stroke-linejoin="round"/>
<path d="M61.8078 72.7039H52.5769C52.2574 72.7041 51.9503 72.581 51.7199 72.3604C51.4896 72.1397 51.354 71.8388 51.3415 71.5206L50.7856 56.4733C50.7811 56.3085 50.8096 56.1444 50.8695 55.9907C50.9295 55.837 51.0196 55.6967 51.1347 55.5782C51.2498 55.4597 51.3875 55.3653 51.5397 55.3006C51.6919 55.2358 51.8555 55.202 52.021 55.2012H62.3568C62.5226 55.2011 62.6866 55.2342 62.8393 55.2986C62.9919 55.3631 63.1299 55.4574 63.2452 55.5761C63.3605 55.6948 63.4506 55.8355 63.5102 55.9896C63.5698 56.1437 63.5977 56.3083 63.5922 56.4733L63.0363 71.5206C63.0256 71.8381 62.8914 72.1391 62.6622 72.3599C62.433 72.5807 62.1266 72.704 61.8078 72.7039Z" fill="#020901" stroke="#020901" stroke-linecap="round" stroke-linejoin="round"/>
<path d="M47.1193 62.9713L50.6469 61.8018L56.2403 61.9454C56.2403 61.9454 56.8237 62.9713 56.2403 63.1218C55.6569 63.2723 53.1519 63.4159 53.1519 63.4159L56.5354 64.1478C56.5354 64.1478 56.5354 65.1737 55.9452 65.1737C55.355 65.1737 52.7058 66.7879 51.9715 67.3692C51.2371 67.9506 46.68 67.082 46.68 67.082L44.6211 66.9315V63.2654L47.1193 62.9713Z" fill="white" stroke="#020901" stroke-linecap="round" stroke-linejoin="round"/>
<path d="M45.7963 62.5337V71.6236L32.2692 69.8658C31.4472 69.7505 30.6963 69.3386 30.1587 68.7083C29.6211 68.078 29.3342 67.273 29.3524 66.446V65.1465C29.361 64.6953 29.4605 64.2504 29.6448 63.8382C29.8291 63.426 30.0946 63.0549 30.4254 62.7469C30.7563 62.4388 31.1459 62.2 31.5711 62.0448C31.9962 61.8895 32.4483 61.8208 32.9006 61.8429L45.7963 62.5337Z" fill="white" stroke="#020901" stroke-linecap="round" stroke-linejoin="round"/>
<path d="M77.0167 86.2129H69.5977V88.3879H77.0167V86.2129Z" fill="white" stroke="#020901" stroke-linecap="round" stroke-linejoin="round"/>
<path d="M53.6729 86.2129H46.2539V88.3879H53.6729V86.2129Z" fill="white" stroke="#020901" stroke-linecap="round" stroke-linejoin="round"/>
<path d="M99.0858 155.396V107.114C99.0862 105.777 99.3729 104.455 99.9268 103.236C100.481 102.018 101.289 100.931 102.298 100.049L111.549 91.9851C112.541 91.1198 113.335 90.0535 113.88 88.8574C114.424 87.6613 114.706 86.3631 114.706 85.0496V81.4451C114.706 80.7808 114.575 80.123 114.319 79.5093C114.064 78.8956 113.69 78.3381 113.218 77.8686C112.747 77.3992 112.187 77.027 111.571 76.7734C110.954 76.5198 110.294 76.3897 109.628 76.3906H42.4584C41.1133 76.3906 39.8233 76.9232 38.8721 77.8711C37.921 78.819 37.3866 80.1046 37.3866 81.4451V86.3629C37.3847 88.7068 36.4865 90.962 34.8747 92.669L26.639 101.376C24.9997 103.118 24.0869 105.417 24.0859 107.805V155.396" stroke="#020901" stroke-width="5" stroke-linecap="round" stroke-linejoin="round"/>
<path d="M23.4219 126.799V155.395" stroke="white" stroke-linecap="round" stroke-linejoin="round"/>
<path d="M36.703 84.1396V86.3625C36.7012 88.7065 35.8029 90.9616 34.1911 92.6687L25.9554 101.376C24.3161 103.118 23.4033 105.416 23.4023 107.805V122.558" stroke="white" stroke-linecap="round" stroke-linejoin="round"/>
<path d="M44.6231 76.3906H41.7749C40.4298 76.3906 39.1398 76.9232 38.1886 77.8711C37.2375 78.819 36.7031 80.1046 36.7031 81.4451" stroke="white" stroke-linecap="round" stroke-linejoin="round"/>
<path d="M98.4023 137.394V107.115C98.4028 105.777 98.6895 104.455 99.2433 103.236C99.7972 102.018 100.606 100.932 101.614 100.049L110.866 91.9852C111.857 91.12 112.652 90.0536 113.196 88.8576C113.741 87.6615 114.023 86.3632 114.023 85.0498V81.4453" stroke="white" stroke-linecap="round" stroke-linejoin="round"/>
<path d="M98.4023 155.395V141.073" stroke="white" stroke-linecap="round" stroke-linejoin="round"/>
<path d="M32.9257 146.053H13.9492V159.677H32.9257V146.053Z" fill="#2A5F61" stroke="#020901" stroke-linecap="round" stroke-linejoin="round"/>
<path d="M32.9257 160.061H13.9492V169.746H32.9257V160.061Z" fill="#2A5F61" stroke="#020901" stroke-linecap="round" stroke-linejoin="round"/>
<path d="M107.578 160.061H88.6016V169.746H107.578V160.061Z" fill="#2A5F61" stroke="#020901" stroke-linecap="round" stroke-linejoin="round"/>
<path d="M29.1382 177.207H17.7523L13.957 169.752H32.9335L29.1382 177.207Z" fill="#2A5F61" stroke="#020901" stroke-linecap="round" stroke-linejoin="round"/>
<path d="M16.4531 170.019L18.9444 176.017" stroke="#020901" stroke-linecap="round" stroke-linejoin="round"/>
<path d="M19.9414 172.789L20.1885 173.48" stroke="#020901" stroke-linecap="round" stroke-linejoin="round"/>
<path d="M18.9453 170.019L19.6042 171.858" stroke="#020901" stroke-linecap="round" stroke-linejoin="round"/>
<path d="M103.79 177.207H92.3969L88.6016 169.752H107.585L103.79 177.207Z" fill="#2A5F61" stroke="#020901" stroke-linecap="round" stroke-linejoin="round"/>
<path d="M90.5977 170.019L93.089 175.538" stroke="#020901" stroke-linecap="round" stroke-linejoin="round"/>
<path d="M93.0898 170.019L94.2154 172.406" stroke="#020901" stroke-linecap="round" stroke-linejoin="round"/>
<path d="M103.649 174.327L102.805 176.017" stroke="#020901" stroke-linecap="round" stroke-linejoin="round"/>
<path d="M105.801 170.019L104.078 173.479" stroke="#020901" stroke-linecap="round" stroke-linejoin="round"/>
<path d="M107.578 146.053H88.6016V159.677H107.578V146.053Z" fill="#2A5F61" stroke="#020901" stroke-linecap="round" stroke-linejoin="round"/>
<path d="M34.6546 159.671H86.8827V167.263C86.8827 169.077 86.1596 170.817 84.8725 172.099C83.5855 173.382 81.8398 174.103 80.0196 174.103H41.449C39.6288 174.103 37.8832 173.382 36.5961 172.099C35.309 170.817 34.5859 169.077 34.5859 167.263V159.671H34.6546Z" fill="#2A5F61" stroke="#020901" stroke-linecap="round" stroke-linejoin="round"/>
<path d="M117.048 157.729H6.53125V166.292H117.048V157.729Z" fill="#2A5F61" stroke="#020901" stroke-linecap="round" stroke-linejoin="round"/>
<path d="M6.53125 162.884H40.38L49.9746 160.251H96.7054L98.9153 158.042" stroke="#020901" stroke-linecap="round" stroke-linejoin="round"/>
</svg>
