<svg width="261" height="220" viewBox="0 0 261 220" fill="none" xmlns="http://www.w3.org/2000/svg">
<path d="M240.057 182.198C240.002 182.198 240.865 178.464 240.945 178.233C241.887 175.58 245.29 170.996 248.467 171.081C248.995 171.109 249.511 171.247 249.982 171.487C250.452 171.726 250.867 172.061 251.198 172.471C251.529 172.88 251.769 173.354 251.902 173.861C252.036 174.369 252.06 174.899 251.974 175.416C251.686 177.62 249.636 179.46 247.793 180.504C245.627 181.731 240.063 182.198 240.057 182.198Z" fill="#020901"/>
<path d="M240.408 167.008C240.353 167.008 241.773 163.438 241.889 163.225C243.229 160.736 247.287 156.717 250.415 157.281C250.932 157.389 251.421 157.603 251.849 157.91C252.277 158.217 252.636 158.61 252.901 159.064C253.166 159.517 253.331 160.021 253.387 160.543C253.443 161.064 253.387 161.591 253.224 162.09C252.612 164.233 250.292 165.733 248.328 166.492C245.983 167.384 240.414 167.008 240.408 167.008Z" fill="#020901"/>
<path d="M244.4 150.122C244.339 150.122 245.759 146.552 245.875 146.339C247.216 143.856 251.28 139.837 254.407 140.395C254.925 140.503 255.413 140.718 255.842 141.026C256.27 141.334 256.628 141.728 256.892 142.182C257.157 142.636 257.322 143.141 257.376 143.662C257.431 144.184 257.375 144.712 257.21 145.21C256.598 147.347 254.279 148.853 252.314 149.612C249.976 150.498 244.4 150.122 244.4 150.122Z" fill="#020901"/>
<path d="M247.381 134.021C247.32 134.021 248.74 130.45 248.856 130.232C250.196 127.749 254.26 123.729 257.388 124.294C257.905 124.401 258.394 124.615 258.822 124.923C259.25 125.23 259.609 125.623 259.874 126.077C260.139 126.53 260.304 127.034 260.36 127.555C260.416 128.077 260.36 128.604 260.197 129.103C259.585 131.246 257.259 132.745 255.301 133.504C252.956 134.391 247.381 134.021 247.381 134.021Z" fill="#020901"/>
<path d="M246.115 120.026C246.054 120.026 246.477 116.225 246.532 115.988C247.144 113.238 250.008 108.295 253.178 108.022C253.706 107.991 254.234 108.07 254.728 108.255C255.222 108.439 255.672 108.725 256.048 109.093C256.424 109.461 256.717 109.904 256.909 110.392C257.101 110.88 257.188 111.403 257.163 111.926C257.163 114.155 255.327 116.213 253.601 117.457C251.593 118.902 246.115 120.026 246.115 120.026Z" fill="#020901"/>
<path d="M238.513 181.785C238.568 181.785 237.956 178.008 237.901 177.778C237.136 175.064 234.045 170.267 230.869 170.146C230.34 170.14 229.816 170.245 229.331 170.453C228.845 170.662 228.41 170.969 228.052 171.356C227.695 171.742 227.424 172.2 227.256 172.697C227.089 173.195 227.029 173.722 227.08 174.244C227.221 176.466 229.149 178.433 230.918 179.593C232.987 180.959 238.507 181.785 238.513 181.785Z" fill="#020901"/>
<path d="M240.191 164.894C240.253 164.894 239.065 161.251 238.967 161.02C237.792 158.452 234.004 154.178 230.846 154.536C230.322 154.61 229.821 154.792 229.373 155.072C228.926 155.351 228.543 155.721 228.249 156.156C227.955 156.592 227.757 157.085 227.667 157.602C227.578 158.118 227.6 158.648 227.73 159.156C228.208 161.33 230.417 162.987 232.339 163.868C234.603 164.906 240.185 164.894 240.191 164.894Z" fill="#020901"/>
<path d="M243.983 148.975C244.038 148.975 242.856 145.332 242.759 145.107C241.59 142.539 237.801 138.264 234.643 138.623C234.12 138.696 233.618 138.878 233.17 139.157C232.723 139.435 232.339 139.804 232.045 140.239C231.75 140.674 231.552 141.166 231.461 141.683C231.371 142.199 231.392 142.729 231.522 143.237C232.005 145.417 234.208 147.068 236.136 147.955C238.395 148.987 243.977 148.975 243.983 148.975Z" fill="#020901"/>
<path d="M246.758 134.16C246.819 134.16 245.632 130.517 245.534 130.287C244.359 127.724 240.576 123.45 237.412 123.808C236.889 123.882 236.387 124.063 235.94 124.342C235.492 124.621 235.109 124.99 234.815 125.425C234.521 125.86 234.323 126.353 234.234 126.869C234.144 127.386 234.166 127.915 234.297 128.423C234.774 130.602 236.984 132.254 238.911 133.134C241.17 134.172 246.758 134.16 246.758 134.16Z" fill="#020901"/>
<path d="M245.999 120.481C246.06 120.481 244.481 116.978 244.353 116.765C242.902 114.337 238.667 110.506 235.564 111.21C235.052 111.34 234.573 111.576 234.159 111.902C233.745 112.228 233.405 112.637 233.162 113.102C232.918 113.568 232.776 114.079 232.745 114.602C232.714 115.126 232.794 115.65 232.981 116.14C233.697 118.247 236.072 119.656 238.086 120.317C240.448 121.101 245.999 120.481 245.999 120.481Z" fill="#020901"/>
<path d="M242.659 108.374C242.708 108.374 242.934 104.568 242.922 104.325C242.757 101.507 240.78 96.1646 237.701 95.3692C237.186 95.2512 236.652 95.2422 236.134 95.3425C235.615 95.4429 235.123 95.6504 234.691 95.9517C234.259 96.2529 233.895 96.6411 233.624 97.091C233.353 97.5409 233.18 98.0423 233.117 98.5628C232.774 100.767 234.231 103.098 235.706 104.634C237.438 106.383 242.653 108.368 242.659 108.374Z" fill="#020901"/>
<path d="M239.553 202.599C239.553 202.599 239.351 200.991 239.106 198.198C238.861 195.405 238.58 191.41 238.451 186.607C238.384 184.178 238.36 181.604 238.409 178.848C238.409 177.463 238.482 176.079 238.537 174.598C238.586 173.881 238.641 173.159 238.69 172.424C238.739 171.689 238.861 170.936 238.941 170.184C239.36 167.119 239.947 164.078 240.698 161.076C241.45 158.01 242.307 154.932 243.146 151.86C243.984 148.788 244.81 145.715 245.459 142.661C246.119 139.679 246.563 136.654 246.787 133.609C246.945 130.758 246.847 127.899 246.494 125.066C246.204 122.498 245.76 119.95 245.165 117.434C244.627 115.109 243.996 113.008 243.421 111.156C242.846 109.304 242.252 107.714 241.763 106.408C240.765 103.798 240.086 102.353 240.086 102.353C240.086 102.353 240.795 103.785 241.848 106.372C242.375 107.665 242.98 109.25 243.617 111.089C244.254 112.929 244.915 115.024 245.502 117.349C246.163 119.847 246.676 122.381 247.038 124.939C247.459 127.8 247.623 130.694 247.528 133.584C247.364 136.671 246.982 139.743 246.383 142.777C245.771 145.873 245.037 148.982 244.26 152.078C243.482 155.175 242.668 158.277 241.989 161.313C241.314 164.283 240.803 167.286 240.459 170.311C240.398 171.046 240.288 171.744 240.263 172.485C240.239 173.225 240.19 173.948 240.153 174.664C240.153 176.049 240.11 177.482 240.122 178.836C240.122 181.562 240.214 184.136 240.336 186.51C240.563 191.264 240.949 195.216 241.236 197.973C241.524 200.729 241.769 202.284 241.769 202.284C241.79 202.428 241.782 202.574 241.747 202.715C241.711 202.856 241.647 202.989 241.56 203.106C241.472 203.223 241.362 203.321 241.237 203.396C241.111 203.47 240.971 203.519 240.826 203.541C240.681 203.562 240.533 203.554 240.391 203.519C240.249 203.483 240.115 203.42 239.997 203.333C239.88 203.247 239.781 203.138 239.705 203.013C239.63 202.888 239.58 202.749 239.559 202.606V202.599H239.553Z" fill="#020901"/>
<path d="M232.75 196.327H248.008V199.46H246.68L243.926 216.557H236.838L234.078 199.46H232.75V196.327Z" fill="#020901" stroke="#020901" stroke-linecap="round" stroke-linejoin="round"/>
<path d="M132.212 207.759C132.212 207.759 131.685 210.837 132.071 211.529C132.456 212.222 133.075 213.132 133.075 213.132H137.934L138.197 211.645C138.867 212.383 139.69 212.969 140.609 213.363C141.9 213.818 143.149 213.363 144.66 213.478C145.94 213.576 148.945 213.478 148.945 213.478L148.859 211.869L140.089 207.972L136.949 205.543C136.949 205.543 134.195 208.008 132.212 207.759Z" fill="#020901" stroke="#020901" stroke-linecap="round" stroke-linejoin="round"/>
<path d="M96.0148 207.759C96.0148 207.759 96.8471 210.267 96.5411 210.953C96.2351 211.639 95.7332 213.133 95.7332 213.133H90.8798L90.4514 211.645C89.8605 212.386 89.0985 212.976 88.2297 213.363C87.0056 213.819 85.6836 213.363 84.1902 213.479C82.9233 213.576 79.906 213.479 79.906 213.479L79.8203 211.87L88.1624 207.972L91.4735 206.15C91.4735 206.15 94.0563 208.008 96.0148 207.759Z" fill="#020901" stroke="#020901" stroke-linecap="round" stroke-linejoin="round"/>
<path d="M134.831 89.3887C134.831 89.3887 136.838 115.168 137.536 127.494C138.234 139.819 138.558 145.411 138.638 154.087C138.717 162.763 139.103 179.909 139.103 186.351C139.11 192.927 138.678 199.497 137.812 206.017L131.942 209.119C131.942 209.119 130.045 192.58 129.28 186.654C128.588 181.293 126.06 159.478 124.916 152.733C123.771 145.987 118.557 122.533 118.557 122.533C118.557 122.533 111.598 147.141 109.799 156.971C107.999 166.801 101.23 188.968 99.7797 194.359C98.3291 199.751 96.0156 207.747 96.0156 207.747C95.1999 207.984 94.3432 208.05 93.5002 207.941C93.1218 207.912 92.7566 207.791 92.4365 207.588C92.1164 207.386 91.8511 207.109 91.6641 206.782C91.6641 206.782 93.3716 190.643 94.0755 182.799C94.9507 173.085 95.2261 160.189 96.291 154.791C97.356 149.394 97.3193 139.054 98.5556 132.114C99.2594 128.174 102.84 90.4755 102.84 90.4755C102.84 90.4755 122.694 98.4474 134.831 89.3887Z" fill="#020901" stroke="#020901" stroke-linecap="round" stroke-linejoin="round"/>
<path d="M137.81 206.017L133.238 209.696" stroke="white" stroke-width="0.5" stroke-linecap="round" stroke-linejoin="round"/>
<path d="M91.4805 206.138L95.1098 208.9" stroke="white" stroke-width="0.5" stroke-linecap="round" stroke-linejoin="round"/>
<path d="M121.555 98.0645L121.188 113.098L123.758 110.554" stroke="white" stroke-width="0.5" stroke-linecap="round" stroke-linejoin="round"/>
<path d="M119.953 122.096L127.255 113.086" stroke="white" stroke-width="0.5" stroke-linecap="round" stroke-linejoin="round"/>
<path d="M129.277 113.741L123.188 119.667" stroke="white" stroke-width="0.5" stroke-linecap="round" stroke-linejoin="round"/>
<path d="M115.607 114.403C113.723 110.266 110.504 106.869 106.457 104.749" stroke="white" stroke-width="0.5" stroke-linecap="round" stroke-linejoin="round"/>
<path d="M124.892 93.9971L124.543 95.7578L121.703 96.4135L122.028 94.2217" stroke="white" stroke-width="0.5" stroke-linecap="round" stroke-linejoin="round"/>
<path d="M121.701 96.4132C121.701 96.4132 116.383 96.1946 113.684 95.3142L114.253 93.5596" stroke="white" stroke-width="0.5" stroke-linecap="round" stroke-linejoin="round"/>
<path d="M111.794 93.123L111.256 95.3149C111.256 95.3149 107.039 95.0963 106.359 94.4406" stroke="white" stroke-width="0.5" stroke-linecap="round" stroke-linejoin="round"/>
<path d="M124.543 95.7387C125.991 95.6963 127.409 95.3222 128.686 94.6458L130.614 93.5468L129.868 92.0107" stroke="white" stroke-width="0.5" stroke-linecap="round" stroke-linejoin="round"/>
<path d="M137.453 38.9404C137.453 38.9404 141.296 42.2494 142.447 44.4352C143.598 46.6209 158.703 77.1728 158.641 79.2614C158.58 81.35 156.346 85.3329 152.405 85.3329C148.463 85.3329 133.523 61.5204 133.523 61.5204L137.453 38.9404Z" fill="white"/>
<mask id="mask0_261_1724" style="mask-type:luminance" maskUnits="userSpaceOnUse" x="133" y="38" width="26" height="48">
<path d="M137.449 38.9404C137.449 38.9404 141.292 42.2494 142.443 44.4352C143.594 46.6209 158.699 77.1728 158.637 79.2614C158.576 81.35 156.342 85.3329 152.401 85.3329C148.459 85.3329 133.52 61.5204 133.52 61.5204L137.449 38.9404Z" fill="white"/>
</mask>
<g mask="url(#mask0_261_1724)">
<g style="mix-blend-mode:multiply" opacity="0.5">
<path d="M137.918 42.6079L138.175 42.7475C138.628 43.0086 139.644 43.5975 140.758 44.3322C142.017 45.2899 143.164 46.3835 144.179 47.5926C144.179 47.5926 142.796 43.9497 140.77 42.2071C139.644 41.2469 138.596 40.1993 137.637 39.0742L137.918 42.6079Z" fill="#2A5F61"/>
</g>
</g>
<path d="M137.453 38.9404C137.453 38.9404 141.296 42.2494 142.447 44.4352C143.598 46.6209 158.703 77.1728 158.641 79.2614C158.58 81.35 156.346 85.3329 152.405 85.3329C148.463 85.3329 133.523 61.5204 133.523 61.5204L137.453 38.9404Z" stroke="#020901" stroke-linecap="round" stroke-linejoin="round"/>
<path opacity="0.5" d="M147.078 70.8888C146.57 70.2817 142.794 64.2527 142.408 62.0001C142.022 59.7476 143.02 56.8636 143.02 55.3579C143.02 53.8521 140.621 57.9869 140.492 57.489C140.364 56.9911 138.852 51.5996 138.852 51.5996L134.219 57.5436L133.527 61.5326C133.527 61.5326 139.378 70.8524 144.728 77.8286C148.534 76.6143 154.281 74.7625 155.518 74.0217C157.433 72.8985 147.586 71.5203 147.078 70.8888Z" fill="#2A5F61"/>
<path d="M118.994 34.8115L137.472 38.9402C137.472 38.9402 138.757 48.3328 138.61 53.4086C138.463 58.4844 134.656 89.8742 134.656 89.8742C134.656 89.8742 124.864 99.7829 102.88 90.4813C102.88 90.4813 102.115 89.0181 101.827 78.0772C101.551 67.2881 93.3746 47.2521 94.0295 44.9692C95.376 40.288 111.546 35.789 113.67 35.6615C115.461 35.4926 117.24 35.2087 118.994 34.8115Z" fill="white" stroke="#020901" stroke-linecap="round" stroke-linejoin="round"/>
<g style="mix-blend-mode:multiply" opacity="0.5">
<path d="M120.669 89.8198L103.746 83.2382L106.672 51.3506L125.92 60.2879L137.457 55.1392L129.207 88.4172L120.669 89.8198Z" fill="#2A5F61"/>
</g>
<g style="mix-blend-mode:multiply" opacity="0.5">
<path d="M125.673 40.3185C126.463 40.3185 133.764 41.7696 137.914 42.6075C137.675 40.4582 137.467 38.9646 137.467 38.9646L118.99 34.8359C117.236 35.2351 115.457 35.5211 113.665 35.692C111.541 35.8195 95.3715 40.3185 94.025 44.9997C93.8108 45.7586 94.5574 48.4544 95.6652 52.1155C97.281 47.9808 98.7254 44.5747 99.2212 44.095C100.335 42.99 111.462 40.1242 111.462 40.1242L125.673 40.3185Z" fill="#2A5F61"/>
</g>
<path d="M124.015 44.1859L121.475 49.8202L127.045 88.8601L122.963 94.3245L119.089 89.868L120.172 50.3181L115.043 44.3802L118.323 38.2236L124.015 44.1859Z" fill="#020901"/>
<path d="M143.691 56.8029L128.886 64.9508L109.845 55.0664L106.828 82.9651L125.685 91.9813L139.964 83.4569L143.691 56.8029Z" fill="#2A5F61" stroke="#020901" stroke-linecap="round" stroke-linejoin="round"/>
<path d="M128.324 71.2161L128.887 66.7354" stroke="#020901" stroke-width="0.5" stroke-linecap="round" stroke-linejoin="round"/>
<path d="M125.684 91.9804L128.009 73.6748" stroke="#020901" stroke-width="0.5" stroke-linecap="round" stroke-linejoin="round"/>
<path d="M120.718 33.2452C120.718 33.2452 124.053 33.2452 125.504 35.431C126.954 37.6167 129.739 46.2565 129.739 46.2565L119.702 43.4575L113.618 49.693C113.618 49.693 108.043 41.4964 110.313 36.2931C112.584 31.0898 120.718 33.2452 120.718 33.2452Z" fill="white" stroke="#020901" stroke-linecap="round" stroke-linejoin="round"/>
<g style="mix-blend-mode:multiply" opacity="0.5">
<path d="M126.521 37.452C126.234 36.7538 125.894 36.078 125.505 35.4302C124.054 33.214 120.719 33.2444 120.719 33.2444C120.719 33.2444 112.597 31.089 110.314 36.2802C109.58 37.962 109.702 39.9595 110.124 41.8903C110.522 40.8581 111.422 38.7877 112.573 37.6402C114.127 36.098 114.311 37.4398 114.311 37.4398L123.014 36.7537C124.167 37.0605 125.338 37.2937 126.521 37.452Z" fill="#2A5F61"/>
</g>
<path d="M122.148 28.2178C122.148 28.2178 122.711 39.7051 121.248 41.9698C119.785 44.2345 118.121 43.3662 116.903 41.9698C115.685 40.5733 114.308 37.4526 114.308 37.4526L112.82 28.9524C112.82 28.9524 121.487 30.5371 122.148 28.2178Z" fill="white" stroke="#020901" stroke-linecap="round" stroke-linejoin="round"/>
<g style="mix-blend-mode:multiply" opacity="0.5">
<path d="M119.009 37.4526C120.27 37.0943 121.389 36.3611 122.216 35.3518C122.216 34.7022 122.216 34.0586 122.216 33.4332C120.79 31.8122 117.516 28.7521 113.868 29.7357C113.556 29.8207 113.256 29.9178 112.98 30.015L114.302 37.4526C114.302 37.4526 115.686 40.5977 116.897 41.9698L115.673 36.5479C116.1 36.9759 116.634 37.2848 117.219 37.4436C117.805 37.6024 118.422 37.6055 119.009 37.4526Z" fill="#2A5F61"/>
</g>
<path d="M127.255 17.7683C127.255 17.7683 128.932 17.6469 128.968 20.4216C129.005 23.1962 127.359 25.5277 126.226 24.5623C125.094 23.597 126.943 16.5054 127.255 17.7683Z" fill="white" stroke="#020901" stroke-linecap="round" stroke-linejoin="round"/>
<path d="M115.739 3.4034C108.107 5.18842 106.063 10.0821 106.124 14.5143C106.124 16.2082 106.914 19.1408 107.96 22.2312L107.826 21.9519C107.826 21.9519 105.531 17.9811 105.194 20.3672C104.857 22.7533 107.128 25.2245 107.881 26.0198C108.09 26.2107 108.359 26.3236 108.643 26.3391C108.926 26.3546 109.207 26.2718 109.435 26.1048C110.953 29.7477 112.649 33.0082 113.756 33.8946C116.156 35.8193 119.528 36.8089 122.209 34.5017C124.889 32.1946 127.539 19.0376 127.539 19.0376C128.176 5.72879 123.371 1.63051 115.739 3.4034Z" fill="white"/>
<mask id="mask1_261_1724" style="mask-type:luminance" maskUnits="userSpaceOnUse" x="105" y="3" width="23" height="33">
<path d="M115.739 3.40437C108.107 5.1894 106.063 10.0831 106.124 14.5153C106.124 16.2092 106.914 19.1418 107.96 22.2322L107.826 21.9529C107.826 21.9529 105.531 17.9821 105.194 20.3682C104.857 22.7543 107.128 25.2254 107.881 26.0208C108.09 26.2117 108.359 26.3246 108.643 26.3401C108.926 26.3556 109.207 26.2728 109.435 26.1058C110.953 29.7487 112.649 33.0091 113.756 33.8956C116.156 35.8202 119.528 36.8099 122.209 34.5027C124.889 32.1955 127.539 19.0386 127.539 19.0386C128.176 5.72977 123.371 1.63149 115.739 3.40437Z" fill="white"/>
</mask>
<g mask="url(#mask1_261_1724)">
<g style="mix-blend-mode:multiply" opacity="0.5">
<path d="M111.675 17.4166C111.675 17.4166 114.338 15.2126 117.006 15.2126C119.675 15.2126 125.232 17.6412 125.893 19.6205C126.297 20.8348 125.82 24.751 125.373 27.726C126.658 23.5367 127.564 19.0559 127.564 19.0559C128.176 5.75318 123.365 1.64276 115.739 3.42779C108.113 5.21282 106.063 10.1065 106.124 14.5387C106.124 16.2326 106.914 19.1652 107.96 22.2556L107.826 21.9763C107.826 21.9763 105.531 18.0055 105.194 20.3916C104.857 22.7777 107.128 25.2488 107.881 26.0442C108.09 26.2351 108.359 26.348 108.643 26.3635C108.926 26.379 109.207 26.2962 109.435 26.1292C110.953 29.7721 112.649 33.0325 113.756 33.919C113.756 33.919 111.204 28.2178 110.317 25.7953C109.429 23.3727 109.674 19.1591 111.675 17.4166Z" fill="#2A5F61"/>
</g>
</g>
<path d="M115.739 3.4034C108.107 5.18842 106.063 10.0821 106.124 14.5143C106.124 16.2082 106.914 19.1408 107.96 22.2312L107.826 21.9519C107.826 21.9519 105.531 17.9811 105.194 20.3672C104.857 22.7533 107.128 25.2245 107.881 26.0198C108.09 26.2107 108.359 26.3236 108.643 26.3391C108.926 26.3546 109.207 26.2718 109.435 26.1048C110.953 29.7477 112.649 33.0082 113.756 33.8946C116.156 35.8193 119.528 36.8089 122.209 34.5017C124.889 32.1946 127.539 19.0376 127.539 19.0376C128.176 5.72879 123.371 1.63051 115.739 3.4034Z" stroke="#020901" stroke-linecap="round" stroke-linejoin="round"/>
<path d="M124.713 22.9111C124.33 23.4813 123.738 23.8797 123.062 24.0205C122.387 24.1613 121.683 24.0333 121.102 23.664" stroke="#020901" stroke-linecap="round" stroke-linejoin="round"/>
<path d="M116.564 23.7129C116.182 24.283 115.589 24.6814 114.914 24.8223C114.238 24.9631 113.534 24.8351 112.953 24.4658" stroke="#020901" stroke-linecap="round" stroke-linejoin="round"/>
<path d="M116.959 21.879C115.972 21.3879 114.904 21.0774 113.807 20.9622C112.35 20.9015 110.918 22.0794 110.918 22.0794" stroke="#020901" stroke-linecap="round" stroke-linejoin="round"/>
<path d="M120.472 28.0117C120.42 28.3807 120.224 28.7147 119.927 28.9418C119.629 29.1689 119.253 29.271 118.881 29.226C118.491 29.2378 118.106 29.1424 117.768 28.9506C117.43 28.7588 117.152 28.478 116.965 28.1392" stroke="#020901" stroke-linecap="round" stroke-linejoin="round"/>
<path d="M121.756 30.9443C121.756 30.9443 118.182 32.0008 115.887 31.084C116.187 31.6187 116.597 32.0849 117.09 32.452C117.584 32.8192 118.15 33.0792 118.751 33.2151C120.11 33.5733 121.756 30.9443 121.756 30.9443Z" fill="#020901"/>
<path d="M125.161 20.2828C125.161 20.2828 123.821 20.1675 122.554 20.1796C121.391 20.1796 120.234 21.6793 120.234 21.6793L119.824 23.5007" stroke="#020901" stroke-linecap="round" stroke-linejoin="round"/>
<path d="M114.131 13.7313C116.906 16.0371 119.939 18.0192 123.17 19.6388C128.434 22.2496 132.473 17.2102 130.007 14.7331C127.54 12.2559 133.22 17.4531 134.114 14.3445C135.007 11.2359 126.83 0.568192 118.617 0.416404C110.403 0.264616 108.414 5.37077 108.414 5.37077C108.414 5.37077 107.447 2.7418 106.719 4.19289C106.295 4.98264 106.053 5.85549 106.009 6.749C106.009 6.749 104.344 7.96331 103.61 8.68582C102.875 9.40833 103.818 10.1733 103.818 10.1733C103.818 10.1733 102.349 13.8163 103.132 16.6274L107.349 22.6989C107.858 22.6825 108.356 22.5503 108.805 22.3123C109.254 22.0744 109.642 21.7372 109.938 21.3267C111.04 19.8939 110.232 15.4252 110.232 15.4252C110.232 15.4252 110.299 20.2339 111.591 19.1774C112.882 18.121 110.979 13.4216 110.979 13.4216L114.131 13.7313Z" fill="#020901"/>
<path d="M110.465 8.76465C110.465 8.76465 114.223 11.5697 116.94 14.1319C119.658 16.6941 123.801 17.6776 125.031 17.113" stroke="white" stroke-width="0.5" stroke-miterlimit="10" stroke-linecap="round"/>
<path d="M122.077 12.2928C122.077 12.2928 116.691 11.0784 115.424 8.75912C114.158 6.4398 110.234 6.71302 110.234 6.71302C111.214 5.81652 112.41 5.18486 113.707 4.87866C115.004 4.57247 116.358 4.602 117.64 4.96442" stroke="white" stroke-width="0.5" stroke-miterlimit="10" stroke-linecap="round"/>
<path d="M108.422 9.91211C108.422 9.91211 112.633 16.2083 109.976 18.1451" stroke="white" stroke-width="0.5" stroke-miterlimit="10" stroke-linecap="round"/>
<path d="M94.0313 44.9756C94.0313 44.9756 82.6046 75.8796 83.1309 79.3283C83.6573 82.7769 89.6552 81.4047 91.5464 80.9372C93.4376 80.4697 100.727 68.9945 100.776 66.5234C101.247 66.2312 101.65 65.843 101.958 65.3845C102.266 64.926 102.472 64.4077 102.563 63.8641C103.01 61.8726 103.316 54.7568 100.415 49.4199" fill="white"/>
<mask id="mask2_261_1724" style="mask-type:luminance" maskUnits="userSpaceOnUse" x="83" y="44" width="20" height="38">
<path d="M94.0313 44.9756C94.0313 44.9756 82.6046 75.8796 83.1309 79.3283C83.6573 82.7769 89.6552 81.4047 91.5464 80.9372C93.4376 80.4697 100.727 68.9945 100.776 66.5234C101.247 66.2312 101.65 65.843 101.958 65.3845C102.266 64.926 102.472 64.4077 102.563 63.8641C103.01 61.8726 103.316 54.7568 100.415 49.4199" fill="white"/>
</mask>
<g mask="url(#mask2_261_1724)">
<g style="mix-blend-mode:multiply" opacity="0.5">
<path d="M94.0313 44.9756C94.0313 44.9756 82.6046 75.8796 83.1309 79.3283C83.4247 81.2165 85.3587 81.6537 87.354 81.5929C88.7494 77.689 89.2941 70.5549 90.3407 67.0213C91.4974 63.0687 95.2676 52.8382 97.5627 47.4588L94.0313 44.9756Z" fill="#2A5F61"/>
</g>
</g>
<path d="M94.0313 44.9756C94.0313 44.9756 82.6046 75.8796 83.1309 79.3283C83.6573 82.7769 89.6552 81.4047 91.5464 80.9372C93.4376 80.4697 100.727 68.9945 100.776 66.5234C101.247 66.2312 101.65 65.843 101.958 65.3845C102.266 64.926 102.472 64.4077 102.563 63.8641C103.01 61.8726 103.316 54.7568 100.415 49.4199" stroke="#020901" stroke-linecap="round" stroke-linejoin="round"/>
<path d="M102.665 76.5046C102.665 76.5046 87.9758 75.6181 86.0908 75.4663C84.2057 75.3145 81.9473 77.8949 83.7222 81.465C85.4971 85.035 88.3186 85.2415 91.7827 84.5918C95.2468 83.9422 102.897 79.3096 102.897 79.3096L102.665 76.5046Z" fill="white"/>
<mask id="mask3_261_1724" style="mask-type:luminance" maskUnits="userSpaceOnUse" x="83" y="75" width="20" height="10">
<path d="M102.669 76.5046C102.669 76.5046 87.9798 75.6181 86.0947 75.4663C84.2096 75.3145 81.9512 77.8949 83.7261 81.465C85.501 85.035 88.3225 85.2415 91.7866 84.5918C95.2507 83.9422 102.901 79.3096 102.901 79.3096L102.669 76.5046Z" fill="white"/>
</mask>
<g mask="url(#mask3_261_1724)">
<path opacity="0.5" d="M102.669 76.5046C102.669 76.5046 87.9798 75.6181 86.0947 75.4663C84.2096 75.3145 81.9512 77.8949 83.7261 81.465C85.501 85.035 88.3225 85.2415 91.7866 84.5918C95.2507 83.9422 102.901 79.3096 102.901 79.3096L102.669 76.5046Z" fill="#2A5F61" stroke="#020901" stroke-linecap="round" stroke-linejoin="round"/>
</g>
<path d="M102.665 76.5046C102.665 76.5046 87.9758 75.6181 86.0908 75.4663C84.2057 75.3145 81.9473 77.8949 83.7222 81.465C85.4971 85.035 88.3186 85.2415 91.7827 84.5918C95.2468 83.9422 102.897 79.3096 102.897 79.3096L102.665 76.5046Z" stroke="#020901" stroke-linecap="round" stroke-linejoin="round"/>
<path d="M105.011 72.9528C105.011 72.9528 106.908 70.9552 107.41 70.9977C107.912 71.0402 111.596 70.8399 111.908 71.696C112.22 72.552 111.725 72.1756 111.217 72.461C110.709 72.7463 108.187 73.0681 108.187 73.0681C108.187 73.0681 110.36 73.2442 111.015 73.6267C111.67 74.0092 114.442 76.5471 114.43 77.045C114.418 77.5428 114.081 77.6521 113.408 77.6521C112.734 77.6521 113.23 78.1318 113.047 78.6114C112.863 79.0911 111.535 78.9879 111.535 78.9879C111.535 78.9879 111.651 80.6515 110.647 80.5665C109.644 80.4815 107.844 79.1821 107.844 79.1821C107.844 79.1821 104.129 80.53 102.795 80.4268C101.919 80.3875 101.048 80.5826 100.273 80.9915C101.395 78.0714 102.996 75.3552 105.011 72.9528Z" fill="white"/>
<mask id="mask4_261_1724" style="mask-type:luminance" maskUnits="userSpaceOnUse" x="100" y="70" width="15" height="11">
<path d="M105.011 72.9528C105.011 72.9528 106.908 70.9552 107.41 70.9977C107.912 71.0402 111.596 70.8399 111.908 71.696C112.22 72.552 111.725 72.1756 111.217 72.461C110.709 72.7463 108.187 73.0681 108.187 73.0681C108.187 73.0681 110.36 73.2442 111.015 73.6267C111.67 74.0092 114.442 76.5471 114.43 77.045C114.418 77.5428 114.081 77.6521 113.408 77.6521C112.734 77.6521 113.23 78.1318 113.047 78.6114C112.863 79.0911 111.535 78.9879 111.535 78.9879C111.535 78.9879 111.651 80.6515 110.647 80.5665C109.644 80.4815 107.844 79.1821 107.844 79.1821C107.844 79.1821 104.129 80.53 102.795 80.4268C101.919 80.3875 101.048 80.5826 100.273 80.9915C101.395 78.0714 102.996 75.3552 105.011 72.9528Z" fill="white"/>
</mask>
<g mask="url(#mask4_261_1724)">
<g style="mix-blend-mode:multiply" opacity="0.5">
<path d="M105.011 72.9528C103.001 75.3387 101.401 78.036 100.273 80.9368C101.048 80.5279 101.919 80.3329 102.795 80.3722C103.234 80.3795 103.672 80.3326 104.099 80.2325C104.365 79.0715 104.522 77.8886 104.57 76.6989C104.57 74.9321 107.41 70.9977 107.41 70.9977C106.902 70.9552 105.011 72.9528 105.011 72.9528Z" fill="#2A5F61"/>
</g>
</g>
<path d="M105.011 72.9528C105.011 72.9528 106.908 70.9552 107.41 70.9977C107.912 71.0402 111.596 70.8399 111.908 71.696C112.22 72.552 111.725 72.1756 111.217 72.461C110.709 72.7463 108.187 73.0681 108.187 73.0681C108.187 73.0681 110.36 73.2442 111.015 73.6267C111.67 74.0092 114.442 76.5471 114.43 77.045C114.418 77.5428 114.081 77.6521 113.408 77.6521C112.734 77.6521 113.23 78.1318 113.047 78.6114C112.863 79.0911 111.535 78.9879 111.535 78.9879C111.535 78.9879 111.651 80.6515 110.647 80.5665C109.644 80.4815 107.844 79.1822 107.844 79.1822C107.844 79.1822 104.129 80.53 102.795 80.4268C101.919 80.3875 101.048 80.5826 100.273 80.9915C101.395 78.0714 102.996 75.3552 105.011 72.9528Z" stroke="#020901" stroke-linecap="round" stroke-linejoin="round"/>
<path d="M113.408 77.5977L110.133 75.0173L107.465 74.6348" stroke="#020901" stroke-linecap="round" stroke-linejoin="round"/>
<path d="M111.528 78.933L107.899 76.984L106.234 76.6865" stroke="#020901" stroke-linecap="round" stroke-linejoin="round"/>
<path d="M145.232 70.4936C145.232 70.4936 143.334 68.5022 142.833 68.5386C142.331 68.575 138.646 68.3868 138.334 69.2368C138.022 70.0868 138.518 69.7165 139.026 70.0079C140.016 70.2918 141.03 70.4849 142.055 70.5847C142.055 70.5847 139.883 70.7608 139.228 71.1493C138.573 71.5379 135.8 74.0697 135.813 74.5615C135.825 75.0533 136.161 75.1687 136.835 75.1687C137.508 75.1687 137.012 75.6483 137.196 76.128C137.379 76.6076 138.707 76.4983 138.707 76.4983C138.707 76.4983 138.591 78.1619 139.595 78.083C140.599 78.0041 142.398 76.6987 142.398 76.6987C142.398 76.6987 146.113 78.0466 147.447 77.913C148.325 77.8726 149.196 78.0699 149.969 78.4837C148.842 75.5806 147.242 72.8812 145.232 70.4936Z" fill="white" stroke="#020901" stroke-linecap="round" stroke-linejoin="round"/>
<path d="M136.836 75.1385L140.104 72.5641L142.773 72.1816" stroke="#020901" stroke-linecap="round" stroke-linejoin="round"/>
<path d="M138.711 76.474L142.34 74.5311L144.005 74.2275" stroke="#020901" stroke-linecap="round" stroke-linejoin="round"/>
<path d="M147.422 73.5174C147.422 73.5174 153.72 72.8009 155.88 74.4099C158.041 76.0188 157.68 80.1171 157.68 80.1171" stroke="#020901" stroke-linecap="round" stroke-linejoin="round"/>
<path d="M97.6641 205.634C97.6641 205.634 98.3373 204.304 100.486 204.572C102.634 204.839 103.98 207.371 102.499 208.166C101.018 208.961 97.6641 205.634 97.6641 205.634Z" fill="#2A5F61" stroke="#020901" stroke-linecap="round" stroke-linejoin="round"/>
<path d="M100.845 143.802C100.845 143.802 105.9 144.809 108.33 146.412C110.76 148.015 111.158 148.416 111.764 151.628C112.37 154.84 110.148 163.461 110.148 167.875C110.148 172.289 106.91 199.168 106.91 201.384C106.91 203.6 109.138 208.202 108.936 209.805C108.85 210.958 108.987 212.116 109.34 213.217C109.34 213.217 110.754 214.219 108.936 214.432C107.118 214.644 106.91 214.832 105.294 214.031C103.679 213.229 102.846 209.216 101.451 208.014C100.055 206.812 99.2292 205.409 99.2292 204.402C99.2292 203.394 102.461 199.593 102.461 199.593C102.461 199.593 102.057 193.977 101.849 189.162C101.641 184.347 99.4005 173.716 99.4005 169.126C99.4005 164.536 102.461 153.68 102.461 153.68C102.461 153.68 94.6083 154.633 91.5481 152.63C88.4879 150.626 91.9521 141.798 100.845 143.802Z" fill="white" stroke="#020901" stroke-linecap="round" stroke-linejoin="round"/>
<path d="M101.45 207.99C101.45 207.99 97.7781 204.863 97.6679 205.659C97.5577 206.454 97.5333 212.726 97.8025 213.388C98.0718 214.05 105.324 214.724 109.088 215.392C112.853 216.059 111.371 213.655 110.563 213.121C109.756 212.586 101.45 207.99 101.45 207.99Z" fill="#2A5F61" stroke="#020901" stroke-linecap="round" stroke-linejoin="round"/>
<path opacity="0.2" d="M101.45 207.99C101.45 207.99 97.7781 204.863 97.6679 205.659C97.5577 206.454 97.5333 212.726 97.8025 213.388C98.0718 214.05 105.324 214.724 109.088 215.392C112.853 216.059 111.371 213.655 110.563 213.121C109.756 212.586 101.45 207.99 101.45 207.99Z" fill="black"/>
<path d="M102.5 211.523C103.235 210.649 104.095 209.886 105.052 209.259C106.189 208.458 107.465 207.871 108.816 207.528L110.561 210.856C109.358 211.137 108.188 211.544 107.072 212.07C106.225 212.579 105.456 213.207 104.789 213.934C104.789 213.934 102.769 212.592 102.5 211.523Z" fill="#020901" stroke="#020901" stroke-linecap="round" stroke-linejoin="round"/>
<path d="M106.13 207.796C105.96 207.817 105.796 207.872 105.649 207.958C105.502 208.044 105.374 208.16 105.273 208.297C105.172 208.434 105.1 208.59 105.062 208.755C105.025 208.921 105.021 209.092 105.053 209.259C105.187 210.595 105.322 214.857 105.86 214.99C106.399 215.124 113.113 216.205 115.531 216.32C117.948 216.435 120.635 216.454 120.635 215.258C120.635 214.061 120.231 213.527 119.699 213.527C119.166 213.527 117.948 213.126 116.338 212.198C114.729 211.269 110.83 207.668 109.606 207.535C108.382 207.401 106.803 206.594 106.13 207.796Z" fill="#2A5F61" stroke="#020901" stroke-linecap="round" stroke-linejoin="round"/>
<path opacity="0.2" d="M106.13 207.796C105.96 207.817 105.796 207.872 105.649 207.958C105.502 208.044 105.374 208.16 105.273 208.297C105.172 208.434 105.1 208.59 105.062 208.755C105.025 208.921 105.021 209.092 105.053 209.259C105.187 210.595 105.322 214.857 105.86 214.99C106.399 215.124 113.113 216.205 115.531 216.32C117.948 216.435 120.635 216.454 120.635 215.258C120.635 214.061 120.231 213.527 119.699 213.527C119.166 213.527 117.948 213.126 116.338 212.198C114.729 211.269 110.83 207.668 109.606 207.535C108.382 207.401 106.803 206.594 106.13 207.796Z" fill="black"/>
<path d="M49.8118 213.527C49.8118 212.927 49.6323 212.34 49.296 211.84C48.9598 211.341 48.4818 210.952 47.9227 210.722C47.3635 210.493 46.7482 210.432 46.1546 210.55C45.561 210.667 45.0157 210.956 44.5877 211.38C44.1597 211.805 43.8683 212.346 43.7502 212.935C43.6321 213.524 43.6927 214.134 43.9244 214.689C44.156 215.243 44.5482 215.718 45.0514 216.051C45.5547 216.385 46.1463 216.563 46.7516 216.563C47.5632 216.563 48.3416 216.243 48.9155 215.674C49.4894 215.104 49.8118 214.332 49.8118 213.527Z" fill="#020901" stroke="#020901" stroke-linecap="round" stroke-linejoin="round"/>
<path d="M46.7527 215.039C47.5978 215.039 48.2828 214.359 48.2828 213.521C48.2828 212.683 47.5978 212.003 46.7527 212.003C45.9077 212.003 45.2227 212.683 45.2227 213.521C45.2227 214.359 45.9077 215.039 46.7527 215.039Z" fill="white" stroke="#020901" stroke-linecap="round" stroke-linejoin="round"/>
<path d="M82.6047 213.527C82.6047 212.927 82.4253 212.34 82.089 211.84C81.7527 211.341 81.2748 210.952 80.7156 210.722C80.1565 210.493 79.5412 210.432 78.9475 210.55C78.3539 210.667 77.8087 210.956 77.3807 211.38C76.9527 211.805 76.6613 212.346 76.5432 212.935C76.4251 213.524 76.4857 214.134 76.7173 214.689C76.9489 215.243 77.3412 215.718 77.8444 216.051C78.3477 216.385 78.9393 216.563 79.5446 216.563C80.3562 216.563 81.1345 216.243 81.7084 215.674C82.2823 215.104 82.6047 214.332 82.6047 213.527Z" fill="#020901" stroke="#020901" stroke-linecap="round" stroke-linejoin="round"/>
<path d="M81.0758 213.527C81.0758 213.226 80.9861 212.933 80.8179 212.683C80.6498 212.434 80.4108 212.239 80.1313 212.124C79.8517 212.009 79.544 211.979 79.2472 212.038C78.9504 212.097 78.6778 212.241 78.4638 212.453C78.2498 212.666 78.1041 212.936 78.045 213.231C77.986 213.525 78.0163 213.83 78.1321 214.108C78.2479 214.385 78.444 214.622 78.6956 214.789C78.9473 214.956 79.2431 215.045 79.5457 215.045C79.9515 215.045 80.3407 214.885 80.6276 214.6C80.9146 214.315 81.0758 213.929 81.0758 213.527Z" fill="white" stroke="#020901" stroke-linecap="round" stroke-linejoin="round"/>
<path d="M93.3235 213.527C93.3235 212.927 93.144 212.34 92.8077 211.84C92.4715 211.341 91.9936 210.952 91.4344 210.722C90.8752 210.493 90.2599 210.432 89.6663 210.55C89.0727 210.667 88.5274 210.956 88.0994 211.38C87.6715 211.805 87.38 212.346 87.2619 212.935C87.1438 213.524 87.2045 214.134 87.4361 214.689C87.6677 215.243 88.0599 215.718 88.5632 216.051C89.0664 216.385 89.6581 216.563 90.2633 216.563C91.0749 216.563 91.8533 216.243 92.4272 215.674C93.0011 215.104 93.3235 214.332 93.3235 213.527Z" fill="#020901" stroke="#020901" stroke-linecap="round" stroke-linejoin="round"/>
<path d="M91.7912 213.527C91.7924 213.225 91.7031 212.93 91.5348 212.678C91.3665 212.427 91.1266 212.23 90.8457 212.114C90.5647 211.998 90.2553 211.967 89.9568 212.026C89.6582 212.085 89.3839 212.23 89.1687 212.443C88.9535 212.657 88.8071 212.929 88.748 213.225C88.6889 213.521 88.7198 213.828 88.8369 214.107C88.9539 214.386 89.1517 214.624 89.4053 214.791C89.6589 214.958 89.9567 215.046 90.2611 215.045C90.6669 215.045 91.0561 214.885 91.343 214.6C91.63 214.316 91.7912 213.93 91.7912 213.527Z" fill="white" stroke="#020901" stroke-linecap="round" stroke-linejoin="round"/>
<path d="M74.7957 161.409H68.3203V210.048H74.7957V161.409Z" fill="#020901" stroke="#020901" stroke-linecap="round" stroke-linejoin="round"/>
<path d="M76.5288 186.824H66.6016V210.048H76.5288V186.824Z" fill="#020901" stroke="#020901" stroke-linecap="round" stroke-linejoin="round"/>
<path d="M46.12 209.131H91.8574C92.5067 209.131 93.1294 209.387 93.5885 209.842C94.0477 210.298 94.3056 210.915 94.3056 211.559V211.881H43.6719V211.559C43.6719 210.915 43.9298 210.298 44.3889 209.842C44.848 209.387 45.4707 209.131 46.12 209.131Z" fill="#020901" stroke="#020901" stroke-linecap="round" stroke-linejoin="round"/>
<path d="M64.9487 142.6H56.625V155.908H64.9487V142.6Z" fill="#020901" stroke="#020901" stroke-linecap="round" stroke-linejoin="round"/>
<path d="M98.5243 154.068H44.5917C42.114 154.068 40.1055 156.061 40.1055 158.519V159.715C40.1055 162.173 42.114 164.165 44.5917 164.165H98.5243C101.002 164.165 103.01 162.173 103.01 159.715V158.519C103.01 156.061 101.002 154.068 98.5243 154.068Z" fill="#2A5F61" stroke="#020901" stroke-linecap="round" stroke-linejoin="round"/>
<path opacity="0.1" d="M98.5243 154.068H44.5917C42.114 154.068 40.1055 156.061 40.1055 158.519V159.715C40.1055 162.173 42.114 164.165 44.5917 164.165H98.5243C101.002 164.165 103.01 162.173 103.01 159.715V158.519C103.01 156.061 101.002 154.068 98.5243 154.068Z" fill="black"/>
<path d="M103.011 159.114C103.011 157.776 102.475 156.492 101.521 155.546C100.567 154.6 99.2735 154.068 97.9246 154.068H70.1749C69.4917 154.045 68.8108 154.158 68.1727 154.401C67.5346 154.644 66.9523 155.012 66.4607 155.484C65.969 155.955 65.578 156.519 65.3109 157.143C65.0439 157.768 64.9062 158.439 64.9062 159.117C64.9062 159.795 65.0439 160.466 65.3109 161.09C65.578 161.715 65.969 162.279 66.4607 162.75C66.9523 163.221 67.5346 163.589 68.1727 163.833C68.8108 164.076 69.4917 164.189 70.1749 164.165H97.9246C99.274 164.164 100.568 163.631 101.521 162.684C102.475 161.737 103.011 160.453 103.011 159.114Z" fill="#2A5F61" stroke="#020901" stroke-miterlimit="10"/>
<path opacity="0.1" d="M103.011 159.271C103.011 158.609 102.879 157.952 102.623 157.34C102.368 156.728 101.993 156.172 101.521 155.703C101.049 155.235 100.488 154.863 99.8709 154.61C99.2539 154.356 98.5925 154.226 97.9246 154.226H70.1749C69.4917 154.202 68.8108 154.315 68.1727 154.559C67.5346 154.802 66.9523 155.17 66.4607 155.641C65.969 156.112 65.578 156.676 65.3109 157.301C65.0439 157.925 64.9062 158.596 64.9062 159.274C64.9062 159.952 65.0439 160.623 65.3109 161.248C65.578 161.872 65.969 162.436 66.4607 162.908C66.9523 163.379 67.5346 163.747 68.1727 163.99C68.8108 164.233 69.4917 164.346 70.1749 164.323H97.9246C98.593 164.323 99.2549 164.192 99.8723 163.938C100.49 163.684 101.051 163.312 101.523 162.843C101.995 162.374 102.37 161.817 102.625 161.204C102.88 160.591 103.011 159.934 103.011 159.271Z" fill="black"/>
<path d="M77.182 142.605H44.7441C43.9857 142.606 43.2349 142.455 42.5361 142.163C41.8372 141.871 41.2045 141.443 40.6751 140.904C40.1457 140.365 39.7305 139.727 39.4538 139.026C39.1772 138.326 39.0448 137.577 39.0644 136.825L39.8662 105.454C39.9014 103.983 40.5154 102.585 41.577 101.558C42.6385 100.531 44.0631 99.957 45.5459 99.959H72.3102C73.6681 99.9566 74.9819 100.438 76.0129 101.314C77.0438 102.191 77.7236 103.406 77.9287 104.737L82.7943 136.133C82.9158 136.935 82.8616 137.752 82.6354 138.531C82.4092 139.31 82.0163 140.031 81.4836 140.645C80.9508 141.26 80.2908 141.753 79.5484 142.091C78.8061 142.429 77.9989 142.605 77.182 142.605Z" fill="#2A5F61" stroke="#020901" stroke-linecap="round" stroke-linejoin="round"/>
<path opacity="0.1" d="M77.182 142.605H44.7441C43.9857 142.606 43.2349 142.455 42.5361 142.163C41.8372 141.871 41.2045 141.443 40.6751 140.904C40.1457 140.365 39.7305 139.727 39.4538 139.026C39.1772 138.326 39.0448 137.577 39.0644 136.825L39.8662 105.454C39.9014 103.983 40.5154 102.585 41.577 101.558C42.6385 100.531 44.0631 99.957 45.5459 99.959H72.3102C73.6681 99.9566 74.9819 100.438 76.0129 101.314C77.0438 102.191 77.7236 103.406 77.9287 104.737L82.7943 136.133C82.9158 136.935 82.8616 137.752 82.6354 138.531C82.4092 139.31 82.0163 140.031 81.4836 140.645C80.9508 141.26 80.2908 141.753 79.5484 142.091C78.8061 142.429 77.9989 142.605 77.182 142.605Z" fill="black"/>
<path d="M66.587 162.557L52.3633 171.846" stroke="#020901" stroke-linecap="round" stroke-linejoin="round"/>
<path d="M51.8263 170.42L49.3782 172.053C49.1865 172.183 49.0261 172.353 48.9085 172.551C48.7909 172.75 48.719 172.971 48.6979 173.201C48.6768 173.43 48.7072 173.661 48.7867 173.877C48.8662 174.093 48.993 174.289 49.1579 174.451L49.366 174.645C49.641 174.914 50.0065 175.072 50.3919 175.088C50.7773 175.105 51.1553 174.98 51.453 174.737L53.6931 172.915C53.8593 172.779 53.9954 172.609 54.0927 172.418C54.19 172.227 54.2465 172.018 54.2585 171.805C54.2706 171.591 54.238 171.377 54.1628 171.176C54.0876 170.975 53.9715 170.792 53.8216 170.638C53.5681 170.375 53.229 170.209 52.8641 170.169C52.4992 170.129 52.1317 170.217 51.8263 170.42Z" fill="#020901" stroke="#020901" stroke-linecap="round" stroke-linejoin="round"/>
<path d="M68.8086 209.131H82.8426C83.4919 209.131 84.1146 209.387 84.5737 209.842C85.0328 210.298 85.2907 210.915 85.2907 211.559V211.881H68.8086V209.131Z" fill="#020901" stroke="#020901" stroke-linecap="round" stroke-linejoin="round"/>
<path d="M80.0438 126.437C82.8122 126.437 85.0564 125.17 85.0564 123.608C85.0564 122.045 82.8122 120.778 80.0438 120.778C77.2755 120.778 75.0312 122.045 75.0312 123.608C75.0312 125.17 77.2755 126.437 80.0438 126.437Z" fill="white" stroke="#020901" stroke-linecap="round" stroke-linejoin="round"/>
<path d="M93.9969 146.813C93.9969 146.813 102.082 147.214 103.906 151.428C104.281 152.871 104.487 154.352 104.518 155.842C104.518 158.046 111.997 200.571 112.199 201.378C112.401 202.186 116.85 208.397 117.456 209.799C118.062 211.202 118.68 212.41 118.68 212.41C118.68 212.41 120.516 213.212 120.302 213.813C120.088 214.414 115.853 214.614 114.035 214.614C112.217 214.614 110.191 210.206 108.979 209.799C107.768 209.393 106.348 207.978 106.348 207.195C106.348 206.412 106.96 200.577 106.96 200.577C106.184 195.817 104.828 191.169 102.92 186.734C100.215 180.62 96.849 171.689 96.445 167.481C96.0411 163.273 96.0411 159.254 96.0411 159.254L90.9367 158.447C90.9367 158.447 90.3247 148.016 93.9969 146.813Z" fill="white" stroke="#020901" stroke-linecap="round" stroke-linejoin="round"/>
<path d="M110.43 211.791C110.43 211.791 112.045 205.264 116.207 207.795L117.952 210.722C117.952 210.722 114.059 210.722 112.847 214.456C112.255 214.241 111.726 213.886 111.304 213.422C110.883 212.957 110.582 212.397 110.43 211.791Z" fill="#020901" stroke="#020901" stroke-linecap="round" stroke-linejoin="round"/>
<path d="M77.2627 134.634L77.0669 134.664C75.2308 127.244 72.752 119.661 72.752 119.661C72.752 119.661 60.5909 122.849 53.5769 120.687C53.5769 120.687 50.0088 138.119 50.0088 142.672C50.0088 146.315 49.2499 150.019 52.0285 152.156C52.2972 152.548 52.6426 152.883 53.0442 153.141C53.4458 153.398 53.8955 153.574 54.3665 153.656C61.9496 155.07 75.0166 154.578 77.1954 155.01C79.3743 155.441 90.9356 158.446 90.9356 158.446C90.9356 158.446 91.6272 152.12 93.5857 148.015C95.5442 143.911 104.486 144.609 104.486 144.609L77.2627 134.634Z" fill="#020901" stroke="#020901" stroke-linecap="round" stroke-linejoin="round"/>
<path d="M74.4529 86.0256C74.4529 86.0256 72.7759 83.937 70.9643 86.2381C69.1527 88.5392 70.591 96.5293 71.4845 99.7229C72.3781 102.917 87.4709 116.165 88.8908 117.148C90.3108 118.132 108.813 122.279 110.428 121.52C112.044 120.761 112.509 116.918 111.591 114.841C110.673 112.765 93.3832 108.357 93.3832 108.357L74.4529 86.0256Z" fill="white"/>
<mask id="mask5_261_1724" style="mask-type:luminance" maskUnits="userSpaceOnUse" x="70" y="85" width="43" height="37">
<path d="M74.4529 86.0246C74.4529 86.0246 72.7759 83.936 70.9643 86.2371C69.1527 88.5382 70.591 96.5284 71.4845 99.722C72.3781 102.916 87.4709 116.164 88.8908 117.147C90.3108 118.131 108.813 122.278 110.428 121.519C112.044 120.76 112.509 116.917 111.591 114.84C110.673 112.764 93.3832 108.356 93.3832 108.356L74.4529 86.0246Z" fill="white"/>
</mask>
<g mask="url(#mask5_261_1724)">
<g style="mix-blend-mode:multiply" opacity="0.5">
<path d="M88.8921 117.16C90.312 118.137 108.814 122.29 110.43 121.531C111.36 121.094 111.905 119.625 112.027 118.064C109.169 116.923 105.778 116.152 104.205 116.243C101.922 116.371 103.452 118.483 99.7924 117.888C96.1325 117.293 91.9584 115.46 88.1638 113.31C84.3691 111.161 77.5572 104.81 77.5572 104.81L82.9002 105.418L76.8105 103.554L82.1046 101.58L77.5572 101.313C77.8484 100.599 77.984 99.8309 77.955 99.0606C77.955 97.5002 74.956 91.708 74.956 91.708L71.7734 100.384C73.9951 104.343 87.5517 116.231 88.8921 117.16Z" fill="#2A5F61"/>
</g>
</g>
<path d="M74.4529 86.0256C74.4529 86.0256 72.7759 83.937 70.9643 86.2381C69.1527 88.5392 70.591 96.5293 71.4845 99.7229C72.3781 102.917 87.4709 116.165 88.8908 117.148C90.3108 118.132 108.813 122.279 110.428 121.52C112.044 120.761 112.509 116.918 111.591 114.841C110.673 112.765 93.3832 108.357 93.3832 108.357L74.4529 86.0256Z" stroke="#020901" stroke-linecap="round" stroke-linejoin="round"/>
<path d="M80.394 102.801L76.2383 104.398L83.2277 106.705" stroke="#020901" stroke-width="0.5" stroke-linecap="round" stroke-linejoin="round"/>
<path d="M110.471 114.822C109.936 114.931 109.448 115.197 109.069 115.586C108.69 115.975 108.438 116.468 108.347 117.002C107.986 118.902 109.871 120.523 109.871 120.523C109.871 120.523 113.843 121.877 115.03 118.702C116.218 115.526 112.392 114.7 110.471 114.822Z" fill="white"/>
<mask id="mask6_261_1724" style="mask-type:luminance" maskUnits="userSpaceOnUse" x="108" y="114" width="8" height="7">
<path d="M110.474 114.823C109.94 114.931 109.452 115.198 109.073 115.587C108.694 115.976 108.442 116.469 108.351 117.003C107.99 118.903 109.875 120.524 109.875 120.524C109.875 120.524 113.847 121.878 115.034 118.703C116.221 115.527 112.396 114.701 110.474 114.823Z" fill="white"/>
</mask>
<g mask="url(#mask6_261_1724)">
<g style="mix-blend-mode:multiply" opacity="0.5">
<path d="M109.875 120.524C109.875 120.524 113.265 121.672 114.716 119.358C112.723 118.258 110.594 117.423 108.381 116.875C108.368 116.917 108.358 116.959 108.351 117.002C107.99 118.903 109.875 120.524 109.875 120.524Z" fill="#2A5F61"/>
</g>
</g>
<path d="M110.471 114.822C109.936 114.931 109.448 115.197 109.069 115.586C108.69 115.975 108.438 116.468 108.347 117.002C107.986 118.902 109.871 120.523 109.871 120.523C109.871 120.523 113.843 121.877 115.03 118.702C116.218 115.526 112.392 114.7 110.471 114.822Z" stroke="#020901" stroke-linecap="round" stroke-linejoin="round"/>
<path d="M122.202 119.212C123.312 119.388 124.334 119.917 125.116 120.717C126.272 122.011 125.33 122.539 124.589 122.351C123.849 122.162 121.413 118.592 122.202 119.212Z" fill="white" stroke="#020901" stroke-linecap="round" stroke-linejoin="round"/>
<path d="M121.431 118.975C122.506 119.303 123.445 119.967 124.106 120.87C125.073 122.302 124.063 122.691 123.359 122.412C122.655 122.132 120.734 118.253 121.431 118.975Z" fill="white" stroke="#020901" stroke-linecap="round" stroke-linejoin="round"/>
<path d="M114.502 116.146C114.502 116.146 112.666 116.814 112.464 117.968C112.431 118.328 112.473 118.691 112.589 119.034C112.705 119.377 112.892 119.692 113.137 119.959C113.137 119.959 114.973 121.417 115.671 121.568C116.369 121.72 117.936 122.607 118.119 121.763C118.303 120.919 116.442 120.172 116.442 120.172C116.442 120.172 119.998 120.384 120.115 121.095C120.231 121.805 121.516 122.54 122.654 122.558C123.793 122.576 122.416 120.293 122.14 119.723C121.865 119.152 116.779 116.189 114.502 116.146Z" fill="white" stroke="#020901" stroke-linecap="round" stroke-linejoin="round"/>
<path d="M56.2216 80.36C56.2216 80.36 45.0336 86.814 44.1584 87.239C43.2832 87.6641 42.4141 94.3427 42.4141 94.9742C42.4141 95.6056 53.6021 120.687 53.6021 120.687C53.6021 120.687 56.3562 123 64.4167 123C72.4773 123 73.1015 121.786 73.1015 121.786L73.7442 111.203C73.7442 111.203 76.4983 104.051 76.7125 102.788C76.9267 101.525 74.4541 86.0247 74.4541 86.0247L63.0091 78.4535C63.0091 78.4535 58.3453 75.7335 56.2216 80.36Z" fill="white"/>
<mask id="mask7_261_1724" style="mask-type:luminance" maskUnits="userSpaceOnUse" x="42" y="77" width="35" height="46">
<path d="M56.2177 80.36C56.2177 80.36 45.0297 86.814 44.1545 87.239C43.2792 87.6641 42.4102 94.3427 42.4102 94.9742C42.4102 95.6056 53.5982 120.687 53.5982 120.687C53.5982 120.687 56.3523 123 64.4128 123C72.4733 123 73.0976 121.786 73.0976 121.786L73.7403 111.203C73.7403 111.203 76.4944 104.051 76.7086 102.788C76.9228 101.525 74.4502 86.0247 74.4502 86.0247L63.0052 78.4535C63.0052 78.4535 58.3414 75.7335 56.2177 80.36Z" fill="white"/>
</mask>
<g mask="url(#mask7_261_1724)">
<g style="mix-blend-mode:multiply" opacity="0.5">
<path d="M45.2928 91.8289C46.1681 90.4385 54.2224 85.2292 54.2224 85.2292L57.1969 83.4927L61.0099 77.7551C59.4798 77.4758 57.4356 77.7066 56.2177 80.3598C56.2177 80.3598 45.0052 86.8139 44.1545 87.2328C43.3037 87.6517 42.4102 94.3365 42.4102 94.9679C42.4102 95.1075 42.9365 96.3947 43.7566 98.3315C44.0749 95.4597 44.6808 92.8004 45.2928 91.8289Z" fill="#2A5F61"/>
</g>
</g>
<path d="M56.2216 80.36C56.2216 80.36 45.0336 86.814 44.1584 87.239C43.2832 87.6641 42.4141 94.3427 42.4141 94.9742C42.4141 95.6056 53.6021 120.687 53.6021 120.687C53.6021 120.687 56.3562 123 64.4167 123C72.4773 123 73.1015 121.786 73.1015 121.786L73.7442 111.203C73.7442 111.203 76.4983 104.051 76.7125 102.788C76.9267 101.525 74.4541 86.0247 74.4541 86.0247L63.0091 78.4535C63.0091 78.4535 58.3453 75.7335 56.2216 80.36Z" stroke="#020901" stroke-linecap="round" stroke-linejoin="round"/>
<path d="M59.9706 90.3722L63.2328 93.8634L62.5534 108.708L67.3273 109.959L67.8292 103.475L69.5857 110.208L73.1049 106.717L65.4973 93.6144L66.501 89.6254L62.229 84.8896L59.4688 91.374" fill="#020901"/>
<path d="M59.9706 90.3722L63.2328 93.8634L62.5534 108.708L67.3273 109.959L67.8292 103.475L69.5857 110.208L73.1049 106.717L65.4973 93.6144L66.501 89.6254L62.229 84.8896L59.4688 91.374" stroke="#020901" stroke-linecap="round" stroke-linejoin="round"/>
<path d="M54.0352 80.3968C54.0352 80.3968 54.7329 85.0172 55.6632 87.0755C56.5935 89.1337 58.6928 92.6248 58.6928 92.6248L63.1178 88.2291L67.5489 91.2648C67.5489 91.2648 67.0838 83.639 65.4496 80.1722C63.8155 76.7053 55.8957 73.2324 54.0352 80.3968Z" fill="white" stroke="#020901" stroke-linecap="round" stroke-linejoin="round"/>
<g style="mix-blend-mode:multiply" opacity="0.5">
<path d="M57.1994 83.4929L61.6244 76.8142C60.8167 76.4633 59.9525 76.2577 59.0722 76.207C58.3133 76.3588 57.4564 76.547 56.5506 76.7474C55.4428 77.3545 54.5248 78.496 54.0352 80.3903C54.0352 80.3903 54.384 82.7218 54.9226 84.8164L57.1994 83.4929Z" fill="#2A5F61"/>
</g>
<path d="M64.9838 79.0052C64.3847 80.3142 64.0678 81.7328 64.0535 83.1703C64.0535 85.4775 64.5186 88.0275 64.5186 89.1811V92.6479C64.5186 92.6479 61.7216 89.1811 59.6223 86.6371C57.5231 84.0932 55.8951 81.7799 56.1276 79.7035C56.3602 77.627 58.4595 69.5276 58.4595 69.5276C59.5684 69.5177 60.658 69.8154 61.6054 70.3872C62.5527 70.9591 63.3201 71.7822 63.8209 72.7637C65.6815 76.2305 64.9838 79.0052 64.9838 79.0052Z" fill="white" stroke="#020901" stroke-linecap="round" stroke-linejoin="round"/>
<g style="mix-blend-mode:multiply" opacity="0.5">
<path d="M57.7254 74.987L57.0277 75.3209C56.5992 77.1424 56.2198 78.8849 56.128 79.7045C55.9015 81.7081 57.4132 83.9546 59.4023 86.3832L59.6533 81.6049L64.9841 79.0245L60.6999 74.8291L57.7254 74.987Z" fill="#2A5F61"/>
</g>
<path d="M69.5134 76.5233C69.5134 76.5233 67.9711 79.3587 69.6358 79.474C71.3005 79.5894 70.9394 78.1747 71.1781 77.7072C71.4168 77.2397 72.4879 78.3144 71.8942 80.5366C71.3005 82.7587 68.326 84.313 66.5389 82.5401C64.7518 80.7673 65.2353 78.8972 65.8289 77.4704C66.4226 76.0436 68.8157 75.3454 69.5134 76.5233Z" fill="#020901" stroke="#020901" stroke-linecap="round" stroke-linejoin="round"/>
<path d="M66.1701 51.46C65.6499 51.3871 65.1052 51.3325 64.5421 51.3021C62.4918 51.1989 60.2579 51.3325 58.6605 52.6014C55.3432 55.2365 55.9002 60.5309 56.1389 64.2163C56.4082 68.3995 56.3531 74.5014 59.5173 77.5311C64.8604 82.6433 73.2147 77.1729 73.2147 71.1135C73.2147 68.5513 73.3126 64.6473 73.484 63.773C73.7071 62.693 73.8605 61.5999 73.943 60.5005C74.3102 54.9208 71.1215 52.1582 66.1701 51.46Z" fill="white" stroke="#020901" stroke-linecap="round" stroke-linejoin="round"/>
<g style="mix-blend-mode:multiply" opacity="0.5">
<path d="M68.1431 78.6236C66.6481 78.6028 65.1559 78.4893 63.6753 78.2836C61.4046 77.9375 58.2526 74.2885 59.8256 69.2552C61.3985 64.2219 61.4046 61.6112 61.4046 61.6112L56.0493 58.29C55.9265 60.2648 55.9592 62.2461 56.1472 64.2158C56.4165 68.3991 56.3614 74.501 59.5257 77.5307C62.1207 80.02 65.4257 79.9957 68.1431 78.6236Z" fill="#2A5F61"/>
</g>
<path d="M65.1059 67.6102C65.4406 67.6102 65.7118 67.1481 65.7118 66.5781C65.7118 66.008 65.4406 65.5459 65.1059 65.5459C64.7713 65.5459 64.5 66.008 64.5 66.5781C64.5 67.1481 64.7713 67.6102 65.1059 67.6102Z" fill="#020901"/>
<path d="M71.0866 66.8332C71.0499 67.4039 70.7438 67.8472 70.4133 67.8229C70.0828 67.7986 69.838 67.325 69.8747 66.7543C69.9115 66.1836 70.2114 65.7403 70.548 65.7646C70.8846 65.7889 71.1233 66.2625 71.0866 66.8332Z" fill="#020901"/>
<path d="M63.2266 64.1065C63.2266 64.1065 64.4506 61.5443 66.4153 62.7525L63.2266 64.1065Z" fill="white"/>
<path d="M63.2266 64.1065C63.2266 64.1065 64.4506 61.5443 66.4153 62.7525" stroke="#020901" stroke-linecap="round" stroke-linejoin="round"/>
<path d="M69.6055 63.2028C69.6055 63.2028 71.056 61.5513 71.8822 64.2592L69.6055 63.2028Z" fill="white"/>
<path d="M69.6055 63.2028C69.6055 63.2028 71.056 61.5513 71.8822 64.2592" stroke="#020901" stroke-linecap="round" stroke-linejoin="round"/>
<path d="M68.6616 68.6299C68.6616 68.7331 68.6616 68.8363 68.6616 68.9274C68.8146 69.9838 69.5735 70.7488 69.2736 71.186C68.9737 71.6231 67.4375 71.7931 67.4375 71.7931" fill="white"/>
<path d="M68.6616 68.6299C68.6616 68.7331 68.6616 68.8363 68.6616 68.9274C68.8146 69.9838 69.5735 70.7488 69.2736 71.186C68.9737 71.6231 67.4375 71.7931 67.4375 71.7931" stroke="#020901" stroke-linecap="round" stroke-linejoin="round"/>
<path d="M66.8675 74.2035C66.8675 74.2035 64.1929 75.0231 63.1953 72.8799L66.8675 74.2035Z" fill="white"/>
<path d="M66.8675 74.2035C66.8675 74.2035 64.1929 75.0231 63.1953 72.8799" stroke="#020901" stroke-linecap="round" stroke-linejoin="round"/>
<path d="M64.5873 69.1038C66.3247 69.1038 67.7331 67.7066 67.7331 65.9831C67.7331 64.2595 66.3247 62.8623 64.5873 62.8623C62.8499 62.8623 61.4414 64.2595 61.4414 65.9831C61.4414 67.7066 62.8499 69.1038 64.5873 69.1038Z" stroke="#020901" stroke-width="0.5" stroke-linecap="round" stroke-linejoin="round"/>
<path d="M71.7043 69.1038C73.2626 69.1038 74.5258 67.7066 74.5258 65.9831C74.5258 64.2595 73.2626 62.8623 71.7043 62.8623C70.146 62.8623 68.8828 64.2595 68.8828 65.9831C68.8828 67.7066 70.146 69.1038 71.7043 69.1038Z" stroke="#020901" stroke-width="0.5" stroke-linecap="round" stroke-linejoin="round"/>
<path d="M61.4377 65.9834L56.9453 66.1716" stroke="#020901" stroke-width="0.5" stroke-linecap="round" stroke-linejoin="round"/>
<path d="M74.5256 65.9834H73.375" stroke="#020901" stroke-width="0.5" stroke-linecap="round" stroke-linejoin="round"/>
<path d="M67.7266 65.0293H69.0302" stroke="#020901" stroke-width="0.5" stroke-linecap="round" stroke-linejoin="round"/>
<path d="M71.7222 47.7741C69.3737 47.3673 66.9993 47.1238 64.6165 47.0456C64.6165 47.0456 60.4485 45.0966 54.8239 47.2884C46.7757 50.4092 46.9531 61.0708 48.9484 67.8648C49.5604 69.917 50.9987 73.0317 49.6767 75.0899C48.8443 76.3892 46.4635 75.6971 46.8246 73.9121C47.1857 72.127 47.7733 72.7342 48.2507 72.4974C48.728 72.2606 48.012 72.0238 46.9409 71.6717C45.8698 71.3195 44.9334 72.2788 44.7988 74.6164C44.4438 80.9915 53.912 85.2112 57.523 79.6375C58.9919 77.2089 57.6882 72.9892 57.0517 69.9231C56.8496 68.8617 56.7127 67.7891 56.6417 66.7112C57.7843 66.6026 58.8439 66.0716 59.61 65.2237C60.1773 64.4524 60.6614 63.6241 61.0544 62.7526C61.4829 62.7526 61.9297 62.783 62.4193 62.8315C67.3156 63.3172 68.7967 55.0478 68.7967 55.0478C68.7967 55.0478 71.2448 59.6683 71.9793 61.3744L72.7137 63.0744C72.7137 63.0744 74.6784 63.3172 76.6369 59.1825C78.5954 55.0478 76.3798 48.5209 71.7222 47.7741Z" fill="#020901" stroke="#020901" stroke-linecap="round" stroke-linejoin="round"/>
<path d="M68.5156 53.1055C68.5156 53.1055 74.5381 55.1576 74.7217 58.7034C74.9053 62.2492 73.9689 62.4313 73.9689 62.4313" stroke="white" stroke-width="0.5" stroke-miterlimit="10" stroke-linecap="round"/>
<path d="M67.7695 51.8001C67.7695 51.8001 73.4064 50.4947 75.2915 54.2287" stroke="white" stroke-width="0.5" stroke-miterlimit="10" stroke-linecap="round"/>
<path d="M60.8113 48.0654C60.8113 48.0654 66.4482 50.8644 67.3907 53.4812C68.3333 56.0981 63.4431 61.1253 60.2422 62.0603C57.0412 62.9953 54.6053 61.8721 52.3469 63.5539C50.0885 65.2357 51.031 69.8926 51.031 69.8926" stroke="white" stroke-width="0.5" stroke-miterlimit="10" stroke-linecap="round"/>
<path d="M49.3186 64.6717C49.3186 64.6717 47.813 61.1259 51.0139 59.262C54.2149 57.398 57.0303 59.262 60.6045 57.0216C64.1788 54.7812 64.7419 51.9883 64.7419 51.9883" stroke="white" stroke-width="0.5" stroke-miterlimit="10" stroke-linecap="round"/>
<path d="M57.5969 67.8891C57.5969 67.8891 55.62 63.1229 53.637 64.8047C51.654 66.4866 55.0508 70.9734 57.3092 70.4148" fill="white"/>
<path d="M57.5969 67.8891C57.5969 67.8891 55.62 63.1229 53.637 64.8047C51.654 66.4866 55.0508 70.9734 57.3092 70.4148" stroke="#020901" stroke-linecap="round" stroke-linejoin="round"/>
<g opacity="0.37">
<path d="M57.5969 67.8891C57.5969 67.8891 55.62 63.1229 53.637 64.8047C51.654 66.4866 55.0508 70.9734 57.3092 70.4148" fill="#2A5F61"/>
<path d="M57.5969 67.8891C57.5969 67.8891 55.62 63.1229 53.637 64.8047C51.654 66.4866 55.0508 70.9734 57.3092 70.4148" stroke="#020901" stroke-linecap="round" stroke-linejoin="round"/>
</g>
<path d="M45.523 87.7188C45.523 87.7188 44.5621 87.0024 42.4261 88.5992C40.2901 90.196 38.3009 97.4576 39.6352 100.536C40.9694 103.614 44.5315 119.619 46.1901 120.493C47.8487 121.367 65.6834 121.294 67.7888 120.803C69.8942 120.311 71.3631 117.579 71.0081 115.217C70.6531 112.855 68.3029 112.242 67.6113 112.224C66.9197 112.205 52.7144 111.404 52.7144 111.404L48.3016 92.91" fill="white"/>
<mask id="mask8_261_1724" style="mask-type:luminance" maskUnits="userSpaceOnUse" x="39" y="87" width="33" height="35">
<path d="M45.523 87.7179C45.523 87.7179 44.5621 87.0014 42.4261 88.5982C40.2901 90.1951 38.3009 97.4566 39.6352 100.535C40.9694 103.613 44.5315 119.618 46.1901 120.492C47.8487 121.366 65.6834 121.293 67.7888 120.802C69.8942 120.31 71.3631 117.578 71.0081 115.216C70.6531 112.854 68.3029 112.241 67.6113 112.223C66.9197 112.204 52.7144 111.403 52.7144 111.403L48.3016 92.909" fill="white"/>
</mask>
<g mask="url(#mask8_261_1724)">
<g style="mix-blend-mode:multiply" opacity="0.5">
<path d="M68.3519 116.837C67.3359 115.592 51.1659 117.76 49.44 116.837C47.7141 115.914 46.8817 114.16 48.1425 112.976C49.4033 111.792 45.7311 111.525 45.7617 110.48C45.7923 109.436 47.8977 109.151 47.763 107.754C47.6284 106.358 43.0809 106.066 43.1911 102.071C43.3013 98.0761 44.3111 93.2432 45.2231 91.8771C45.7281 91.301 46.3085 90.7946 46.949 90.3713L45.523 87.712C45.523 87.712 44.5621 86.9956 42.4261 88.5924C40.2901 90.1892 38.3009 97.4568 39.6352 100.535C40.9694 103.613 44.5315 119.618 46.1901 120.492C47.8487 121.366 65.6834 121.294 67.7888 120.802C68.4694 120.586 69.0879 120.211 69.5926 119.71C70.0974 119.208 70.4736 118.593 70.6899 117.918C69.5576 117.596 68.6518 117.201 68.3519 116.837Z" fill="#2A5F61"/>
</g>
</g>
<path d="M45.523 87.7188C45.523 87.7188 44.5621 87.0024 42.4261 88.5992C40.2901 90.196 38.3009 97.4576 39.6352 100.536C40.9694 103.614 44.5315 119.619 46.1901 120.493C47.8487 121.367 65.6834 121.294 67.7888 120.803C69.8942 120.311 71.3631 117.579 71.0081 115.217C70.6531 112.855 68.3029 112.242 67.6113 112.224C66.9197 112.205 52.7144 111.404 52.7144 111.404L48.3016 92.91" stroke="#020901" stroke-linecap="round" stroke-linejoin="round"/>
<path d="M47.3086 114.816C48.3613 111.744 52.7067 111.683 52.7067 111.683C50.9736 111.233 49.1615 111.169 47.4004 111.495" stroke="#020901" stroke-width="0.5" stroke-linecap="round" stroke-linejoin="round"/>
<path d="M70.2359 112.988C69.5928 113.261 69.044 113.715 68.6569 114.293C68.2699 114.871 68.0614 115.549 68.057 116.243C67.9836 118.732 69.6483 119.193 70.0584 119.479C70.4685 119.764 72.9411 121.082 73.9387 120.274C74.9363 119.467 76.1114 117.293 75.1628 115.472C74.2141 113.65 71.209 113.013 70.2359 112.988Z" fill="white"/>
<mask id="mask9_261_1724" style="mask-type:luminance" maskUnits="userSpaceOnUse" x="68" y="112" width="8" height="9">
<path d="M70.2359 112.988C69.5928 113.261 69.044 113.715 68.6569 114.293C68.2699 114.871 68.0614 115.549 68.057 116.243C67.9836 118.732 69.6483 119.193 70.0584 119.479C70.4685 119.764 72.9411 121.082 73.9387 120.274C74.9363 119.467 76.1114 117.293 75.1628 115.472C74.2141 113.65 71.209 113.013 70.2359 112.988Z" fill="white"/>
</mask>
<g mask="url(#mask9_261_1724)">
<g style="mix-blend-mode:multiply" opacity="0.5">
<path d="M73.938 120.275C74.1922 120.061 74.4184 119.816 74.6113 119.546L72.5304 118.447C70.6208 117.925 68.8031 117.391 68.3502 116.838C68.2713 116.756 68.1721 116.695 68.0625 116.662C68.1788 118.787 69.666 119.212 70.0577 119.479C70.4494 119.746 72.9404 121.082 73.938 120.275Z" fill="#2A5F61"/>
</g>
</g>
<path d="M70.2359 112.988C69.5928 113.261 69.044 113.715 68.6569 114.293C68.2699 114.871 68.0614 115.549 68.057 116.243C67.9836 118.732 69.6483 119.193 70.0584 119.479C70.4685 119.764 72.9411 121.082 73.9387 120.274C74.9363 119.467 76.1114 117.293 75.1628 115.472C74.2141 113.65 71.209 113.013 70.2359 112.988Z" stroke="#020901" stroke-linecap="round" stroke-linejoin="round"/>
<path d="M73.6823 115.217C73.6823 115.217 72.1645 115.794 71.9564 116.929C71.7483 118.064 71.8218 118.678 72.0849 118.75C72.3481 118.823 73.2233 119.218 73.2233 119.218L75.9224 120.608C75.9224 120.608 78.0645 123.037 78.7684 123.231C79.4722 123.426 78.8663 122.97 78.7684 122.442C78.462 121.685 78.0655 120.968 77.5871 120.305L80.782 123.11C80.782 123.11 81.8347 123.486 81.5898 122.691C81.345 121.895 79.7109 120.262 79.7109 120.262L82.7282 122.976C82.7282 122.976 83.3403 123.255 83.3403 122.903C83.3746 122.727 83.3623 122.545 83.3043 122.374C83.2464 122.204 83.1449 122.052 83.0098 121.932C82.667 121.659 80.6106 119.321 80.6106 119.321L83.4749 121.064C83.4749 121.064 84.0869 121.871 84.5154 121.883C84.9438 121.895 84.699 121.622 84.3746 120.669C84.0502 119.716 81.8714 118.319 81.0941 117.773C80.3168 117.226 76.0693 115.284 73.6823 115.217Z" fill="white" stroke="#020901" stroke-linecap="round" stroke-linejoin="round"/>
<path d="M210.621 114.488H186.715L191.017 100.645H214.924L210.621 114.488Z" fill="#020901" stroke="#020901" stroke-linecap="round" stroke-linejoin="round"/>
<path d="M208.74 115.793H184.84L189.142 101.944H213.042L208.74 115.793Z" fill="white" stroke="#020901" stroke-linecap="round" stroke-linejoin="round"/>
<path d="M174.391 110.312H213.781C214.755 110.312 215.689 110.695 216.378 111.379C217.067 112.062 217.453 112.988 217.453 113.954V124.142H174.391V110.312Z" fill="#020901" stroke="#020901" stroke-linecap="round" stroke-linejoin="round"/>
<path d="M210.405 110.312H167.324V124.161H210.405V110.312Z" fill="white" stroke="#020901" stroke-linecap="round" stroke-linejoin="round"/>
<path d="M200.712 120.444H166.297V122.272H200.712V120.444Z" fill="white" stroke="#020901" stroke-linecap="round" stroke-linejoin="round"/>
<path d="M200.711 118.616H173.641V120.444H200.711V118.616Z" fill="#020901" stroke="#020901" stroke-linecap="round" stroke-linejoin="round"/>
<path d="M166.437 122.812H139.281V124.069H166.437V122.812Z" fill="white" stroke="#020901" stroke-linecap="round" stroke-linejoin="round"/>
<path d="M187.316 78.3262H128.781V115.775H187.316V78.3262Z" fill="white" stroke="#020901" stroke-linecap="round" stroke-linejoin="round"/>
<path d="M187.317 78.3262H131.977V115.775H187.317V78.3262Z" fill="#020901" stroke="#020901" stroke-linecap="round" stroke-linejoin="round"/>
<path d="M167.064 95.7275H154.254V124.64H167.064V95.7275Z" fill="white" stroke="#020901" stroke-linecap="round" stroke-linejoin="round"/>
<path d="M168.247 95.7275H155.438V124.64H168.247V95.7275Z" fill="#020901" stroke="#020901" stroke-linecap="round" stroke-linejoin="round"/>
<path d="M154.586 96.0674H168.546V115.867" stroke="white" stroke-linejoin="round"/>
<path d="M128.381 122.139H89.168V124.173H128.381V122.139Z" fill="white" stroke="#020901" stroke-linecap="round" stroke-linejoin="round"/>
<path d="M138.514 122.139H99.3008V124.173H138.514V122.139Z" fill="white" stroke="#020901" stroke-linecap="round" stroke-linejoin="round"/>
<path d="M87.6543 127.524H27.5708L24.7187 214.626C24.703 214.868 24.7358 215.11 24.8153 215.338C24.8948 215.567 25.0194 215.777 25.1817 215.957C25.3441 216.138 25.541 216.284 25.7609 216.388C25.9809 216.492 26.2196 216.552 26.463 216.563C26.9131 216.55 27.342 216.37 27.665 216.059C27.9879 215.748 28.1814 215.328 28.2073 214.882L33.942 143.705C34.0148 142.436 34.564 141.239 35.4816 140.351C36.3991 139.464 37.6185 138.949 38.8995 138.909H76.3255C77.6059 138.949 78.8245 139.464 79.7411 140.352C80.6576 141.24 81.2056 142.436 81.2769 143.705L87.0178 214.869C87.0435 215.314 87.2362 215.734 87.5578 216.045C87.8795 216.356 88.3069 216.537 88.756 216.551C88.9993 216.54 89.2381 216.482 89.4584 216.378C89.6786 216.275 89.876 216.129 90.0389 215.95C90.2018 215.77 90.327 215.56 90.4073 215.332C90.4875 215.103 90.5212 214.862 90.5064 214.62L87.6543 127.524Z" fill="#2A5F61" stroke="#020901" stroke-linecap="round" stroke-linejoin="round"/>
<path d="M87.7903 131.532L87.6557 127.524H68.0032H47.2246H27.5721L27.4375 131.532H87.7903Z" fill="#020901" stroke="#020901" stroke-linecap="round" stroke-linejoin="round"/>
<path d="M224.483 127.524H164.381L161.535 214.626C161.52 214.867 161.553 215.109 161.633 215.336C161.713 215.564 161.838 215.774 162 215.954C162.162 216.133 162.359 216.279 162.578 216.383C162.798 216.486 163.036 216.546 163.279 216.557C163.728 216.543 164.155 216.362 164.477 216.051C164.799 215.74 164.991 215.32 165.017 214.875L170.77 143.705C170.843 142.436 171.392 141.239 172.31 140.351C173.227 139.464 174.447 138.949 175.728 138.909H213.154C214.434 138.949 215.653 139.464 216.569 140.352C217.486 141.24 218.034 142.436 218.105 143.705L223.846 214.869C223.869 215.317 224.06 215.739 224.382 216.053C224.704 216.366 225.133 216.549 225.584 216.563C225.827 216.552 226.065 216.492 226.285 216.389C226.504 216.285 226.701 216.139 226.863 215.96C227.025 215.78 227.15 215.57 227.23 215.342C227.31 215.115 227.343 214.873 227.329 214.633L224.483 127.524Z" fill="#2A5F61" stroke="#020901" stroke-linecap="round" stroke-linejoin="round"/>
<path d="M224.878 131.532L224.749 127.524H205.097H184.312H164.66L164.531 131.532H224.878Z" fill="#020901" stroke="#020901" stroke-linecap="round" stroke-linejoin="round"/>
<path d="M228.441 124.16H22.6992V128.75H228.441V124.16Z" fill="white" stroke="#020901" stroke-linecap="round" stroke-linejoin="round"/>
<path d="M228.448 124.16H80.9844V128.75H228.448V124.16Z" fill="white" stroke="#020901" stroke-linecap="round" stroke-linejoin="round"/>
</svg>
