<svg width="261" height="218" viewBox="0 0 261 218" fill="none" xmlns="http://www.w3.org/2000/svg">
<path d="M29.9003 43.9629C19.8634 57.6944 13.4097 77.8707 18.304 94.7696C26.6671 123.651 62.156 125.827 86.4623 129.17C103.214 131.475 119.87 144.877 134.197 153.193C153.29 164.282 184.006 181.777 206.027 170.416C224.281 161.005 234.095 138.238 239.696 119.35C248.473 89.7757 249.319 54.0996 230.213 28.3336C204.207 -6.64297 158.713 -0.813549 120.914 5.17132C95.6146 9.18067 71.0219 13.0864 48.5294 26.7337C41.2675 31.175 34.9371 37.0297 29.9003 43.9629Z" fill="#2A5F61"/>
<path opacity="0.4" d="M29.9003 43.9629C19.8634 57.6944 13.4097 77.8707 18.304 94.7696C26.6671 123.651 62.156 125.827 86.4623 129.17C103.214 131.475 119.87 144.877 134.197 153.193C153.29 164.282 184.006 181.777 206.027 170.416C224.281 161.005 234.095 138.238 239.696 119.35C248.473 89.7757 249.319 54.0996 230.213 28.3336C204.207 -6.64297 158.713 -0.813549 120.914 5.17132C95.6146 9.18067 71.0219 13.0864 48.5294 26.7337C41.2675 31.175 34.9371 37.0297 29.9003 43.9629Z" fill="white"/>
<path d="M0.585938 208.975C0.585938 211.28 58.7009 213.152 130.423 213.152C202.146 213.152 260.261 211.28 260.261 208.975C260.261 206.669 202.146 204.797 130.455 204.797C58.7646 204.797 0.585938 206.669 0.585938 208.975Z" fill="#2A5F61"/>
<path opacity="0.6" d="M0.585938 208.975C0.585938 211.28 58.7009 213.152 130.423 213.152C202.146 213.152 260.261 211.28 260.261 208.975C260.261 206.669 202.146 204.797 130.455 204.797C58.7646 204.797 0.585938 206.669 0.585938 208.975Z" fill="white"/>
<path d="M145.076 2.03613H29.7812V150.868H145.076V2.03613Z" fill="white" stroke="#020901" stroke-width="0.75" stroke-linecap="round" stroke-linejoin="round"/>
<path d="M145.076 2.03613H29.7812V10.9163H145.076V2.03613Z" fill="#020901" stroke="#020901" stroke-width="0.75" stroke-linecap="round" stroke-linejoin="round"/>
<path d="M52.5548 105.838H33.0664V147.933H52.5548V105.838Z" fill="#2A5F61"/>
<path opacity="0.6" d="M52.5548 105.838H33.0664V147.933H52.5548V105.838Z" fill="white"/>
<path d="M73.8048 105.838H54.3164V147.933H73.8048V105.838Z" fill="#2A5F61"/>
<path opacity="0.6" d="M73.8048 105.838H54.3164V147.933H73.8048V105.838Z" fill="white"/>
<path d="M96.3868 105.838H76.8984V147.933H96.3868V105.838Z" fill="#2A5F61"/>
<path opacity="0.6" d="M96.3868 105.838H76.8984V147.933H96.3868V105.838Z" fill="white"/>
<path d="M118.961 105.838H99.4727V147.933H118.961V105.838Z" fill="#2A5F61"/>
<path opacity="0.6" d="M118.961 105.838H99.4727V147.933H118.961V105.838Z" fill="white"/>
<path d="M142.09 105.838H122.602V147.933H142.09V105.838Z" fill="white" stroke="#020901" stroke-width="0.75" stroke-linecap="round" stroke-linejoin="round"/>
<path d="M141.781 5.54688H33.0742V15.7484H141.781V5.54688Z" fill="#2A5F61"/>
<path opacity="0.6" d="M141.781 5.54688H33.0742V15.7484H141.781V5.54688Z" fill="white"/>
<path d="M140.253 7.52832H35.0273V12.0429H140.253V7.52832Z" fill="white"/>
<path d="M140.247 7.52832H128.332V12.0429H140.247V7.52832Z" fill="#020901" stroke="#020901" stroke-width="0.75" stroke-linecap="round" stroke-linejoin="round"/>
<path d="M81.4556 24.8934H59.1795C58.9517 24.8934 58.7331 24.8012 58.572 24.6373C58.4108 24.4733 58.3203 24.2509 58.3203 24.0189C58.3203 23.787 58.4108 23.5646 58.572 23.4006C58.7331 23.2367 58.9517 23.1445 59.1795 23.1445H81.4556C81.6835 23.1445 81.902 23.2367 82.0631 23.4006C82.2243 23.5646 82.3148 23.787 82.3148 24.0189C82.3148 24.2509 82.2243 24.4733 82.0631 24.6373C81.902 24.8012 81.6835 24.8934 81.4556 24.8934Z" fill="#020901"/>
<path d="M81.4552 30.9888H59.1792C59.0606 30.9992 58.9411 30.9844 58.8284 30.9453C58.7157 30.9063 58.6122 30.8438 58.5245 30.7619C58.4367 30.68 58.3667 30.5804 58.3188 30.4695C58.2708 30.3586 58.2461 30.2387 58.2461 30.1176C58.2461 29.9964 58.2708 29.8766 58.3188 29.7656C58.3667 29.6547 58.4367 29.5551 58.5245 29.4732C58.6122 29.3913 58.7157 29.3289 58.8284 29.2898C58.9411 29.2508 59.0606 29.236 59.1792 29.2464H81.4552C81.6695 29.2652 81.8691 29.3652 82.0145 29.5265C82.1599 29.6878 82.2406 29.8987 82.2406 30.1176C82.2406 30.3365 82.1599 30.5474 82.0145 30.7087C81.8691 30.87 81.6695 30.9699 81.4552 30.9888Z" fill="#020901"/>
<path d="M81.4556 37.0906H59.1795C58.9517 37.0906 58.7331 36.9985 58.572 36.8345C58.4108 36.6705 58.3203 36.4481 58.3203 36.2162C58.3203 35.9843 58.4108 35.7619 58.572 35.5979C58.7331 35.4339 58.9517 35.3418 59.1795 35.3418H81.4556C81.6835 35.3418 81.902 35.4339 82.0631 35.5979C82.2243 35.7619 82.3148 35.9843 82.3148 36.2162C82.3148 36.4481 82.2243 36.6705 82.0631 36.8345C81.902 36.9985 81.6835 37.0906 81.4556 37.0906Z" fill="#020901"/>
<path d="M81.4552 43.1847H35.2228C35.0085 43.1659 34.809 43.066 34.6636 42.9047C34.5182 42.7434 34.4375 42.5325 34.4375 42.3136C34.4375 42.0947 34.5182 41.8837 34.6636 41.7224C34.809 41.5611 35.0085 41.4612 35.2228 41.4424H81.4552C81.6694 41.4612 81.869 41.5611 82.0144 41.7224C82.1598 41.8837 82.2405 42.0947 82.2405 42.3136C82.2405 42.5325 82.1598 42.7434 82.0144 42.9047C81.869 43.066 81.6694 43.1659 81.4552 43.1847Z" fill="#020901"/>
<path d="M81.4548 49.2869H35.2225C34.9946 49.2869 34.7761 49.1948 34.6149 49.0308C34.4538 48.8668 34.3633 48.6444 34.3633 48.4125C34.3633 48.1806 34.4538 47.9582 34.6149 47.7942C34.7761 47.6302 34.9946 47.5381 35.2225 47.5381H81.4548C81.6827 47.5381 81.9012 47.6302 82.0624 47.7942C82.2235 47.9582 82.314 48.1806 82.314 48.4125C82.314 48.6444 82.2235 48.8668 82.0624 49.0308C81.9012 49.1948 81.6827 49.2869 81.4548 49.2869Z" fill="#020901"/>
<path d="M81.4548 55.3885H35.2225C34.9946 55.3885 34.7761 55.2963 34.6149 55.1324C34.4538 54.9684 34.3633 54.746 34.3633 54.5141C34.3633 54.2821 34.4538 54.0597 34.6149 53.8958C34.7761 53.7318 34.9946 53.6396 35.2225 53.6396H81.4548C81.6827 53.6396 81.9012 53.7318 82.0624 53.8958C82.2235 54.0597 82.314 54.2821 82.314 54.5141C82.314 54.746 82.2235 54.9684 82.0624 55.1324C81.9012 55.2963 81.6827 55.3885 81.4548 55.3885Z" fill="#020901"/>
<path d="M81.4552 61.4826H35.2228C35.0085 61.4638 34.809 61.3638 34.6636 61.2025C34.5182 61.0412 34.4375 60.8303 34.4375 60.6114C34.4375 60.3925 34.5182 60.1816 34.6636 60.0203C34.809 59.859 35.0085 59.7591 35.2228 59.7402H81.4552C81.6694 59.7591 81.869 59.859 82.0144 60.0203C82.1598 60.1816 82.2405 60.3925 82.2405 60.6114C82.2405 60.8303 82.1598 61.0412 82.0144 61.2025C81.869 61.3638 81.6694 61.4638 81.4552 61.4826Z" fill="#020901"/>
<path d="M81.4552 66.9045H35.2228C35.0085 66.8856 34.809 66.7857 34.6636 66.6244C34.5182 66.4631 34.4375 66.2522 34.4375 66.0333C34.4375 65.8144 34.5182 65.6035 34.6636 65.4422C34.809 65.2809 35.0085 65.1809 35.2228 65.1621H81.4552C81.6694 65.1809 81.869 65.2809 82.0144 65.4422C82.1598 65.6035 82.2405 65.8144 82.2405 66.0333C82.2405 66.2522 82.1598 66.4631 82.0144 66.6244C81.869 66.7857 81.6694 66.8856 81.4552 66.9045Z" fill="#020901"/>
<path d="M81.4548 73.0252H35.2225C34.9946 73.0252 34.7761 72.9331 34.6149 72.7691C34.4538 72.6051 34.3633 72.3827 34.3633 72.1508C34.3633 71.9189 34.4538 71.6965 34.6149 71.5325C34.7761 71.3685 34.9946 71.2764 35.2225 71.2764H81.4548C81.6827 71.2764 81.9012 71.3685 82.0624 71.5325C82.2235 71.6965 82.314 71.9189 82.314 72.1508C82.314 72.3827 82.2235 72.6051 82.0624 72.7691C81.9012 72.9331 81.6827 73.0252 81.4548 73.0252Z" fill="#020901"/>
<path d="M81.4552 79.1007H35.2228C35.0085 79.0819 34.809 78.982 34.6636 78.8207C34.5182 78.6594 34.4375 78.4485 34.4375 78.2296C34.4375 78.0107 34.5182 77.7998 34.6636 77.6385C34.809 77.4772 35.0085 77.3772 35.2228 77.3584H81.4552C81.6694 77.3772 81.869 77.4772 82.0144 77.6385C82.1598 77.7998 82.2405 78.0107 82.2405 78.2296C82.2405 78.4485 82.1598 78.6594 82.0144 78.8207C81.869 78.982 81.6694 79.0819 81.4552 79.1007Z" fill="#020901"/>
<path d="M81.4548 85.2019H35.2225C34.9946 85.2019 34.7761 85.1098 34.6149 84.9458C34.4538 84.7818 34.3633 84.5594 34.3633 84.3275C34.3633 84.0956 34.4538 83.8732 34.6149 83.7092C34.7761 83.5452 34.9946 83.4531 35.2225 83.4531H81.4548C81.6827 83.4531 81.9012 83.5452 82.0624 83.7092C82.2235 83.8732 82.314 84.0956 82.314 84.3275C82.314 84.5594 82.2235 84.7818 82.0624 84.9458C81.9012 85.1098 81.6827 85.2019 81.4548 85.2019Z" fill="#020901"/>
<path d="M81.4552 91.297H35.2228C35.0085 91.2782 34.809 91.1783 34.6636 91.017C34.5182 90.8557 34.4375 90.6448 34.4375 90.4259C34.4375 90.207 34.5182 89.996 34.6636 89.8347C34.809 89.6734 35.0085 89.5735 35.2228 89.5547H81.4552C81.6694 89.5735 81.869 89.6734 82.0144 89.8347C82.1598 89.996 82.2405 90.207 82.2405 90.4259C82.2405 90.6448 82.1598 90.8557 82.0144 91.017C81.869 91.1783 81.6694 91.2782 81.4552 91.297Z" fill="#020901"/>
<path d="M81.4552 97.3986H35.2228C35.0085 97.3798 34.809 97.2798 34.6636 97.1185C34.5182 96.9572 34.4375 96.7463 34.4375 96.5274C34.4375 96.3085 34.5182 96.0976 34.6636 95.9363C34.809 95.775 35.0085 95.6751 35.2228 95.6562H81.4552C81.6694 95.6751 81.869 95.775 82.0144 95.9363C82.1598 96.0976 82.2405 96.3085 82.2405 96.5274C82.2405 96.7463 82.1598 96.9572 82.0144 97.1185C81.869 97.2798 81.6694 97.3798 81.4552 97.3986Z" fill="#020901"/>
<path d="M140.963 24.8934H94.7498C94.522 24.8934 94.3034 24.8012 94.1423 24.6373C93.9812 24.4733 93.8906 24.2509 93.8906 24.0189C93.8906 23.787 93.9812 23.5646 94.1423 23.4006C94.3034 23.2367 94.522 23.1445 94.7498 23.1445H140.963C141.191 23.1445 141.409 23.2367 141.571 23.4006C141.732 23.5646 141.822 23.787 141.822 24.0189C141.822 24.2509 141.732 24.4733 141.571 24.6373C141.409 24.8012 141.191 24.8934 140.963 24.8934Z" fill="#020901"/>
<path d="M140.963 30.9888H94.7495C94.6309 30.9992 94.5114 30.9844 94.3987 30.9453C94.286 30.9063 94.1825 30.8438 94.0948 30.7619C94.007 30.68 93.937 30.5804 93.8891 30.4695C93.8411 30.3586 93.8164 30.2387 93.8164 30.1176C93.8164 29.9964 93.8411 29.8766 93.8891 29.7656C93.937 29.6547 94.007 29.5551 94.0948 29.4732C94.1825 29.3913 94.286 29.3289 94.3987 29.2898C94.5114 29.2508 94.6309 29.236 94.7495 29.2464H140.963C141.081 29.236 141.201 29.2508 141.314 29.2898C141.426 29.3289 141.53 29.3913 141.617 29.4732C141.705 29.5551 141.775 29.6547 141.823 29.7656C141.871 29.8766 141.896 29.9964 141.896 30.1176C141.896 30.2387 141.871 30.3586 141.823 30.4695C141.775 30.5804 141.705 30.68 141.617 30.7619C141.53 30.8438 141.426 30.9063 141.314 30.9453C141.201 30.9844 141.081 30.9992 140.963 30.9888Z" fill="#020901"/>
<path d="M140.963 37.0906H94.7498C94.522 37.0906 94.3034 36.9985 94.1423 36.8345C93.9812 36.6705 93.8906 36.4481 93.8906 36.2162C93.8906 35.9843 93.9812 35.7619 94.1423 35.5979C94.3034 35.4339 94.522 35.3418 94.7498 35.3418H140.963C141.191 35.3418 141.409 35.4339 141.571 35.5979C141.732 35.7619 141.822 35.9843 141.822 36.2162C141.822 36.4481 141.732 36.6705 141.571 36.8345C141.409 36.9985 141.191 37.0906 140.963 37.0906Z" fill="#020901"/>
<path d="M140.963 43.185H94.7495C94.6309 43.1955 94.5114 43.1807 94.3987 43.1416C94.286 43.1026 94.1825 43.0401 94.0948 42.9582C94.007 42.8763 93.937 42.7767 93.8891 42.6658C93.8411 42.5549 93.8164 42.435 93.8164 42.3139C93.8164 42.1927 93.8411 42.0729 93.8891 41.9619C93.937 41.851 94.007 41.7514 94.0948 41.6695C94.1825 41.5876 94.286 41.5251 94.3987 41.4861C94.5114 41.4471 94.6309 41.4323 94.7495 41.4427H140.963C141.081 41.4323 141.201 41.4471 141.314 41.4861C141.426 41.5251 141.53 41.5876 141.617 41.6695C141.705 41.7514 141.775 41.851 141.823 41.9619C141.871 42.0729 141.896 42.1927 141.896 42.3139C141.896 42.435 141.871 42.5549 141.823 42.6658C141.775 42.7767 141.705 42.8763 141.617 42.9582C141.53 43.0401 141.426 43.1026 141.314 43.1416C141.201 43.1807 141.081 43.1955 140.963 43.185Z" fill="#020901"/>
<path d="M140.963 49.2869H94.7498C94.522 49.2869 94.3034 49.1948 94.1423 49.0308C93.9812 48.8668 93.8906 48.6444 93.8906 48.4125C93.8906 48.1806 93.9812 47.9582 94.1423 47.7942C94.3034 47.6302 94.522 47.5381 94.7498 47.5381H140.963C141.191 47.5381 141.409 47.6302 141.571 47.7942C141.732 47.9582 141.822 48.1806 141.822 48.4125C141.822 48.6444 141.732 48.8668 141.571 49.0308C141.409 49.1948 141.191 49.2869 140.963 49.2869Z" fill="#020901"/>
<path d="M140.963 55.3885H94.7498C94.637 55.3885 94.5253 55.3659 94.421 55.3219C94.3168 55.278 94.2221 55.2136 94.1423 55.1324C94.0625 55.0512 93.9992 54.9548 93.956 54.8487C93.9129 54.7426 93.8906 54.6289 93.8906 54.5141C93.8906 54.3992 93.9129 54.2855 93.956 54.1794C93.9992 54.0733 94.0625 53.977 94.1423 53.8958C94.2221 53.8146 94.3168 53.7501 94.421 53.7062C94.5253 53.6623 94.637 53.6396 94.7498 53.6396H140.963C141.076 53.6396 141.188 53.6623 141.292 53.7062C141.396 53.7501 141.491 53.8146 141.571 53.8958C141.65 53.977 141.714 54.0733 141.757 54.1794C141.8 54.2855 141.822 54.3992 141.822 54.5141C141.822 54.6289 141.8 54.7426 141.757 54.8487C141.714 54.9548 141.65 55.0512 141.571 55.1324C141.491 55.2136 141.396 55.278 141.292 55.3219C141.188 55.3659 141.076 55.3885 140.963 55.3885Z" fill="#020901"/>
<path d="M140.963 61.4829H94.7495C94.6309 61.4933 94.5114 61.4785 94.3987 61.4395C94.286 61.4004 94.1825 61.338 94.0948 61.2561C94.007 61.1741 93.937 61.0746 93.8891 60.9636C93.8411 60.8527 93.8164 60.7329 93.8164 60.6117C93.8164 60.4906 93.8411 60.3707 93.8891 60.2598C93.937 60.1489 94.007 60.0493 94.0948 59.9674C94.1825 59.8855 94.286 59.823 94.3987 59.784C94.5114 59.7449 94.6309 59.7301 94.7495 59.7405H140.963C141.081 59.7301 141.201 59.7449 141.314 59.784C141.426 59.823 141.53 59.8855 141.617 59.9674C141.705 60.0493 141.775 60.1489 141.823 60.2598C141.871 60.3707 141.896 60.4906 141.896 60.6117C141.896 60.7329 141.871 60.8527 141.823 60.9636C141.775 61.0746 141.705 61.1741 141.617 61.2561C141.53 61.338 141.426 61.4004 141.314 61.4395C141.201 61.4785 141.081 61.4933 140.963 61.4829Z" fill="#020901"/>
<path d="M141.797 65.583H94.6992V99.0115H141.797V65.583Z" fill="#2A5F61"/>
<path opacity="0.6" d="M141.797 65.583H94.6992V99.0115H141.797V65.583Z" fill="white"/>
<path d="M51.3394 26.6241C51.47 26.2183 51.5387 25.7945 51.5431 25.3675C51.5431 23.8066 49.9902 23.7159 48.4563 23.7159H48.0744V23.3467H54.7254V23.7159C52.9942 23.7159 52.3832 24.8364 51.8232 26.514L48.2845 37.3049C48.0171 38.1016 47.7944 38.6975 46.9606 38.6975H46.8906L43.7656 28.3924L40.8379 37.3049C40.5642 38.1016 40.3415 38.6975 39.5077 38.6975H39.4504L34.9061 23.7159H33.3086V23.3467H39.1576V23.7159H37.4965L40.8697 35.5366H41.0034L43.5492 27.654L42.359 23.7159H40.7615V23.3467H46.6106V23.7159H44.943L48.3226 35.5366H48.4563L51.3394 26.6241Z" fill="#020901"/>
<path d="M158.256 19.5244H110.254V150.563H158.256V19.5244Z" fill="#2A5F61"/>
<path opacity="0.4" d="M158.256 19.5244H110.254V150.563H158.256V19.5244Z" fill="white"/>
<path d="M229.138 14.6211H113.844V163.453H229.138V14.6211Z" fill="white" stroke="#020901" stroke-width="0.75" stroke-linecap="round" stroke-linejoin="round"/>
<path d="M229.138 14.6211H113.844V23.5012H229.138V14.6211Z" fill="#020901" stroke="#020901" stroke-width="0.75" stroke-linecap="round" stroke-linejoin="round"/>
<path d="M193.165 35.6973H152.68V112.717H193.165V35.6973Z" fill="#2A5F61"/>
<path opacity="0.6" d="M193.165 35.6973H152.68V112.717H193.165V35.6973Z" fill="white"/>
<path d="M225.848 118.418H117.141V160.513H225.848V118.418Z" fill="#2A5F61"/>
<path opacity="0.6" d="M225.848 118.418H117.141V160.513H225.848V118.418Z" fill="white"/>
<path d="M225.848 18.1318H117.141V28.3333H225.848V18.1318Z" fill="#2A5F61"/>
<path opacity="0.6" d="M225.848 18.1318H117.141V28.3333H225.848V18.1318Z" fill="white"/>
<path d="M224.319 20.1143H119.094V24.6288H224.319V20.1143Z" fill="white"/>
<path d="M224.313 20.1143H212.398V24.6288H224.313V20.1143Z" fill="#020901" stroke="#020901" stroke-width="0.75" stroke-linecap="round" stroke-linejoin="round"/>
<path d="M145.879 37.4731H118.136C118.018 37.4835 117.898 37.4688 117.785 37.4297C117.673 37.3907 117.569 37.3282 117.481 37.2463C117.394 37.1644 117.324 37.0648 117.276 36.9539C117.228 36.843 117.203 36.7231 117.203 36.602C117.203 36.4808 117.228 36.3609 117.276 36.25C117.324 36.1391 117.394 36.0395 117.481 35.9576C117.569 35.8757 117.673 35.8132 117.785 35.7742C117.898 35.7351 118.018 35.7204 118.136 35.7308H145.879C145.998 35.7204 146.118 35.7351 146.23 35.7742C146.343 35.8132 146.446 35.8757 146.534 35.9576C146.622 36.0395 146.692 36.1391 146.74 36.25C146.788 36.3609 146.813 36.4808 146.813 36.602C146.813 36.7231 146.788 36.843 146.74 36.9539C146.692 37.0648 146.622 37.1644 146.534 37.2463C146.446 37.3282 146.343 37.3907 146.23 37.4297C146.118 37.4688 145.998 37.4835 145.879 37.4731Z" fill="#020901"/>
<path d="M145.876 43.574H118.133C117.905 43.574 117.686 43.4819 117.525 43.3179C117.364 43.1539 117.273 42.9315 117.273 42.6996C117.273 42.4677 117.364 42.2453 117.525 42.0813C117.686 41.9173 117.905 41.8252 118.133 41.8252H145.876C146.104 41.8252 146.322 41.9173 146.483 42.0813C146.645 42.2453 146.735 42.4677 146.735 42.6996C146.735 42.9315 146.645 43.1539 146.483 43.3179C146.322 43.4819 146.104 43.574 145.876 43.574Z" fill="#020901"/>
<path d="M145.879 49.6684H118.136C118.018 49.6789 117.898 49.6641 117.785 49.625C117.673 49.586 117.569 49.5235 117.481 49.4416C117.394 49.3597 117.324 49.2601 117.276 49.1492C117.228 49.0383 117.203 48.9184 117.203 48.7973C117.203 48.6761 117.228 48.5563 117.276 48.4453C117.324 48.3344 117.394 48.2348 117.481 48.1529C117.569 48.071 117.673 48.0086 117.785 47.9695C117.898 47.9305 118.018 47.9157 118.136 47.9261H145.879C145.998 47.9157 146.118 47.9305 146.23 47.9695C146.343 48.0086 146.446 48.071 146.534 48.1529C146.622 48.2348 146.692 48.3344 146.74 48.4453C146.788 48.5563 146.813 48.6761 146.813 48.7973C146.813 48.9184 146.788 49.0383 146.74 49.1492C146.692 49.2601 146.622 49.3597 146.534 49.4416C146.446 49.5235 146.343 49.586 146.23 49.625C146.118 49.6641 145.998 49.6789 145.879 49.6684Z" fill="#020901"/>
<path d="M145.876 55.7703H118.133C118.02 55.7703 117.908 55.7477 117.804 55.7037C117.7 55.6598 117.605 55.5954 117.525 55.5142C117.445 55.433 117.382 55.3366 117.339 55.2305C117.296 55.1244 117.273 55.0107 117.273 54.8959C117.273 54.7811 117.296 54.6674 117.339 54.5613C117.382 54.4552 117.445 54.3588 117.525 54.2776C117.605 54.1964 117.7 54.132 117.804 54.088C117.908 54.0441 118.02 54.0215 118.133 54.0215H145.876C146.104 54.0215 146.322 54.1136 146.483 54.2776C146.645 54.4416 146.735 54.664 146.735 54.8959C146.735 55.1278 146.645 55.3502 146.483 55.5142C146.322 55.6782 146.104 55.7703 145.876 55.7703Z" fill="#020901"/>
<path d="M145.879 61.8657H118.136C118.018 61.8761 117.898 61.8613 117.785 61.8223C117.673 61.7832 117.569 61.7208 117.481 61.6389C117.394 61.557 117.324 61.4574 117.276 61.3465C117.228 61.2355 117.203 61.1157 117.203 60.9945C117.203 60.8734 117.228 60.7535 117.276 60.6426C117.324 60.5317 117.394 60.4321 117.481 60.3502C117.569 60.2683 117.673 60.2058 117.785 60.1668C117.898 60.1277 118.018 60.1129 118.136 60.1234H145.879C145.998 60.1129 146.118 60.1277 146.23 60.1668C146.343 60.2058 146.446 60.2683 146.534 60.3502C146.622 60.4321 146.692 60.5317 146.74 60.6426C146.788 60.7535 146.813 60.8734 146.813 60.9945C146.813 61.1157 146.788 61.2355 146.74 61.3465C146.692 61.4574 146.622 61.557 146.534 61.6389C146.446 61.7208 146.343 61.7832 146.23 61.8223C146.118 61.8613 145.998 61.8761 145.879 61.8657Z" fill="#020901"/>
<path d="M145.879 67.9673H118.136C118.018 67.9777 117.898 67.9629 117.785 67.9239C117.673 67.8848 117.569 67.8223 117.481 67.7404C117.394 67.6585 117.324 67.5589 117.276 67.448C117.228 67.3371 117.203 67.2173 117.203 67.0961C117.203 66.9749 117.228 66.8551 117.276 66.7442C117.324 66.6332 117.394 66.5337 117.481 66.4518C117.569 66.3698 117.673 66.3074 117.785 66.2683C117.898 66.2293 118.018 66.2145 118.136 66.2249H145.879C145.998 66.2145 146.118 66.2293 146.23 66.2683C146.343 66.3074 146.446 66.3698 146.534 66.4518C146.622 66.5337 146.692 66.6332 146.74 66.7442C146.788 66.8551 146.813 66.9749 146.813 67.0961C146.813 67.2173 146.788 67.3371 146.74 67.448C146.692 67.5589 146.622 67.6585 146.534 67.7404C146.446 67.8223 146.343 67.8848 146.23 67.9239C146.118 67.9629 145.998 67.9777 145.879 67.9673Z" fill="#020901"/>
<path d="M145.876 74.0682H118.133C118.02 74.0682 117.908 74.0455 117.804 74.0016C117.7 73.9577 117.605 73.8933 117.525 73.8121C117.445 73.7309 117.382 73.6345 117.339 73.5284C117.296 73.4223 117.273 73.3086 117.273 73.1937C117.273 73.0789 117.296 72.9652 117.339 72.8591C117.382 72.753 117.445 72.6566 117.525 72.5754C117.605 72.4942 117.7 72.4298 117.804 72.3859C117.908 72.3419 118.02 72.3193 118.133 72.3193H145.876C146.104 72.3193 146.322 72.4115 146.483 72.5754C146.645 72.7394 146.735 72.9618 146.735 73.1937C146.735 73.4257 146.645 73.6481 146.483 73.8121C146.322 73.976 146.104 74.0682 145.876 74.0682Z" fill="#020901"/>
<path d="M145.876 79.5027H118.133C117.905 79.5027 117.686 79.4106 117.525 79.2466C117.364 79.0826 117.273 78.8602 117.273 78.6283C117.273 78.3964 117.364 78.174 117.525 78.01C117.686 77.846 117.905 77.7539 118.133 77.7539H145.876C146.104 77.7539 146.322 77.846 146.483 78.01C146.645 78.174 146.735 78.3964 146.735 78.6283C146.735 78.8602 146.645 79.0826 146.483 79.2466C146.322 79.4106 146.104 79.5027 145.876 79.5027Z" fill="#020901"/>
<path d="M145.879 85.5845H118.136C118.018 85.5949 117.898 85.5801 117.785 85.541C117.673 85.502 117.569 85.4395 117.481 85.3576C117.394 85.2757 117.324 85.1761 117.276 85.0652C117.228 84.9543 117.203 84.8344 117.203 84.7133C117.203 84.5921 117.228 84.4723 117.276 84.3613C117.324 84.2504 117.394 84.1509 117.481 84.0689C117.569 83.987 117.673 83.9246 117.785 83.8855C117.898 83.8465 118.018 83.8317 118.136 83.8421H145.879C145.998 83.8317 146.118 83.8465 146.23 83.8855C146.343 83.9246 146.446 83.987 146.534 84.0689C146.622 84.1509 146.692 84.2504 146.74 84.3613C146.788 84.4723 146.813 84.5921 146.813 84.7133C146.813 84.8344 146.788 84.9543 146.74 85.0652C146.692 85.1761 146.622 85.2757 146.534 85.3576C146.446 85.4395 146.343 85.502 146.23 85.541C146.118 85.5801 145.998 85.5949 145.879 85.5845Z" fill="#020901"/>
<path d="M145.876 91.6863H118.133C117.905 91.6863 117.686 91.5942 117.525 91.4302C117.364 91.2662 117.273 91.0438 117.273 90.8119C117.273 90.58 117.364 90.3576 117.525 90.1936C117.686 90.0296 117.905 89.9375 118.133 89.9375H145.876C146.104 89.9375 146.322 90.0296 146.483 90.1936C146.645 90.3576 146.735 90.58 146.735 90.8119C146.735 91.0438 146.645 91.2662 146.483 91.4302C146.322 91.5942 146.104 91.6863 145.876 91.6863Z" fill="#020901"/>
<path d="M145.879 97.7807H118.136C118.018 97.7912 117.898 97.7764 117.785 97.7373C117.673 97.6983 117.569 97.6358 117.481 97.5539C117.394 97.472 117.324 97.3724 117.276 97.2615C117.228 97.1506 117.203 97.0307 117.203 96.9096C117.203 96.7884 117.228 96.6686 117.276 96.5576C117.324 96.4467 117.394 96.3471 117.481 96.2652C117.569 96.1833 117.673 96.1209 117.785 96.0818C117.898 96.0428 118.018 96.028 118.136 96.0384H145.879C145.998 96.028 146.118 96.0428 146.23 96.0818C146.343 96.1209 146.446 96.1833 146.534 96.2652C146.622 96.3471 146.692 96.4467 146.74 96.5576C146.788 96.6686 146.813 96.7884 146.813 96.9096C146.813 97.0307 146.788 97.1506 146.74 97.2615C146.692 97.3724 146.622 97.472 146.534 97.5539C146.446 97.6358 146.343 97.6983 146.23 97.7373C146.118 97.7764 145.998 97.7912 145.879 97.7807Z" fill="#020901"/>
<path d="M145.876 103.883H118.133C117.905 103.883 117.686 103.79 117.525 103.627C117.364 103.463 117.273 103.24 117.273 103.008C117.273 102.776 117.364 102.554 117.525 102.39C117.686 102.226 117.905 102.134 118.133 102.134H145.876C146.104 102.134 146.322 102.226 146.483 102.39C146.645 102.554 146.735 102.776 146.735 103.008C146.735 103.24 146.645 103.463 146.483 103.627C146.322 103.79 146.104 103.883 145.876 103.883Z" fill="#020901"/>
<path d="M145.879 109.978H118.136C118.018 109.988 117.898 109.974 117.785 109.935C117.673 109.896 117.569 109.833 117.481 109.751C117.394 109.669 117.324 109.57 117.276 109.459C117.228 109.348 117.203 109.228 117.203 109.107C117.203 108.986 117.228 108.866 117.276 108.755C117.324 108.644 117.394 108.544 117.481 108.463C117.569 108.381 117.673 108.318 117.785 108.279C117.898 108.24 118.018 108.225 118.136 108.236H145.879C145.998 108.225 146.118 108.24 146.23 108.279C146.343 108.318 146.446 108.381 146.534 108.463C146.622 108.544 146.692 108.644 146.74 108.755C146.788 108.866 146.813 108.986 146.813 109.107C146.813 109.228 146.788 109.348 146.74 109.459C146.692 109.57 146.622 109.669 146.534 109.751C146.446 109.833 146.343 109.896 146.23 109.935C146.118 109.974 145.998 109.988 145.879 109.978Z" fill="#020901"/>
<path d="M145.879 116.079H118.136C118.018 116.089 117.898 116.074 117.785 116.035C117.673 115.996 117.569 115.934 117.481 115.852C117.394 115.77 117.324 115.67 117.276 115.559C117.228 115.448 117.203 115.329 117.203 115.207C117.203 115.086 117.228 114.966 117.276 114.855C117.324 114.745 117.394 114.645 117.481 114.563C117.569 114.481 117.673 114.419 117.785 114.38C117.898 114.341 118.018 114.326 118.136 114.336H145.879C145.998 114.326 146.118 114.341 146.23 114.38C146.343 114.419 146.446 114.481 146.534 114.563C146.622 114.645 146.692 114.745 146.74 114.855C146.788 114.966 146.813 115.086 146.813 115.207C146.813 115.329 146.788 115.448 146.74 115.559C146.692 115.67 146.622 115.77 146.534 115.852C146.446 115.934 146.343 115.996 146.23 116.035C146.118 116.074 145.998 116.089 145.879 116.079Z" fill="#020901"/>
<path d="M225.637 37.4731H197.925C197.807 37.4835 197.687 37.4688 197.575 37.4297C197.462 37.3907 197.358 37.3282 197.271 37.2463C197.183 37.1644 197.113 37.0648 197.065 36.9539C197.017 36.843 196.992 36.7231 196.992 36.602C196.992 36.4808 197.017 36.3609 197.065 36.25C197.113 36.1391 197.183 36.0395 197.271 35.9576C197.358 35.8757 197.462 35.8132 197.575 35.7742C197.687 35.7351 197.807 35.7204 197.925 35.7308H225.669C225.787 35.7204 225.907 35.7351 226.019 35.7742C226.132 35.8132 226.236 35.8757 226.323 35.9576C226.411 36.0395 226.481 36.1391 226.529 36.25C226.577 36.3609 226.602 36.4808 226.602 36.602C226.602 36.7231 226.577 36.843 226.529 36.9539C226.481 37.0648 226.411 37.1644 226.323 37.2463C226.236 37.3282 226.132 37.3907 226.019 37.4297C225.907 37.4688 225.787 37.4835 225.669 37.4731H225.637Z" fill="#020901"/>
<path d="M225.637 43.574H197.926C197.813 43.574 197.701 43.5514 197.597 43.5075C197.493 43.4635 197.398 43.3991 197.318 43.3179C197.238 43.2367 197.175 43.1403 197.132 43.0342C197.089 42.9281 197.066 42.8144 197.066 42.6996C197.066 42.5848 197.089 42.4711 197.132 42.365C197.175 42.2589 197.238 42.1625 197.318 42.0813C197.398 42.0001 197.493 41.9357 197.597 41.8918C197.701 41.8478 197.813 41.8252 197.926 41.8252H225.669C225.897 41.8252 226.115 41.9173 226.276 42.0813C226.438 42.2453 226.528 42.4677 226.528 42.6996C226.528 42.9315 226.438 43.1539 226.276 43.3179C226.115 43.4819 225.897 43.574 225.669 43.574H225.637Z" fill="#020901"/>
<path d="M225.637 49.6684H197.925C197.807 49.6789 197.687 49.6641 197.575 49.625C197.462 49.586 197.358 49.5235 197.271 49.4416C197.183 49.3597 197.113 49.2601 197.065 49.1492C197.017 49.0383 196.992 48.9184 196.992 48.7973C196.992 48.6761 197.017 48.5563 197.065 48.4453C197.113 48.3344 197.183 48.2348 197.271 48.1529C197.358 48.071 197.462 48.0086 197.575 47.9695C197.687 47.9305 197.807 47.9157 197.925 47.9261H225.669C225.787 47.9157 225.907 47.9305 226.019 47.9695C226.132 48.0086 226.236 48.071 226.323 48.1529C226.411 48.2348 226.481 48.3344 226.529 48.4453C226.577 48.5563 226.602 48.6761 226.602 48.7973C226.602 48.9184 226.577 49.0383 226.529 49.1492C226.481 49.2601 226.411 49.3597 226.323 49.4416C226.236 49.5235 226.132 49.586 226.019 49.625C225.907 49.6641 225.787 49.6789 225.669 49.6684H225.637Z" fill="#020901"/>
<path d="M225.637 55.7703H197.926C197.813 55.7703 197.701 55.7477 197.597 55.7037C197.493 55.6598 197.398 55.5954 197.318 55.5142C197.238 55.433 197.175 55.3366 197.132 55.2305C197.089 55.1244 197.066 55.0107 197.066 54.8959C197.066 54.7811 197.089 54.6674 197.132 54.5613C197.175 54.4552 197.238 54.3588 197.318 54.2776C197.398 54.1964 197.493 54.132 197.597 54.088C197.701 54.0441 197.813 54.0215 197.926 54.0215H225.669C225.897 54.0215 226.115 54.1136 226.276 54.2776C226.438 54.4416 226.528 54.664 226.528 54.8959C226.528 55.1278 226.438 55.3502 226.276 55.5142C226.115 55.6782 225.897 55.7703 225.669 55.7703H225.637Z" fill="#020901"/>
<path d="M225.637 61.8657H197.925C197.807 61.8761 197.687 61.8613 197.575 61.8223C197.462 61.7832 197.358 61.7208 197.271 61.6389C197.183 61.557 197.113 61.4574 197.065 61.3465C197.017 61.2355 196.992 61.1157 196.992 60.9945C196.992 60.8734 197.017 60.7535 197.065 60.6426C197.113 60.5317 197.183 60.4321 197.271 60.3502C197.358 60.2683 197.462 60.2058 197.575 60.1668C197.687 60.1277 197.807 60.1129 197.925 60.1234H225.669C225.787 60.1129 225.907 60.1277 226.019 60.1668C226.132 60.2058 226.236 60.2683 226.323 60.3502C226.411 60.4321 226.481 60.5317 226.529 60.6426C226.577 60.7535 226.602 60.8734 226.602 60.9945C226.602 61.1157 226.577 61.2355 226.529 61.3465C226.481 61.4574 226.411 61.557 226.323 61.6389C226.236 61.7208 226.132 61.7832 226.019 61.8223C225.907 61.8613 225.787 61.8761 225.669 61.8657H225.637Z" fill="#020901"/>
<path d="M225.637 67.9673H197.925C197.807 67.9777 197.687 67.9629 197.575 67.9239C197.462 67.8848 197.358 67.8223 197.271 67.7404C197.183 67.6585 197.113 67.5589 197.065 67.448C197.017 67.3371 196.992 67.2173 196.992 67.0961C196.992 66.9749 197.017 66.8551 197.065 66.7442C197.113 66.6332 197.183 66.5337 197.271 66.4518C197.358 66.3698 197.462 66.3074 197.575 66.2683C197.687 66.2293 197.807 66.2145 197.925 66.2249H225.669C225.787 66.2145 225.907 66.2293 226.019 66.2683C226.132 66.3074 226.236 66.3698 226.323 66.4518C226.411 66.5337 226.481 66.6332 226.529 66.7442C226.577 66.8551 226.602 66.9749 226.602 67.0961C226.602 67.2173 226.577 67.3371 226.529 67.448C226.481 67.5589 226.411 67.6585 226.323 67.7404C226.236 67.8223 226.132 67.8848 226.019 67.9239C225.907 67.9629 225.787 67.9777 225.669 67.9673H225.637Z" fill="#020901"/>
<path d="M225.637 74.0682H197.926C197.813 74.0682 197.701 74.0455 197.597 74.0016C197.493 73.9577 197.398 73.8933 197.318 73.8121C197.238 73.7309 197.175 73.6345 197.132 73.5284C197.089 73.4223 197.066 73.3086 197.066 73.1937C197.066 73.0789 197.089 72.9652 197.132 72.8591C197.175 72.753 197.238 72.6566 197.318 72.5754C197.398 72.4942 197.493 72.4298 197.597 72.3859C197.701 72.3419 197.813 72.3193 197.926 72.3193H225.669C225.897 72.3193 226.115 72.4115 226.276 72.5754C226.438 72.7394 226.528 72.9618 226.528 73.1937C226.528 73.4257 226.438 73.6481 226.276 73.8121C226.115 73.976 225.897 74.0682 225.669 74.0682H225.637Z" fill="#020901"/>
<path d="M225.869 78.1621H197.234V111.591H225.869V78.1621Z" fill="#2A5F61"/>
<path opacity="0.6" d="M225.869 78.1621H197.234V111.591H225.869V78.1621Z" fill="white"/>
<path d="M240.144 138.697C239.972 132.116 240.475 120.885 234.798 116.26C229.814 112.199 225.938 117.711 224.544 122.155C221.152 132.939 221.515 173.525 222.393 181.699C222.393 181.699 221.527 173.512 215.207 177.022C208.887 180.533 218.39 198.96 218.39 198.96C218.39 198.96 210.918 193.403 207.468 198.08C204.018 202.756 211.783 208.028 211.783 208.028C211.783 208.028 204.598 205.982 204.598 208.028C204.598 210.075 206.895 211.83 213.508 212.711H249.15C249.15 212.711 254.878 209.473 253.751 205.982C252.625 202.49 246.54 204.511 246.54 204.511C246.54 204.511 255.737 193.105 255.158 188.131C254.579 183.156 242.798 189.005 242.798 189.005C242.798 189.005 252.001 165.312 250.276 154.78C248.914 146.483 242.588 152.189 239.145 155.35C239.954 149.839 240.289 144.267 240.144 138.697Z" fill="#2A5F61"/>
<path opacity="0.1" d="M240.144 138.697C239.972 132.116 240.475 120.885 234.798 116.26C229.814 112.199 225.938 117.711 224.544 122.155C221.152 132.939 221.515 173.525 222.393 181.699C222.393 181.699 221.527 173.512 215.207 177.022C208.887 180.533 218.39 198.96 218.39 198.96C218.39 198.96 210.918 193.403 207.468 198.08C204.018 202.756 211.783 208.028 211.783 208.028C211.783 208.028 204.598 205.982 204.598 208.028C204.598 210.075 206.895 211.83 213.508 212.711H249.15C249.15 212.711 254.878 209.473 253.751 205.982C252.625 202.49 246.54 204.511 246.54 204.511C246.54 204.511 255.737 193.105 255.158 188.131C254.579 183.156 242.798 189.005 242.798 189.005C242.798 189.005 252.001 165.312 250.276 154.78C248.914 146.483 242.588 152.189 239.145 155.35C239.954 149.839 240.289 144.267 240.144 138.697Z" fill="black"/>
<path d="M228.68 211.927L231.302 131.967" stroke="#2A5F61" stroke-width="1.72695" stroke-linecap="round" stroke-linejoin="round"/>
<path d="M230.152 178.778L243.664 165.901" stroke="#2A5F61" stroke-width="1.72695" stroke-linecap="round" stroke-linejoin="round"/>
<path d="M236.477 172.922L239.347 164.735" stroke="#2A5F61" stroke-width="1.72695" stroke-linecap="round" stroke-linejoin="round"/>
<path d="M218.945 188.72L229.097 199.737" stroke="#2A5F61" stroke-width="1.72695" stroke-linecap="round" stroke-linejoin="round"/>
<path d="M246.537 195.158L229.289 204.226" stroke="#2A5F61" stroke-width="1.72695" stroke-linecap="round" stroke-linejoin="round"/>
<path d="M237.848 199.628L243.665 200.133" stroke="#2A5F61" stroke-width="1.72695" stroke-linecap="round" stroke-linejoin="round"/>
<path d="M110.471 213.024C110.471 215.433 87.9082 217.389 60.0823 217.389C32.2563 217.389 9.6875 215.446 9.6875 213.024C9.6875 210.601 32.2499 208.658 60.0823 208.658C87.9146 208.658 110.471 210.614 110.471 213.024Z" fill="#020901"/>
<path d="M34.9913 132.843C34.9913 132.843 38.8865 130.835 40.5794 132.558C42.2724 134.281 41.5914 152.714 42.1006 158.57C42.409 162.062 43.042 165.517 43.9909 168.888C43.9909 168.888 38.4028 167.858 34.1703 165.649C34.1703 165.649 30.447 147.254 34.9913 132.843Z" fill="#020901" stroke="#020901" stroke-width="0.75" stroke-linecap="round" stroke-linejoin="round"/>
<path d="M112.544 174.588C112.086 174.587 111.642 174.429 111.283 174.139C110.924 173.849 110.673 173.444 110.569 172.99C110.465 172.536 110.515 172.06 110.71 171.639C110.906 171.217 111.236 170.875 111.647 170.669L130.047 162.249L144.329 145.531C144.676 145.112 145.172 144.85 145.708 144.803C146.245 144.757 146.778 144.929 147.19 145.282C147.602 145.635 147.859 146.14 147.905 146.686C147.951 147.232 147.782 147.774 147.435 148.193L132.879 165.241C132.705 165.459 132.488 165.637 132.242 165.766L113.454 174.374C113.172 174.519 112.86 174.592 112.544 174.588Z" fill="white" stroke="#020901" stroke-width="0.75" stroke-linecap="round" stroke-linejoin="round"/>
<path d="M125.125 167.288L127.143 166.355" stroke="#020901" stroke-width="0.75" stroke-linecap="round" stroke-linejoin="round"/>
<path d="M115.824 171.595L123.799 167.903" stroke="#020901" stroke-width="0.75" stroke-linecap="round" stroke-linejoin="round"/>
<path d="M143.096 150.992L137.781 157.107" stroke="#020901" stroke-width="0.75" stroke-linecap="round" stroke-linejoin="round"/>
<path d="M136.922 157.98L135.719 159.373" stroke="#020901" stroke-width="0.75" stroke-linecap="round" stroke-linejoin="round"/>
<path d="M114.997 182.014C117.248 172.354 111.377 162.666 101.885 160.376C92.3927 158.085 82.873 164.059 80.6222 173.72C78.3715 183.38 84.2419 193.068 93.7343 195.358C103.227 197.649 112.746 191.675 114.997 182.014Z" fill="#2A5F61" stroke="#020901" stroke-width="0.747671" stroke-linecap="round" stroke-linejoin="round"/>
<path d="M53.6588 111.333C53.6588 111.333 56.2046 117.408 56.7392 118.593C57.2739 119.779 57.783 120.103 57.6621 120.478C57.5412 120.854 56.2428 121.288 56.2428 121.288C56.4231 123.157 56.1043 125.041 55.3199 126.742C54.047 129.333 51.5648 130.686 51.323 132.312C51.1805 133.875 51.1592 135.448 51.2593 137.014L47.5042 133.88C47.5042 133.88 48.548 130.809 47.6252 128.555C46.8427 126.711 45.4483 125.204 43.6855 124.3C41.4907 122.834 39.9289 120.57 39.3194 117.972C38.7657 114.96 40.4841 111.767 42.7626 109.513C45.0411 107.258 49.5345 107.699 50.031 107.887C50.5274 108.075 48.7962 106.591 50.3365 106.255C51.8767 105.918 52.7996 108.198 52.8823 108.573C52.965 108.949 53.436 106.948 53.9325 108.262C54.4289 109.577 53.6588 111.333 53.6588 111.333Z" fill="white"/>
<mask id="mask0_261_1942" style="mask-type:luminance" maskUnits="userSpaceOnUse" x="39" y="106" width="19" height="32">
<path d="M53.6588 111.333C53.6588 111.333 56.2046 117.408 56.7392 118.593C57.2739 119.779 57.783 120.103 57.6621 120.478C57.5412 120.854 56.2428 121.288 56.2428 121.288C56.4231 123.157 56.1043 125.041 55.3199 126.742C54.047 129.333 51.5648 130.686 51.323 132.312C51.1805 133.875 51.1592 135.448 51.2593 137.014L47.5042 133.88C47.5042 133.88 48.548 130.809 47.6252 128.555C46.8427 126.711 45.4483 125.204 43.6855 124.3C41.4907 122.834 39.9289 120.57 39.3194 117.972C38.7657 114.96 40.4841 111.767 42.7626 109.513C45.0411 107.258 49.5345 107.699 50.031 107.887C50.5274 108.075 48.7962 106.591 50.3365 106.255C51.8767 105.918 52.7996 108.198 52.8823 108.573C52.965 108.949 53.436 106.948 53.9325 108.262C54.4289 109.577 53.6588 111.333 53.6588 111.333Z" fill="white"/>
</mask>
<g mask="url(#mask0_261_1942)">
<g style="mix-blend-mode:multiply" opacity="0.5">
<path d="M49.0699 135.207C49.0477 134.773 48.9988 134.34 48.9235 133.912C48.6753 132.772 50.1965 129.222 50.6674 125.045C51.1384 120.867 47.9243 115.031 47.9243 115.031L45.5694 108.081C44.5235 108.309 43.5554 108.814 42.7626 109.545C40.4841 111.799 38.7657 114.992 39.3194 118.004C39.9289 120.603 41.4907 122.866 43.6855 124.332C45.4483 125.237 46.8427 126.743 47.6252 128.588C48.548 130.842 47.5042 133.912 47.5042 133.912L49.0699 135.207Z" fill="#2A5F61"/>
</g>
</g>
<path d="M53.6588 111.333C53.6588 111.333 56.2046 117.408 56.7392 118.593C57.2739 119.779 57.783 120.103 57.6621 120.478C57.5412 120.854 56.2428 121.288 56.2428 121.288C56.4231 123.157 56.1043 125.041 55.3199 126.742C54.047 129.333 51.5648 130.686 51.323 132.312C51.1805 133.875 51.1592 135.448 51.2593 137.014L47.5042 133.88C47.5042 133.88 48.548 130.809 47.6252 128.555C46.8427 126.711 45.4483 125.204 43.6855 124.3C41.4907 122.834 39.9289 120.57 39.3194 117.972C38.7657 114.96 40.4841 111.767 42.7626 109.513C45.0411 107.258 49.5345 107.699 50.031 107.887C50.5274 108.075 48.7962 106.591 50.3365 106.255C51.8767 105.918 52.7996 108.198 52.8823 108.573C52.965 108.949 53.436 106.948 53.9325 108.262C54.4289 109.577 53.6588 111.333 53.6588 111.333Z" stroke="#020901" stroke-width="0.75" stroke-linecap="round" stroke-linejoin="round"/>
<path d="M53.9022 114.565C53.9022 114.565 52.7884 114.254 52.4192 115.212C52.3032 115.432 52.2378 115.676 52.2279 115.925C52.218 116.174 52.2638 116.422 52.3619 116.65" stroke="#020901" stroke-width="0.75" stroke-linecap="round" stroke-linejoin="round"/>
<path d="M55.1986 124.112C55.1986 124.112 54.0912 124.675 53.4102 123.924" stroke="#020901" stroke-width="0.75" stroke-linecap="round" stroke-linejoin="round"/>
<path d="M53.0283 118.858L47.8984 121.119" stroke="#020901" stroke-width="0.75" stroke-linecap="round" stroke-linejoin="round"/>
<path d="M45.7567 123.866C45.0642 124.904 44.7408 126.152 44.8402 127.403C44.993 129.54 44.9421 132.455 43.8665 132.196C42.7908 131.937 44.3756 128.653 44.3756 127.299C44.3121 126.268 44.0797 125.254 43.6883 124.3" stroke="#020901" stroke-width="0.75" stroke-linecap="round" stroke-linejoin="round"/>
<path d="M56.7718 117.214L55.5625 117.745" stroke="#020901" stroke-width="0.75" stroke-linecap="round" stroke-linejoin="round"/>
<path d="M54.7913 118.432C54.9504 118.983 54.9504 119.468 54.7913 119.514C54.6322 119.559 54.3776 119.151 54.2185 118.6C54.0594 118.05 54.0658 117.564 54.2185 117.512C54.3713 117.46 54.6386 117.875 54.7913 118.432Z" fill="#020901"/>
<path d="M55.4354 118.432C55.8619 119.728 55.7537 120.926 55.1936 121.12C54.6335 121.314 53.8316 120.414 53.4051 119.125C52.9787 117.836 53.0869 116.625 53.647 116.431C54.2071 116.236 55.009 117.137 55.4354 118.432Z" stroke="#020901" stroke-width="0.75" stroke-linecap="round" stroke-linejoin="round"/>
<path d="M46.9347 123.452C46.9347 123.452 45.9227 122.208 46.8328 122.312C47.1187 122.372 47.3832 122.51 47.5983 122.71C47.8135 122.911 47.9712 123.167 48.0548 123.452" stroke="#020901" stroke-width="0.5" stroke-linecap="round" stroke-linejoin="round"/>
<path d="M75.3869 144.715L71.8164 147.286L72.3701 150.292L76.4371 148.666L75.3869 144.715Z" fill="white" stroke="#020901" stroke-width="0.75" stroke-linecap="round" stroke-linejoin="round"/>
<path d="M72.1871 146.535L73.791 152.611C73.791 152.611 62.9966 157.624 60.8645 159.172C58.7324 160.72 57.0458 160.299 57.0458 160.299L55.6328 153.278C55.6328 153.278 57.1667 154.029 60.4317 152.591C63.6967 151.153 72.1871 146.535 72.1871 146.535Z" fill="white" stroke="#020901" stroke-width="0.75" stroke-linecap="round" stroke-linejoin="round"/>
<path d="M77.4886 162.346C77.2716 162.323 77.07 162.221 76.9205 162.06C76.7709 161.898 76.6834 161.687 76.6739 161.465L75.2483 137.429C75.2338 137.302 75.2452 137.173 75.2818 137.05C75.3183 136.928 75.3792 136.814 75.4607 136.717C75.5422 136.619 75.6426 136.54 75.7555 136.484C75.8685 136.427 75.9916 136.395 76.1172 136.39C76.2428 136.384 76.3683 136.404 76.4858 136.45C76.6033 136.496 76.7102 136.566 76.8001 136.655C76.8899 136.745 76.9607 136.852 77.0079 136.971C77.0552 137.089 77.078 137.217 77.0749 137.344L78.5006 161.375C78.5066 161.497 78.4888 161.62 78.4482 161.735C78.4076 161.851 78.345 161.957 78.264 162.048C78.183 162.139 78.0852 162.212 77.9761 162.265C77.8671 162.317 77.749 162.347 77.6286 162.353L77.4886 162.346Z" fill="#020901" stroke="#020901" stroke-width="0.75" stroke-linecap="round" stroke-linejoin="round"/>
<path d="M74.772 144.145C74.5453 144.136 74.3302 144.04 74.1684 143.879C74.0066 143.717 73.9096 143.499 73.8961 143.269C73.8827 143.038 73.9537 142.811 74.0955 142.631C74.2374 142.45 74.4399 142.33 74.6638 142.293L78.2344 141.852C78.3582 141.827 78.4858 141.828 78.6093 141.855C78.7328 141.882 78.8494 141.935 78.9519 142.01C79.0543 142.085 79.1404 142.181 79.2048 142.292C79.2691 142.402 79.3102 142.525 79.3256 142.653C79.341 142.781 79.3303 142.91 79.2942 143.033C79.2581 143.156 79.1974 143.271 79.1158 143.369C79.0343 143.467 78.9337 143.547 78.8203 143.604C78.707 143.66 78.5833 143.693 78.4571 143.698L74.8866 144.139L74.772 144.145Z" fill="white" stroke="#020901" stroke-width="0.75" stroke-linecap="round" stroke-linejoin="round"/>
<path d="M74.9556 146.023C74.7289 146.014 74.5138 145.918 74.352 145.757C74.1902 145.595 74.0932 145.377 74.0797 145.147C74.0663 144.916 74.1373 144.689 74.2791 144.509C74.421 144.328 74.6234 144.208 74.8474 144.171L78.418 143.73C78.659 143.703 78.901 143.773 79.0916 143.926C79.2822 144.079 79.406 144.302 79.4363 144.547C79.4505 144.667 79.4412 144.79 79.4089 144.907C79.3766 145.024 79.322 145.134 79.2481 145.229C79.1742 145.325 79.0826 145.405 78.9783 145.464C78.8741 145.524 78.7594 145.562 78.6407 145.576L75.0702 146.017L74.9556 146.023Z" fill="white" stroke="#020901" stroke-width="0.75" stroke-linecap="round" stroke-linejoin="round"/>
<path d="M75.152 147.733C74.9285 147.732 74.7138 147.645 74.5516 147.488C74.3893 147.332 74.2918 147.119 74.2788 146.892C74.2658 146.664 74.3384 146.441 74.4817 146.266C74.625 146.092 74.8283 145.98 75.0502 145.952L78.468 145.531C78.5832 145.516 78.7003 145.524 78.8125 145.554C78.9247 145.585 79.0298 145.638 79.1216 145.711C79.2135 145.783 79.2903 145.874 79.3476 145.977C79.4049 146.08 79.4416 146.193 79.4555 146.31C79.4694 146.428 79.4602 146.547 79.4286 146.661C79.3969 146.775 79.3434 146.881 79.271 146.973C79.1987 147.066 79.1091 147.143 79.0073 147.2C78.9055 147.257 78.7935 147.293 78.678 147.306L75.2602 147.727L75.152 147.733Z" fill="white" stroke="#020901" stroke-width="0.75" stroke-linecap="round" stroke-linejoin="round"/>
<path d="M75.7241 149.372C75.548 149.354 75.3849 149.269 75.2671 149.135C75.1492 149.001 75.0852 148.826 75.0877 148.646C75.0522 148.452 75.0875 148.252 75.1872 148.082C75.2868 147.913 75.4438 147.786 75.6287 147.727L78.0472 147.331C78.3909 147.286 78.6836 147.603 78.7346 148.057C78.773 148.251 78.7388 148.453 78.6388 148.623C78.5388 148.793 78.38 148.919 78.1936 148.977L75.7814 149.365L75.7241 149.372Z" fill="white" stroke="#020901" stroke-width="0.75" stroke-linecap="round" stroke-linejoin="round"/>
<path d="M74.4156 146.412C74.405 146.588 74.3312 146.755 74.2081 146.881C74.085 147.006 73.9211 147.081 73.7473 147.092C73.559 147.144 73.3583 147.124 73.1834 147.036C73.0085 146.948 72.8717 146.797 72.799 146.612L72.2389 144.19C72.1625 143.847 72.4489 143.51 72.8754 143.432C73.0628 143.383 73.2614 143.404 73.4345 143.492C73.6076 143.58 73.7436 143.729 73.8173 143.911L74.3838 146.34C74.3838 146.34 74.4092 146.386 74.4156 146.412Z" fill="white" stroke="#020901" stroke-width="0.75" stroke-linecap="round" stroke-linejoin="round"/>
<path d="M46.1488 132.001C46.1488 132.001 50.5213 134.695 52.5516 138.077C54.5819 141.458 56.3067 146.497 57.2932 150.921C58.2797 155.345 59.0753 166.893 59.6926 169.277C59.9914 170.542 60.4469 171.763 61.0483 172.911C57.4858 174.257 53.7026 174.894 49.9039 174.789C43.8703 174.536 42.9474 173.034 42.9474 173.034C42.9474 173.034 40.9171 159.38 41.1017 148.537C41.2863 137.694 46.1488 132.001 46.1488 132.001Z" fill="white"/>
<mask id="mask1_261_1942" style="mask-type:luminance" maskUnits="userSpaceOnUse" x="41" y="132" width="21" height="43">
<path d="M46.1488 132C46.1488 132 50.5213 134.694 52.5516 138.076C54.5819 141.457 56.3067 146.496 57.2932 150.92C58.2797 155.344 59.0753 166.892 59.6926 169.276C59.9914 170.541 60.4469 171.762 61.0483 172.91C57.4858 174.256 53.7026 174.893 49.9039 174.788C43.8703 174.535 42.9474 173.033 42.9474 173.033C42.9474 173.033 40.9171 159.379 41.1017 148.536C41.2863 137.693 46.1488 132 46.1488 132Z" fill="white"/>
</mask>
<g mask="url(#mask1_261_1942)">
<g style="mix-blend-mode:multiply" opacity="0.5">
<path d="M43.5712 144.274C43.5712 144.274 42.9347 145.291 43.4439 142.629C43.8559 140.767 44.5267 138.974 45.436 137.305L48.421 140.725L50.2922 140.855L49.7957 141.742L53.4044 144.022L51.6924 141.969L51.8133 138.834L48.9238 139.74C48.9238 139.74 47.0526 136.321 46.5561 135.206C46.2252 134.442 47.3326 133.794 48.1091 133.451C47.4799 132.953 46.8256 132.488 46.1488 132.059C46.1488 132.059 41.2863 137.758 41.1017 148.595C40.9553 157.19 42.2028 167.547 42.7247 171.472L52.2715 170.934L43.5712 144.274Z" fill="#2A5F61"/>
</g>
</g>
<path d="M46.1488 132.001C46.1488 132.001 50.5213 134.695 52.5516 138.077C54.5819 141.458 56.3067 146.497 57.2932 150.921C58.2797 155.345 59.0753 166.893 59.6926 169.277C59.9914 170.542 60.4469 171.763 61.0483 172.911C57.4858 174.257 53.7026 174.894 49.9039 174.789C43.8703 174.536 42.9474 173.034 42.9474 173.034C42.9474 173.034 40.9171 159.38 41.1017 148.537C41.2863 137.694 46.1488 132.001 46.1488 132.001Z" stroke="#020901" stroke-width="0.75" stroke-linecap="round" stroke-linejoin="round"/>
<path d="M44.8594 134.197L49.4164 139.768L51.8159 138.828L51.6949 141.963L55.3227 146.413" stroke="#020901" stroke-width="0.75" stroke-linecap="round" stroke-linejoin="round"/>
<path d="M42.0547 146.005C42.0547 146.005 42.5639 151.187 44.085 152.417" stroke="#020901" stroke-width="0.5" stroke-linecap="round" stroke-linejoin="round"/>
<path d="M42.3633 151.594C42.3633 151.594 42.9997 153.537 44.5972 154.185" stroke="#020901" stroke-width="0.5" stroke-linecap="round" stroke-linejoin="round"/>
<path d="M55.5749 148.796L52.9336 149.832L53.3409 150.972L55.7786 150.039" stroke="#020901" stroke-width="0.5" stroke-linecap="round" stroke-linejoin="round"/>
<path d="M73.3906 168.311C73.1721 168.311 72.961 168.231 72.7953 168.086C72.6296 167.941 72.5202 167.741 72.4868 167.521L69.19 145.732C69.172 145.611 69.1776 145.487 69.2066 145.368C69.2356 145.249 69.2873 145.137 69.3588 145.038C69.4303 144.94 69.5202 144.856 69.6234 144.793C69.7266 144.73 69.841 144.688 69.9601 144.67C70.0792 144.651 70.2006 144.657 70.3176 144.687C70.4345 144.716 70.5445 144.769 70.6415 144.841C70.7384 144.914 70.8203 145.006 70.8825 145.111C70.9446 145.216 70.9859 145.332 71.0039 145.453L74.3007 167.242C74.3355 167.487 74.2741 167.736 74.13 167.934C73.9858 168.133 73.7705 168.266 73.5306 168.305L73.3906 168.311Z" fill="#020901" stroke="#020901" stroke-width="0.75" stroke-linecap="round" stroke-linejoin="round"/>
<path d="M53.6608 111.332C53.6608 111.332 54.3991 109.577 53.909 108.262C53.419 106.947 52.9225 108.948 52.8589 108.573C52.7952 108.197 51.8787 105.943 50.313 106.254C48.7474 106.565 50.4976 108.074 50.0075 107.886C49.5175 107.698 45.0177 107.238 42.7392 109.512C40.4607 111.785 38.7422 114.959 39.2959 117.971C39.9055 120.57 41.4673 122.833 43.662 124.299C44.8141 124.9 45.8189 125.757 46.6025 126.806C47.2639 126.265 47.8677 125.655 48.4037 124.986C48.0837 125.09 47.7442 125.116 47.4126 125.062C47.0809 125.008 46.7664 124.875 46.4943 124.675C45.5078 123.982 45.0177 121.98 46.2524 120.976C47.4872 119.973 48.6773 122.252 48.6773 122.252C49.9503 122.946 49.4729 121.125 48.9828 120.309C48.4928 119.493 49.1674 118.612 49.352 117.427C49.5366 116.242 47.939 115.795 48.1236 114.603C48.3082 113.411 53.6608 111.332 53.6608 111.332Z" fill="#020901" stroke="#020901" stroke-width="0.75" stroke-linecap="round" stroke-linejoin="round"/>
<path d="M50.6933 112.174C50.6933 112.174 48.4594 111.034 47.0337 112.821C45.608 114.609 45.9199 117.582 44.7997 119.337C44.5378 119.821 44.1735 120.239 43.7332 120.562C43.2929 120.884 42.7876 121.103 42.2539 121.203" stroke="white" stroke-width="0.5" stroke-linecap="round" stroke-linejoin="round"/>
<path d="M40.9375 118.075C41.6104 118.148 42.2848 117.951 42.8165 117.525C43.3482 117.099 43.6949 116.478 43.7825 115.795C44.2916 113.204 47.1366 109.486 49.9879 109.383C52.8393 109.279 52.6292 111.326 52.6292 111.326" stroke="white" stroke-width="0.5" stroke-linecap="round" stroke-linejoin="round"/>
<path d="M65.543 154.114L67.3251 152.922C67.3251 152.922 68.8653 150.039 68.9862 149.852C69.1071 149.664 72.8686 147.785 73.1741 148.038C73.3473 148.192 73.482 148.386 73.5672 148.603C73.6524 148.82 73.6856 149.055 73.6642 149.288C73.5432 149.605 73.1105 149.936 73.1105 150.234C73.1105 150.532 73.6069 152.922 73.6069 153.55C73.6069 154.178 71.0611 155.241 70.0364 155.558C69.0117 155.875 67.6369 155.869 67.3251 156.121L66.4658 156.808L65.543 154.114Z" fill="white" stroke="#020901" stroke-width="0.75" stroke-linecap="round" stroke-linejoin="round"/>
<path d="M44.8557 141.464C44.8557 141.464 43.2582 141.898 43.812 146.471C44.3657 151.044 48.8591 166.453 50.4566 168.337C52.0541 170.222 67.6409 159.691 67.6409 159.691L65.7316 153.673C65.7316 153.673 55.2046 157.87 54.3453 158.058C53.4861 158.246 51.0167 144.592 50.1574 142.902" fill="white"/>
<mask id="mask2_261_1942" style="mask-type:luminance" maskUnits="userSpaceOnUse" x="43" y="141" width="25" height="28">
<path d="M44.8557 141.464C44.8557 141.464 43.2582 141.898 43.812 146.471C44.3657 151.044 48.8591 166.453 50.4566 168.337C52.0541 170.222 67.6409 159.691 67.6409 159.691L65.7316 153.673C65.7316 153.673 55.2046 157.87 54.3453 158.058C53.4861 158.246 51.0167 144.592 50.1574 142.902" fill="white"/>
</mask>
<g mask="url(#mask2_261_1942)">
<g style="mix-blend-mode:multiply" opacity="0.5">
<path d="M67.3571 158.815C64.1176 159.858 56.6201 162.235 55.6463 162.132C54.3734 162.009 54.0297 161.244 53.2787 160.234C52.5277 159.223 51.4139 163.272 50.4146 163.654C49.4154 164.036 50.1664 159.12 50.5419 158.077C50.9174 157.034 49.67 158.589 49.67 158.589C49.67 158.589 47.1814 153.407 45.934 149.845C45.1432 147.519 44.5199 145.138 44.0691 142.72L43.7891 143.419C43.6484 144.422 43.6484 145.441 43.7891 146.444C44.3428 151.017 48.8362 166.426 50.4337 168.311C52.0312 170.196 67.6181 159.664 67.6181 159.664L67.3571 158.815Z" fill="#2A5F61"/>
</g>
</g>
<path d="M44.8557 141.464C44.8557 141.464 43.2582 141.898 43.812 146.471C44.3657 151.044 48.8591 166.453 50.4566 168.337C52.0541 170.222 67.6409 159.691 67.6409 159.691L65.7316 153.673C65.7316 153.673 55.2046 157.87 54.3453 158.058C53.4861 158.246 51.0167 144.592 50.1574 142.902" stroke="#020901" stroke-width="0.75" stroke-linecap="round" stroke-linejoin="round"/>
<path d="M54.339 158.059C53.7115 158.472 53.173 159.01 52.7561 159.642C52.3393 160.273 52.0528 160.984 51.9141 161.731" stroke="#020901" stroke-width="0.5" stroke-linecap="round" stroke-linejoin="round"/>
<path d="M52.0157 159.451C51.5881 159.886 51.2506 160.403 51.0232 160.973C50.7958 161.542 50.6831 162.153 50.6919 162.767" stroke="#020901" stroke-width="0.5" stroke-linecap="round" stroke-linejoin="round"/>
<path d="M36.1506 164.542C36.1506 164.542 34.4577 158.797 34.6804 146.853C34.9032 134.909 35.5842 133.763 35.0177 132.843C34.4513 131.923 24.198 138.07 16.5605 147.028C11.6979 152.754 5.48609 161.232 5.07876 174.588C4.74143 185.269 9.73127 193.903 12.8626 196.293C18.2789 200.425 25.6745 200.14 26.4637 200.14H102.05C102.05 200.14 106.899 198.417 108.026 193.942C109.152 189.466 112.99 176.713 104.984 161.44C99.7264 151.419 90.3132 140.654 88.7284 141.458C87.1437 142.261 81.2246 153.764 73.1607 160.98C65.5423 167.8 51.0438 172.807 36.1506 164.542Z" fill="#2A5F61" stroke="#020901" stroke-width="0.75" stroke-linecap="round" stroke-linejoin="round"/>
<path d="M105.005 161.439C103.878 159.301 102.567 157.132 101.186 155.046C96.7688 156.594 85.6944 161.219 79.5462 170.455C74.27 178.383 77.7769 190.962 88.7749 200.14H102.058C102.058 200.14 106.908 198.417 108.034 193.935C109.161 189.452 112.992 176.712 105.005 161.439Z" fill="white" stroke="#020901" stroke-width="0.75" stroke-linecap="round" stroke-linejoin="round"/>
<path d="M107.427 185.605C107.308 186.728 107.132 187.879 106.898 189.058" stroke="#020901" stroke-width="0.75" stroke-linecap="round" stroke-linejoin="round"/>
<path d="M103.641 163.389C103.641 163.389 108.217 171.414 107.631 183.118" stroke="#020901" stroke-width="0.75" stroke-linecap="round" stroke-linejoin="round"/>
<path d="M34.3558 198.508V187.024C28.4686 185.081 24.6689 182.775 21.1239 180.612C16.0322 177.509 12.468 169.147 14.8611 163.733C17.0569 158.732 23.1351 156.498 26.3683 158.732C29.5236 160.842 32.7823 162.788 36.1315 164.562C36.1315 164.562 34.4386 158.816 34.6613 146.873C34.8841 134.929 35.5651 133.782 34.9987 132.862C34.4322 131.943 24.1789 138.09 16.5414 147.047C11.6979 152.754 5.48609 161.232 5.07876 174.588C4.74143 185.269 9.73127 193.903 12.8626 196.293C18.2789 200.425 25.6745 200.14 26.4637 200.14H34.3558C34.3558 199.551 34.3558 199.001 34.3558 198.508Z" fill="white" stroke="#020901" stroke-width="0.75" stroke-linecap="round" stroke-linejoin="round"/>
<path d="M7.47656 176.836C7.5342 178.25 7.68303 179.658 7.92208 181.053" stroke="#020901" stroke-width="0.75" stroke-linecap="round" stroke-linejoin="round"/>
<path d="M25.6739 141.517C23.8409 143.188 21.1041 145.15 19.4048 147.152C14.5359 152.878 7.88491 161.058 7.46484 174.414" stroke="#020901" stroke-width="0.75" stroke-linecap="round" stroke-linejoin="round"/>
<path d="M51.9497 198.761C51.9497 205.076 42.4028 205.653 30.5647 205.653C18.7266 205.653 9.17969 205.419 9.17969 198.761C9.17969 189.563 18.7266 180.625 30.5647 180.625C42.4028 180.625 51.9497 189.563 51.9497 198.761Z" fill="#2A5F61" stroke="#020901" stroke-width="0.75" stroke-linecap="round" stroke-linejoin="round"/>
<path d="M30.5398 180.618C19.6118 180.618 10.6123 188.274 9.32031 196.701C10.5932 202.006 19.6118 202.206 30.5398 202.206C41.4678 202.206 50.4419 201.714 51.753 196.662C50.4673 188.248 41.4742 180.618 30.5398 180.618Z" fill="#020901" stroke="#020901" stroke-width="0.75" stroke-linecap="round" stroke-linejoin="round"/>
<path d="M107.236 199.434C107.236 205.154 98.5677 205.678 87.8752 205.678C77.1827 205.678 68.5078 205.471 68.5078 199.434C68.5078 191.111 77.1764 183.002 87.8752 183.002C98.5741 183.002 107.236 191.111 107.236 199.434Z" fill="#2A5F61" stroke="#020901" stroke-width="0.75" stroke-linecap="round" stroke-linejoin="round"/>
<path d="M87.8787 183.002C77.9818 183.002 69.8288 189.939 68.6641 197.576C69.8288 202.375 77.9818 202.556 87.8787 202.556C97.7757 202.556 105.897 202.11 107.087 197.537C105.897 189.92 97.7566 183.002 87.8787 183.002Z" fill="#020901" stroke="#020901" stroke-width="0.75" stroke-linecap="round" stroke-linejoin="round"/>
<path d="M163.266 131.321C162.509 131.033 161.895 130.451 161.56 129.702C161.225 128.954 161.195 128.101 161.477 127.331L170.069 103.955C170.209 103.572 170.422 103.221 170.695 102.922C170.969 102.623 171.297 102.382 171.662 102.212C172.027 102.042 172.421 101.947 172.822 101.932C173.223 101.917 173.623 101.983 174 102.125C174.376 102.268 174.721 102.484 175.014 102.762C175.308 103.04 175.546 103.375 175.713 103.746C175.88 104.117 175.973 104.519 175.988 104.927C176.002 105.335 175.938 105.742 175.798 106.125L167.205 129.501C167.065 129.884 166.852 130.236 166.578 130.535C166.304 130.835 165.974 131.076 165.608 131.245C165.242 131.414 164.846 131.508 164.444 131.521C164.042 131.534 163.642 131.466 163.266 131.321Z" fill="white" stroke="#020901" stroke-width="0.75" stroke-linecap="round" stroke-linejoin="round"/>
<path d="M173.152 108.164L168.328 121.067" stroke="#020901" stroke-width="0.75" stroke-linecap="round" stroke-linejoin="round"/>
<path d="M150.192 166.945C149.526 166.692 148.914 166.308 148.394 165.815C147.873 165.322 147.453 164.729 147.157 164.07C146.862 163.411 146.697 162.7 146.671 161.976C146.646 161.253 146.761 160.531 147.01 159.853L159.275 126.476C159.781 125.106 160.801 123.997 162.111 123.393C163.421 122.788 164.913 122.738 166.26 123.254C167.606 123.769 168.696 124.808 169.29 126.141C169.883 127.474 169.932 128.992 169.426 130.362L157.136 163.707C156.634 165.071 155.622 166.177 154.321 166.784C153.02 167.391 151.535 167.449 150.192 166.945Z" fill="#020901" stroke="#020901" stroke-width="0.75" stroke-linecap="round" stroke-linejoin="round"/>
<path d="M195.716 43.996C189.602 41.6691 182.946 41.2396 176.592 42.7619C170.238 44.2842 164.469 47.69 160.017 52.5485C155.565 57.407 152.628 63.5 151.578 70.0571C150.528 76.6142 151.413 83.3408 154.119 89.3864C156.826 95.4319 161.234 100.525 166.785 104.021C172.336 107.517 178.781 109.26 185.305 109.029C191.829 108.797 198.139 106.602 203.437 102.721C208.736 98.84 212.784 93.4471 215.071 87.2245C218.135 78.8799 217.818 69.6384 214.188 61.532C210.559 53.4255 203.915 47.1179 195.716 43.996ZM174.592 101.474C169.537 99.5492 165.156 96.1419 162.003 91.6832C158.851 87.2245 157.068 81.9146 156.881 76.4249C156.694 70.9352 158.11 65.5123 160.952 60.8419C163.793 56.1715 167.931 52.4633 172.843 50.1863C177.755 47.9092 183.22 47.1656 188.547 48.0494C193.874 48.9332 198.824 51.4047 202.771 55.1515C206.718 58.8982 209.485 63.7519 210.722 69.0988C211.958 74.4457 211.609 80.0457 209.718 85.1906C207.181 92.0896 202.055 97.6807 195.468 100.734C188.881 103.788 181.372 104.054 174.592 101.474Z" fill="#020901" stroke="#020901" stroke-width="0.75" stroke-linecap="round" stroke-linejoin="round"/>
<path d="M162.023 65.2531C163.348 62.2814 165.238 59.6065 167.584 57.3829C169.931 55.1594 172.688 53.4314 175.695 52.2988" stroke="#020901" stroke-width="0.75" stroke-linecap="round" stroke-linejoin="round"/>
<path d="M159.84 75.5396C159.833 73.0201 160.207 70.5145 160.947 68.1104" stroke="#020901" stroke-width="0.75" stroke-linecap="round" stroke-linejoin="round"/>
<path d="M152.866 82.3927C151.222 74.689 152.378 66.6402 156.119 59.7373C159.86 52.8344 165.933 47.5452 173.212 44.8496C180.491 42.1539 188.484 42.2345 195.709 45.0763C202.934 47.9181 208.903 53.3287 212.508 60.3056" stroke="white" stroke-miterlimit="10"/>
<path d="M215.955 71.5762C216.888 79.3378 215.048 87.1821 210.771 93.6779C206.493 100.174 200.064 104.888 192.655 106.961C185.246 109.033 177.352 108.326 170.413 104.968C163.474 101.61 157.952 95.8257 154.855 88.6693" stroke="white" stroke-miterlimit="10"/>
<path d="M213.793 63.123C214.624 65.1839 215.244 67.3261 215.645 69.516" stroke="white" stroke-miterlimit="10"/>
<path d="M55.9966 189.971C61.0688 189.971 65.1807 185.787 65.1807 180.625C65.1807 175.463 61.0688 171.278 55.9966 171.278C50.9244 171.278 46.8125 175.463 46.8125 180.625C46.8125 185.787 50.9244 189.971 55.9966 189.971Z" fill="#020901"/>
<path d="M55.9942 188.514C60.2756 188.514 63.7463 184.982 63.7463 180.624C63.7463 176.267 60.2756 172.735 55.9942 172.735C51.7129 172.735 48.2422 176.267 48.2422 180.624C48.2422 184.982 51.7129 188.514 55.9942 188.514Z" fill="white" stroke="#020901" stroke-width="0.75" stroke-linecap="round" stroke-linejoin="round"/>
<path d="M53.6401 182.956C53.5728 182.886 53.5352 182.792 53.5352 182.694C53.5352 182.596 53.5728 182.502 53.6401 182.432L55.7404 180.294C55.8093 180.226 55.9018 180.188 55.9981 180.188C56.0945 180.188 56.187 180.226 56.2559 180.294C56.2909 180.329 56.3188 180.37 56.3378 180.416C56.3568 180.461 56.3667 180.51 56.3667 180.56C56.3667 180.609 56.3568 180.658 56.3378 180.704C56.3188 180.75 56.2909 180.791 56.2559 180.825L54.162 182.956C54.1281 182.992 54.0876 183.02 54.0427 183.04C53.9979 183.059 53.9497 183.069 53.901 183.069C53.8523 183.069 53.8041 183.059 53.7593 183.04C53.7144 183.02 53.6739 182.992 53.6401 182.956Z" fill="#020901"/>
<path d="M50.4481 186.208C50.3855 186.147 50.3357 186.075 50.3016 185.994C50.2676 185.913 50.25 185.826 50.25 185.738C50.25 185.651 50.2676 185.564 50.3016 185.483C50.3357 185.402 50.3855 185.329 50.4481 185.269L53.4394 182.225C53.499 182.16 53.5709 182.108 53.6509 182.073C53.7308 182.038 53.817 182.02 53.9041 182.02C53.9912 182.02 54.0774 182.038 54.1573 182.073C54.2372 182.108 54.3091 182.16 54.3687 182.225C54.4313 182.285 54.4811 182.358 54.5152 182.439C54.5492 182.519 54.5668 182.606 54.5668 182.694C54.5668 182.782 54.5492 182.869 54.5152 182.95C54.4811 183.03 54.4313 183.103 54.3687 183.164L51.3773 186.208C51.3178 186.273 51.2458 186.324 51.1659 186.36C51.086 186.395 50.9998 186.413 50.9127 186.413C50.8256 186.413 50.7394 186.395 50.6595 186.36C50.5796 186.324 50.5076 186.273 50.4481 186.208Z" fill="#020901"/>
<path d="M61.5054 180.754C62.0642 180.187 62.4449 179.463 62.5994 178.675C62.7539 177.887 62.6752 177.07 62.3733 176.328C62.0715 175.585 61.56 174.951 60.9036 174.504C60.2472 174.058 59.4754 173.819 58.6859 173.819C57.8964 173.819 57.1246 174.058 56.4682 174.504C55.8118 174.951 55.3003 175.585 54.9985 176.328C54.6966 177.07 54.618 177.887 54.7725 178.675C54.927 179.463 55.3077 180.187 55.8664 180.754C56.6146 181.515 57.6286 181.942 58.6859 181.942C59.7432 181.942 60.7572 181.515 61.5054 180.754Z" fill="#020901"/>
<path d="M60.7432 179.971C61.148 179.558 61.4235 179.031 61.5346 178.459C61.6458 177.886 61.5877 177.293 61.3678 176.754C61.1478 176.214 60.7758 175.754 60.2988 175.43C59.8217 175.106 59.261 174.933 58.6874 174.933C58.1138 174.933 57.5531 175.106 57.076 175.43C56.599 175.754 56.227 176.214 56.007 176.754C55.7871 177.293 55.729 177.886 55.8402 178.459C55.9514 179.031 56.2268 179.558 56.6316 179.971C56.9013 180.246 57.2217 180.465 57.5744 180.614C57.9272 180.763 58.3054 180.84 58.6874 180.84C59.0694 180.84 59.4476 180.763 59.8004 180.614C60.1532 180.465 60.4735 180.246 60.7432 179.971Z" fill="white"/>
<path d="M169.921 147.294C169.921 148.116 169.6 148.906 169.028 149.487C168.456 150.069 167.681 150.396 166.872 150.396H145.379C144.968 150.415 144.556 150.349 144.171 150.202C143.785 150.055 143.432 149.83 143.134 149.54C142.836 149.251 142.599 148.902 142.437 148.517C142.275 148.131 142.191 147.716 142.191 147.297C142.191 146.878 142.275 146.463 142.437 146.077C142.599 145.691 142.836 145.343 143.134 145.054C143.432 144.764 143.785 144.539 144.171 144.392C144.556 144.244 144.968 144.178 145.379 144.198H166.872C167.68 144.198 168.454 144.524 169.026 145.104C169.598 145.684 169.919 146.472 169.921 147.294Z" fill="#2A5F61" stroke="#020901" stroke-width="0.75" stroke-linecap="round" stroke-linejoin="round"/>
<path d="M157.06 149.437C157.995 149.437 158.753 148.666 158.753 147.714C158.753 146.763 157.995 145.991 157.06 145.991C156.125 145.991 155.367 146.763 155.367 147.714C155.367 148.666 156.125 149.437 157.06 149.437Z" fill="white" stroke="#020901" stroke-width="0.75" stroke-linecap="round" stroke-linejoin="round"/>
<path d="M131.327 167.936C133.605 167.936 135.452 166.057 135.452 163.739C135.452 161.421 133.605 159.542 131.327 159.542C129.05 159.542 127.203 161.421 127.203 163.739C127.203 166.057 129.05 167.936 131.327 167.936Z" fill="#2A5F61" stroke="#020901" stroke-width="0.75" stroke-linecap="round" stroke-linejoin="round"/>
<path d="M132.874 163.74C132.876 163.428 132.786 163.123 132.617 162.863C132.448 162.604 132.207 162.401 131.924 162.281C131.642 162.161 131.33 162.129 131.03 162.189C130.73 162.249 130.453 162.398 130.236 162.618C130.02 162.838 129.872 163.118 129.811 163.424C129.751 163.729 129.781 164.046 129.898 164.334C130.015 164.622 130.213 164.868 130.468 165.041C130.722 165.215 131.022 165.307 131.328 165.307C131.737 165.307 132.129 165.142 132.419 164.848C132.709 164.555 132.873 164.156 132.874 163.74Z" fill="white" stroke="#020901" stroke-width="0.75" stroke-linecap="round" stroke-linejoin="round"/>
<path d="M145.378 151.568C147.656 151.568 149.502 149.689 149.502 147.371C149.502 145.053 147.656 143.174 145.378 143.174C143.1 143.174 141.254 145.053 141.254 147.371C141.254 149.689 143.1 151.568 145.378 151.568Z" fill="#2A5F61" stroke="#020901" stroke-width="0.75" stroke-linecap="round" stroke-linejoin="round"/>
<path d="M145.38 148.99C146.259 148.99 146.971 148.265 146.971 147.37C146.971 146.476 146.259 145.751 145.38 145.751C144.501 145.751 143.789 146.476 143.789 147.37C143.789 148.265 144.501 148.99 145.38 148.99Z" fill="white" stroke="#020901" stroke-width="0.75" stroke-linecap="round" stroke-linejoin="round"/>
</svg>
