<svg width="264" height="228" viewBox="0 0 264 228" fill="none" xmlns="http://www.w3.org/2000/svg">
<path d="M204.478 136.24V136.201C199.126 134.438 190.913 135.036 189.693 135.759C188.396 136.62 187.282 137.726 186.413 139.012C183.53 143.07 181.464 147.641 180.326 152.476L122.111 157.844C119.966 153.25 116.732 149.131 113.485 146.645C112.557 145.875 111.488 145.289 110.336 144.921C109.829 144.861 109.316 144.878 108.815 144.973C106.702 138.902 103.711 133.045 99.9724 132.674C92.101 131.893 78.3654 134.509 74.62 142.084C70.8745 149.658 69.7003 168.568 69.7003 168.568L67.0765 171.171C65.1629 167.472 62.5012 164.205 59.2576 161.573C58.3329 160.798 57.2629 160.212 56.1091 159.848C55.4531 159.666 52.8293 160.069 50.0809 160.961C49.9694 160.857 49.8644 160.753 49.7463 160.655C47.1226 158.475 41.7438 157.284 38.7395 162.842C35.7353 168.399 39.343 178.921 41.1403 181.302C42.0132 182.519 43.1077 183.563 44.3676 184.38C46.4863 189.586 50.2711 196.223 56.0959 196.529C58.0911 196.636 60.086 196.315 61.9454 195.59C63.8049 194.865 65.4855 193.751 66.8732 192.326C70.6515 188.421 71.0582 182.936 69.6347 177.567L70.2448 176.682C70.2448 176.682 71.6026 178.602 76.8043 177.828C78.3122 177.673 79.7418 177.085 80.9171 176.136C83.3572 182.311 87.2995 188.499 93.5638 189.423C96.2523 189.831 98.9978 189.66 101.614 188.921C104.229 188.182 106.654 186.893 108.723 185.142C109.925 184.111 110.974 182.917 111.839 181.595C115.346 181.403 118.65 179.901 121.087 177.392C123.268 175.085 124.515 172.061 124.59 168.9L132.337 168.002C137.2 170.154 142.506 171.139 147.824 170.878C152.917 170.553 157.737 168.483 161.461 165.021L179.113 163.525C179.408 170.312 181.868 176.539 187.64 179.968C189.85 181.277 192.32 182.095 194.879 182.365C197.438 182.636 200.026 182.353 202.465 181.537C210.605 178.83 212.533 166.83 213.058 159.536C213.872 147.823 210.106 137.9 204.478 136.24Z" fill="#020901" stroke="#020901" stroke-width="0.75" stroke-linecap="round" stroke-linejoin="round"/>
<path d="M96.7051 185.655C96.0282 186.514 95.165 187.21 94.1797 187.692" stroke="white" stroke-width="0.5" stroke-linecap="round" stroke-linejoin="round"/>
<path d="M99.8831 170.233C99.8831 170.233 100.664 178.693 97.7578 184.061" stroke="white" stroke-width="0.5" stroke-linecap="round" stroke-linejoin="round"/>
<path d="M102.186 179.577C101.445 182.831 99.9693 185.987 97.1094 187.386" stroke="white" stroke-width="0.5" stroke-linecap="round" stroke-linejoin="round"/>
<path d="M105.747 169.59C105.747 169.59 107.059 183.652 100.047 187.049" stroke="white" stroke-width="0.5" stroke-linecap="round" stroke-linejoin="round"/>
<path d="M108.687 169.264C108.687 169.264 109.999 183.332 102.98 186.722" stroke="white" stroke-width="0.5" stroke-linecap="round" stroke-linejoin="round"/>
<path d="M197.181 179.122C196.427 180.067 195.49 180.852 194.426 181.432" stroke="white" stroke-width="0.5" stroke-linecap="round" stroke-linejoin="round"/>
<path d="M202.458 161.56C202.458 161.56 202.039 171.184 198.438 177.307" stroke="white" stroke-width="0.5" stroke-linecap="round" stroke-linejoin="round"/>
<path d="M203.394 172.219C202.214 175.921 200.324 179.513 197.34 181.075" stroke="white" stroke-width="0.5" stroke-linecap="round" stroke-linejoin="round"/>
<path d="M208.283 160.844C208.283 160.844 207.581 176.877 200.254 180.717" stroke="white" stroke-width="0.5" stroke-linecap="round" stroke-linejoin="round"/>
<path d="M211.209 160.493C211.209 160.493 210.507 176.52 203.18 180.366" stroke="white" stroke-width="0.5" stroke-linecap="round" stroke-linejoin="round"/>
<path d="M57.9432 194.355C57.385 195.204 56.6489 195.923 55.7852 196.464" stroke="white" stroke-width="0.5" stroke-linecap="round" stroke-linejoin="round"/>
<path d="M58.9783 180.671C58.9783 180.671 60.8281 187.829 58.7422 192.833" stroke="white" stroke-width="0.5" stroke-linecap="round" stroke-linejoin="round"/>
<path d="M62.4129 188.356C62.1178 191.252 61.101 194.167 58.5625 195.768" stroke="white" stroke-width="0.5" stroke-linecap="round" stroke-linejoin="round"/>
<path d="M64.516 179.278C64.516 179.278 67.599 191.154 61.3281 195.065" stroke="white" stroke-width="0.5" stroke-linecap="round" stroke-linejoin="round"/>
<path d="M67.2856 178.576C67.2856 178.576 70.3751 190.452 64.0977 194.369" stroke="white" stroke-width="0.5" stroke-linecap="round" stroke-linejoin="round"/>
<path d="M89.8966 165.411C91.4577 174.268 90.4804 181.842 87.7254 182.33C84.9704 182.818 81.4611 176.011 79.8999 167.155C78.3387 158.299 79.3161 150.725 82.0777 150.237C84.8392 149.749 88.3354 156.549 89.8966 165.411Z" fill="#2A5F61" stroke="#020901" stroke-linecap="round" stroke-linejoin="round"/>
<path d="M88.5043 165.601C88.9372 168.998 88.5371 171.841 87.5991 171.959C86.661 172.076 85.559 169.421 85.1261 166.024C84.6932 162.627 85.1261 159.777 86.0313 159.66C86.9365 159.543 88.0713 162.204 88.5043 165.601Z" fill="#2A5F61" stroke="#020901" stroke-linecap="round" stroke-linejoin="round"/>
<path d="M81.9258 157.479C82.0188 156.339 82.2008 155.208 82.4702 154.096" stroke="#020901" stroke-width="0.75" stroke-linecap="round" stroke-linejoin="round"/>
<path d="M86.2746 179.135C84.4594 175.53 83.1612 171.69 82.4176 167.728C81.9236 164.926 81.7236 162.08 81.8207 159.236" stroke="#020901" stroke-width="0.75" stroke-linecap="round" stroke-linejoin="round"/>
<path d="M51.2916 191.732C53.2745 191.187 53.4396 185.582 51.6604 179.213C49.8811 172.844 46.8312 168.123 44.8483 168.668C42.8653 169.213 42.7002 174.818 44.4795 181.187C46.2587 187.556 49.3086 192.277 51.2916 191.732Z" fill="#2A5F61" stroke="#020901" stroke-linecap="round" stroke-linejoin="round"/>
<path d="M51.0097 179.466C51.6329 181.887 51.6001 183.982 50.931 184.152C50.2619 184.321 49.2255 182.492 48.6024 180.078C47.9792 177.664 48.012 175.556 48.6811 175.393C49.3502 175.23 50.3866 177.046 51.0097 179.466Z" stroke="#020901" stroke-width="0.75" stroke-linecap="round" stroke-linejoin="round"/>
<path d="M45.5154 174.177C45.4788 173.344 45.5073 172.508 45.6007 171.679" stroke="#020901" stroke-width="0.75" stroke-linecap="round" stroke-linejoin="round"/>
<path d="M50.6249 189.462C48.9846 187.015 47.6975 184.351 46.8007 181.55C46.1878 179.566 45.7833 177.525 45.5938 175.459" stroke="#020901" stroke-width="0.75" stroke-linecap="round" stroke-linejoin="round"/>
<path d="M191.904 70.518C184.99 56.365 182.005 55.1351 177.407 54.9008C172.809 54.6666 161.953 53.3261 149.857 55.2457C149.857 55.2457 116.115 54.6601 90.0085 70.3489C62.7538 86.7274 49.4905 101.115 47.6341 108.572C45.7778 116.029 39.4413 135.46 36.4371 146.6C33.4328 157.74 31.3862 167.553 35.217 176.572C37.5325 182.025 39.9989 183.665 43.1671 183.639C42.6824 182.776 42.2551 181.882 41.888 180.964C38.7394 173.227 39.1199 162.158 42.7145 161.443C46.3091 160.727 48.4541 168.138 50.6252 176.22C51.0562 178.002 51.64 179.743 52.3701 181.426C57.7423 179.415 66.3484 174.919 77.7881 170.247C76.7021 163.149 76.6778 155.93 77.716 148.825C79.4083 137.717 86.5647 135.264 89.6805 142.025C92.2584 147.595 93.2161 160.063 93.4719 164.267C98.0635 162.698 101.907 161.664 104.275 161.521C104.275 161.521 143.422 152.749 172.278 152.046C201.133 151.343 215.57 150.66 215.57 150.66C215.57 150.66 198.817 84.6451 191.904 70.518Z" fill="white"/>
<mask id="mask0_261_2963" style="mask-type:luminance" maskUnits="userSpaceOnUse" x="33" y="54" width="183" height="130">
<path d="M191.904 70.518C184.99 56.365 182.005 55.1351 177.407 54.9008C172.809 54.6666 161.953 53.3261 149.857 55.2457C149.857 55.2457 116.115 54.6601 90.0085 70.3489C62.7538 86.7274 49.4905 101.115 47.6341 108.572C45.7778 116.029 39.4413 135.46 36.4371 146.6C33.4328 157.74 31.3862 167.553 35.217 176.572C37.5325 182.025 39.9989 183.665 43.1671 183.639C42.6824 182.776 42.2551 181.882 41.888 180.964C38.7394 173.227 39.1199 162.158 42.7145 161.443C46.3091 160.727 48.4541 168.138 50.6252 176.22C51.0562 178.002 51.64 179.743 52.3701 181.426C57.7423 179.415 66.3484 174.919 77.7881 170.247C76.7021 163.149 76.6778 155.93 77.716 148.825C79.4083 137.717 86.5647 135.264 89.6805 142.025C92.2584 147.595 93.2161 160.063 93.4719 164.267C98.0635 162.698 101.907 161.664 104.275 161.521C104.275 161.521 143.422 152.749 172.278 152.046C201.133 151.343 215.57 150.66 215.57 150.66C215.57 150.66 198.817 84.6451 191.904 70.518Z" fill="white"/>
</mask>
<g mask="url(#mask0_261_2963)">
<path d="M99.6517 138.804C99.6517 138.804 95.6833 144.192 90.8555 145.343C92.5609 151.551 93.2628 160.739 93.4793 164.214C97.579 162.815 101.062 161.833 103.45 161.546C103.797 159.516 104.007 158.221 104.007 158.221L99.6517 138.804Z" fill="#2A5F61"/>
<path opacity="0.2" d="M50.7974 176.806C52.621 176.988 53.8345 177.769 57.5406 176.851C64.1001 175.231 59.3838 162.672 70.266 157.544C72.3785 156.488 74.6773 155.847 77.0354 155.657C77.1332 153.359 77.3522 151.068 77.6914 148.792C77.9803 146.557 78.6455 144.386 79.6592 142.37C76.6878 141.465 76.1499 140.6 71.0859 142.988C60.1972 148.116 61.8305 161.345 55.3038 162.965C50.0956 164.266 49.8069 162.191 45.8516 163.154C47.7013 165.756 49.1313 170.826 50.5744 176.168C50.6859 176.409 50.7384 176.584 50.7974 176.806Z" fill="#2A5F61"/>
<g style="mix-blend-mode:multiply">
<path opacity="0.2" d="M40.0832 165.685C37.0331 167.767 35.2161 170.89 34.1797 173.526C34.4608 174.566 34.807 175.587 35.2161 176.584C37.5316 182.037 39.998 183.677 43.1662 183.651C42.6815 182.788 42.2542 181.895 41.8871 180.976C39.8864 176.05 39.3486 169.784 40.0832 165.685Z" fill="#2A5F61"/>
</g>
<g style="mix-blend-mode:multiply" opacity="0.2">
<path d="M177.408 54.9007L176.22 54.8291C128.382 66.9715 108.92 124.169 102.223 151.734C102.583 154.473 102.977 157.161 103.403 159.777C104.217 159.62 103.653 161.521 104.276 161.488C104.276 161.488 143.423 152.716 172.278 152.014C201.133 151.311 215.571 150.628 215.571 150.628C215.571 150.628 198.818 84.6449 191.904 70.5179C184.99 56.3908 182.006 55.1089 177.408 54.9007Z" fill="#2A5F61"/>
</g>
</g>
<path d="M191.904 70.518C184.99 56.365 182.005 55.1351 177.407 54.9008C172.809 54.6666 161.953 53.3261 149.857 55.2457C149.857 55.2457 116.115 54.6601 90.0085 70.3489C62.7538 86.7274 49.4905 101.115 47.6341 108.572C45.7778 116.029 39.4413 135.46 36.4371 146.6C33.4328 157.74 31.3862 167.553 35.217 176.572C37.5325 182.025 39.9989 183.665 43.1671 183.639C42.6824 182.776 42.2551 181.882 41.888 180.964C38.7394 173.227 39.1199 162.158 42.7145 161.443C46.3091 160.727 48.4541 168.138 50.6252 176.22C51.0562 178.002 51.64 179.743 52.3701 181.426C57.7423 179.415 66.3484 174.919 77.7881 170.247C76.7021 163.149 76.6778 155.93 77.716 148.825C79.4083 137.717 86.5647 135.264 89.6805 142.025C92.2584 147.595 93.2161 160.063 93.4719 164.267C98.0635 162.698 101.907 161.664 104.275 161.521C104.275 161.521 143.422 152.749 172.278 152.046C201.133 151.343 215.57 150.66 215.57 150.66C215.57 150.66 198.817 84.6451 191.904 70.518Z" stroke="#020901" stroke-linecap="round" stroke-linejoin="round"/>
<path opacity="0.2" d="M48.707 141.941C49.1573 142.312 49.7054 142.548 50.2865 142.621C50.8677 142.694 51.4576 142.6 51.9868 142.351C54.053 141.531 54.2629 138.446 54.2629 138.446L57.359 138.245L57.9822 128.607L51.1603 131.269C51.1603 131.269 49.3302 140.711 48.707 141.941Z" fill="#2A5F61"/>
<path d="M39.7601 170.123C37.8014 171.156 35.9494 172.376 34.2305 173.767C34.5024 174.72 34.831 175.657 35.2144 176.572C37.5299 182.025 39.9963 183.664 43.1645 183.638C42.6798 182.776 42.2525 181.882 41.8854 180.964C40.5407 177.502 39.8213 173.832 39.7601 170.123Z" fill="#020901" stroke="#020901" stroke-width="0.75" stroke-linecap="round" stroke-linejoin="round"/>
<path d="M50.209 164.748C50.0315 164.748 49.8575 164.699 49.7051 164.609C49.5528 164.519 49.4278 164.389 49.3431 164.234C49.2237 164.009 49.1981 163.747 49.2717 163.504C49.3453 163.26 49.5123 163.055 49.7367 162.933C49.8941 162.848 62.6589 155.001 73.2328 149.424C73.347 149.364 73.4719 149.326 73.6006 149.314C73.7293 149.302 73.8592 149.315 73.9828 149.352C74.1065 149.39 74.2215 149.451 74.3213 149.532C74.4211 149.614 74.5037 149.714 74.5644 149.827C74.6251 149.941 74.6628 150.065 74.6752 150.192C74.6876 150.32 74.6746 150.449 74.6368 150.572C74.5991 150.694 74.5373 150.808 74.4551 150.907C74.3729 151.006 74.2719 151.088 74.1577 151.148C63.5904 156.719 50.8322 164.56 50.6747 164.644C50.5311 164.718 50.3707 164.754 50.209 164.748Z" fill="#020901" stroke="#020901" stroke-miterlimit="10"/>
<path d="M66.8975 99.52L66.4449 110.693C66.3465 112.215 67.2386 112.951 68.4128 112.294L86.5498 100.581C87.2165 100.119 87.7542 99.4977 88.1122 98.7738C88.4702 98.0498 88.6368 97.2475 88.5963 96.4421L88.4848 83.9809C88.3536 82.8487 87.5796 82.3867 86.6285 82.8747C83.2176 84.6251 76.6318 90.5466 68.7604 96.0582C68.2271 96.4775 67.7864 97.0013 67.4659 97.5969C67.1455 98.1924 66.952 98.8471 66.8975 99.52Z" fill="#2A5F61" stroke="#020901" stroke-linecap="round" stroke-linejoin="round"/>
<path d="M79.1523 96.3711L88.0142 98.5185" stroke="#020901" stroke-linecap="round" stroke-linejoin="round"/>
<path d="M67.0312 112.346L72.5019 100.359" stroke="#020901" stroke-linecap="round" stroke-linejoin="round"/>
<path d="M67 99.1494L75.0419 100.145C75.875 100.269 76.9114 99.5854 77.6657 98.4011L88.1609 83.4932" stroke="#020901" stroke-linecap="round" stroke-linejoin="round"/>
<path d="M111.903 78.763L113.766 106.744C113.814 107.551 114.028 108.341 114.394 109.064C114.76 109.787 115.271 110.428 115.895 110.949C116.519 111.47 117.244 111.859 118.025 112.092C118.806 112.326 119.627 112.399 120.437 112.307L183.093 104.239C183.957 104.14 184.788 103.856 185.53 103.408C186.272 102.959 186.907 102.356 187.391 101.64C187.875 100.924 188.196 100.113 188.333 99.2613C188.47 98.41 188.419 97.5395 188.183 96.7097L180.273 68.9632C179.898 67.6446 179.076 66.4949 177.945 65.7087C176.814 64.9225 175.445 64.5481 174.067 64.6489C163.913 65.3907 139.558 67.5576 116.567 72.6397C115.186 72.9508 113.961 73.736 113.108 74.8565C112.254 75.9769 111.828 77.3606 111.903 78.763Z" fill="#2A5F61" stroke="#020901" stroke-linecap="round" stroke-linejoin="round"/>
<path d="M158.477 87.4365L187.083 100.88" stroke="#020901" stroke-linecap="round" stroke-linejoin="round"/>
<path d="M116.141 111.077L140.299 89.6299" stroke="#020901" stroke-linecap="round" stroke-linejoin="round"/>
<path d="M112.113 78.027L146.78 92.1671C148.082 92.6945 149.51 92.8356 150.891 92.5734C152.272 92.3112 153.546 91.6569 154.56 90.6899L179.269 67.5439" stroke="#020901" stroke-linecap="round" stroke-linejoin="round"/>
<path d="M181.346 108.198C187.235 108.054 191.893 103.284 191.751 97.5426C191.608 91.8014 186.719 87.2638 180.83 87.4076C174.942 87.5514 170.283 92.3221 170.426 98.0633C170.568 103.804 175.458 108.342 181.346 108.198Z" fill="#020901" stroke="#020901" stroke-width="0.75" stroke-linecap="round" stroke-linejoin="round"/>
<path d="M179.935 102.767H179.903C179.696 102.767 179.491 102.719 179.307 102.627C179.122 102.534 178.962 102.399 178.84 102.233L174.649 96.4939C174.444 96.2143 174.36 95.8656 174.415 95.5245C174.47 95.1835 174.659 94.8779 174.94 94.6751C175.222 94.4723 175.574 94.3889 175.918 94.4432C176.261 94.4975 176.569 94.6851 176.774 94.9647L179.903 99.2464L187.381 88.9976C187.585 88.718 187.893 88.5305 188.237 88.4762C188.581 88.4219 188.932 88.5053 189.214 88.7081C189.496 88.9108 189.685 89.2164 189.74 89.5575C189.794 89.8985 189.71 90.2472 189.506 90.5268L180.978 102.24C180.858 102.402 180.7 102.534 180.519 102.625C180.339 102.716 180.139 102.765 179.935 102.767Z" fill="white" stroke="#020901" stroke-linecap="round" stroke-linejoin="round"/>
<path d="M140.32 130.813C140.32 130.813 162.623 126.57 177.906 126.87L178.825 130.514C178.825 130.514 146.736 132.023 140.622 135.069L140.32 130.813Z" fill="#020901" stroke="#020901" stroke-width="0.75" stroke-linecap="round" stroke-linejoin="round"/>
<path d="M140.617 135.055L141.273 138.699C141.341 139.105 141.566 139.469 141.901 139.712C142.236 139.955 142.653 140.059 143.064 140.001C148.659 139.207 168.298 136.532 178.485 136.78C178.736 136.787 178.985 136.736 179.212 136.63C179.44 136.524 179.638 136.366 179.792 136.17C179.947 135.973 180.052 135.743 180.099 135.499C180.147 135.254 180.135 135.002 180.066 134.763L178.846 130.526" stroke="#020901" stroke-linecap="round" stroke-linejoin="round"/>
<path d="M59.2371 128.62L59.1125 113.589L59.8668 98.1342C59.8725 97.9864 59.833 97.8403 59.7537 97.7151C59.6743 97.5898 59.5587 97.4912 59.422 97.4322C59.2852 97.3731 59.1337 97.3564 58.9872 97.3841C58.8407 97.4119 58.7061 97.4828 58.6009 97.5876C55.7803 100.451 50.9525 104.785 49.5225 108.337C47.6662 112.938 45.4688 135.583 45.4688 135.583L59.2371 128.62Z" fill="#020901" stroke="#020901" stroke-width="0.75" stroke-linecap="round" stroke-linejoin="round"/>
<path d="M41.7673 125.601H39.5699C38.4504 125.601 37.543 126.501 37.543 127.611V138.843C37.543 139.953 38.4504 140.853 39.5699 140.853H41.7673C42.8867 140.853 43.7942 139.953 43.7942 138.843V127.611C43.7942 126.501 42.8867 125.601 41.7673 125.601Z" fill="#020901" stroke="#020901" stroke-width="0.75" stroke-linecap="round" stroke-linejoin="round"/>
<path d="M43.1523 115.111C44.1925 115.309 45.2085 115.617 46.1828 116.029C46.9908 116.423 47.725 116.952 48.354 117.591L51.6338 113.289C51.6338 113.289 46.8257 111.292 45.9139 110.075L45.0087 108.852L43.1523 115.111Z" fill="white"/>
<mask id="mask1_261_2963" style="mask-type:luminance" maskUnits="userSpaceOnUse" x="43" y="108" width="9" height="10">
<path d="M43.1523 115.11C44.1925 115.308 45.2085 115.616 46.1828 116.028C46.9908 116.422 47.725 116.951 48.354 117.59L51.6338 113.288C51.6338 113.288 46.8257 111.291 45.9139 110.074L45.0087 108.851L43.1523 115.11Z" fill="white"/>
</mask>
<g mask="url(#mask1_261_2963)">
<g style="mix-blend-mode:multiply" opacity="0.5">
<path d="M45.9073 110.074L45.0612 108.909L44.9628 108.974L43.1523 115.091C43.1523 115.091 43.5 115.156 43.992 115.273L48.682 111.902C47.657 111.458 46.718 110.839 45.9073 110.074Z" fill="#2A5F61"/>
</g>
</g>
<path d="M43.1523 115.111C44.1925 115.309 45.2085 115.617 46.1828 116.029C46.9908 116.423 47.725 116.952 48.354 117.591L51.6338 113.289C51.6338 113.289 46.8257 111.292 45.9139 110.075L45.0087 108.852L43.1523 115.111Z" stroke="#020901" stroke-width="0.75" stroke-linecap="round" stroke-linejoin="round"/>
<path d="M50.0782 111.461L46.0703 116.53L46.6148 118.254L52.7216 111.962L50.0782 111.461Z" fill="#2A5F61" stroke="#020901" stroke-linecap="round" stroke-linejoin="round"/>
<path d="M43.662 97.1387C40.953 95.0564 33.8949 96.3838 32.5109 101.316C31.6582 104.355 32.1304 108.91 32.1304 108.91L40.1724 107.218L40.8283 108.201C42.1402 110.153 44.9805 108.852 45.7152 108.201C46.1153 107.856 46.0891 106.841 45.9841 106.001L46.3055 105.93C46.3055 105.93 46.3646 99.2275 43.662 97.1387Z" fill="#020901" stroke="#020901" stroke-width="0.75" stroke-linecap="round" stroke-linejoin="round"/>
<path d="M40.6596 106.619C37.1299 106.229 33.557 106.566 30.1644 107.608C24.9168 109.352 24.11 110.862 27.8686 110.771C31.6272 110.68 40.6596 106.619 40.6596 106.619Z" fill="#020901" stroke="#020901" stroke-width="0.75" stroke-linecap="round" stroke-linejoin="round"/>
<path d="M34.1789 104.726C34.7911 104.726 35.2874 104.053 35.2874 103.223C35.2874 102.393 34.7911 101.72 34.1789 101.72C33.5666 101.72 33.0703 102.393 33.0703 103.223C33.0703 104.053 33.5666 104.726 34.1789 104.726Z" fill="#2A5F61"/>
<path d="M59.1109 113.588C59.1109 113.588 51.9282 111.779 49.7177 113.445C47.5071 115.111 46.943 117.864 47.6515 121.202C48.3599 124.54 50.085 133.318 50.085 133.318L59.2355 128.62L59.1109 113.588Z" fill="#020901" stroke="#020901" stroke-width="0.75" stroke-linecap="round" stroke-linejoin="round"/>
<path d="M47.7121 131.92C47.7121 131.92 47.3251 135.29 46.8725 135.765C46.4199 136.24 34.4816 126.291 33.7535 125.354C33.0254 124.417 33.5239 121.072 33.7535 120.025C33.9831 118.977 33.5961 118.404 32.4416 119.127C31.2871 119.849 31.5954 122.855 31.5954 122.855C31.5954 122.855 28.073 122.016 27.3711 121.918C26.6692 121.821 26.0592 122.686 26.1642 123.376C26.2691 124.065 27.194 124.124 27.194 124.124C26.9574 125.123 27.0236 126.169 27.3842 127.13C28.0008 128.393 28.6961 129.187 30.008 129.499C31.3616 129.708 32.732 129.791 34.1011 129.746C34.1011 129.746 40.2015 135.512 41.9725 137.665C43.7436 139.819 47.476 142.748 49.3323 142.22C51.1886 141.693 52.9597 132.499 52.9597 132.499L47.7121 131.92Z" fill="white"/>
<mask id="mask2_261_2963" style="mask-type:luminance" maskUnits="userSpaceOnUse" x="26" y="118" width="27" height="25">
<path d="M47.7121 131.92C47.7121 131.92 47.3251 135.29 46.8725 135.765C46.4199 136.24 34.4816 126.291 33.7535 125.354C33.0254 124.417 33.5239 121.072 33.7535 120.025C33.9831 118.977 33.5961 118.404 32.4416 119.127C31.2871 119.849 31.5954 122.855 31.5954 122.855C31.5954 122.855 28.073 122.016 27.3711 121.918C26.6692 121.821 26.0592 122.686 26.1642 123.376C26.2691 124.065 27.194 124.124 27.194 124.124C26.9574 125.123 27.0236 126.169 27.3842 127.13C28.0008 128.393 28.6961 129.187 30.008 129.499C31.3616 129.708 32.732 129.791 34.1011 129.746C34.1011 129.746 40.2015 135.512 41.9725 137.665C43.7436 139.819 47.476 142.748 49.3323 142.22C51.1886 141.693 52.9597 132.499 52.9597 132.499L47.7121 131.92Z" fill="white"/>
</mask>
<g mask="url(#mask2_261_2963)">
<g style="mix-blend-mode:multiply" opacity="0.5">
<path d="M46.8715 135.764L50.3611 136.916C50.4718 137.642 50.3171 138.384 49.925 139.007C49.5328 139.63 48.9291 140.093 48.2227 140.313C46.6813 140.82 43.9132 139.083 41.9453 137.619L42.0044 137.69C43.8082 139.851 47.5078 142.773 49.3641 142.245C51.2204 141.718 52.9915 132.524 52.9915 132.524L47.7111 131.873C47.7111 131.873 47.3241 135.289 46.8715 135.764Z" fill="#2A5F61"/>
</g>
</g>
<path d="M47.7121 131.92C47.7121 131.92 47.3251 135.29 46.8725 135.765C46.4199 136.24 34.4816 126.291 33.7535 125.354C33.0254 124.417 33.5239 121.072 33.7535 120.025C33.9831 118.977 33.5961 118.404 32.4416 119.127C31.2871 119.849 31.5954 122.855 31.5954 122.855C31.5954 122.855 28.073 122.016 27.3711 121.918C26.6692 121.821 26.0592 122.686 26.1642 123.376C26.2691 124.065 27.194 124.124 27.194 124.124C26.9574 125.123 27.0236 126.169 27.3842 127.13C28.0008 128.393 28.6961 129.187 30.008 129.499C31.3616 129.708 32.732 129.791 34.1011 129.746C34.1011 129.746 40.2015 135.512 41.9725 137.665C43.7436 139.819 47.476 142.748 49.3323 142.22C51.1886 141.693 52.9597 132.499 52.9597 132.499L47.7121 131.92Z" stroke="#020901" stroke-width="0.75" stroke-linecap="round" stroke-linejoin="round"/>
<path d="M35.7808 127.183L34.1016 129.772L34.9609 130.352L36.6794 127.911L35.7808 127.183Z" fill="#020901" stroke="#020901" stroke-miterlimit="10"/>
<path d="M35.2028 129.623C35.5651 129.623 35.8588 129.331 35.8588 128.972C35.8588 128.613 35.5651 128.321 35.2028 128.321C34.8406 128.321 34.5469 128.613 34.5469 128.972C34.5469 129.331 34.8406 129.623 35.2028 129.623Z" fill="white" stroke="#020901" stroke-width="0.75" stroke-linecap="round" stroke-linejoin="round"/>
<path d="M33.5938 109.743C33.5938 109.743 33.9939 110.725 34.6629 112.45C35.332 114.174 38.9266 117.812 40.6846 118.02C42.4425 118.228 44.5481 111.89 44.8826 110.582C44.9942 110.153 45.1057 109.463 45.1057 109.463C45.1057 109.463 47.3162 108.428 46.8046 107.179C46.2929 105.93 45.2565 105.357 44.7646 105.741C44.2726 106.125 44.1873 107.745 43.4527 107.758C42.718 107.771 42.3179 107.543 41.6685 106.685C41.0191 105.826 34.2891 107.609 33.5938 109.743Z" fill="white"/>
<mask id="mask3_261_2963" style="mask-type:luminance" maskUnits="userSpaceOnUse" x="33" y="105" width="14" height="14">
<path d="M33.5938 109.743C33.5938 109.743 33.9939 110.725 34.6629 112.45C35.332 114.174 38.9266 117.812 40.6846 118.02C42.4425 118.228 44.5481 111.89 44.8826 110.582C44.9942 110.153 45.1057 109.463 45.1057 109.463C45.1057 109.463 47.3162 108.428 46.8046 107.179C46.2929 105.93 45.2565 105.357 44.7646 105.741C44.2726 106.125 44.1873 107.745 43.4527 107.758C42.718 107.771 42.3179 107.543 41.6685 106.685C41.0191 105.826 34.2891 107.609 33.5938 109.743Z" fill="white"/>
</mask>
<g mask="url(#mask3_261_2963)">
<path opacity="0.5" d="M41.6554 106.685C40.9994 105.833 34.2891 107.616 33.5938 109.744L33.9742 110.707C36.5393 109.172 39.3268 108.038 42.2392 107.343C42.0216 107.145 41.8259 106.924 41.6554 106.685Z" fill="#2A5F61"/>
<g style="mix-blend-mode:multiply">
<path opacity="0.5" d="M46.7175 107.004C46.1797 105.885 45.2285 105.377 44.7497 105.742C44.4496 106.13 44.2269 106.572 44.0938 107.043C44.965 106.946 45.8437 106.933 46.7175 107.004Z" fill="#2A5F61"/>
</g>
</g>
<path d="M33.5938 109.743C33.5938 109.743 33.9939 110.725 34.6629 112.45C35.332 114.174 38.9266 117.812 40.6846 118.02C42.4425 118.228 44.5481 111.89 44.8826 110.582C44.9942 110.153 45.1057 109.463 45.1057 109.463C45.1057 109.463 47.3162 108.428 46.8046 107.179C46.2929 105.93 45.2565 105.357 44.7646 105.741C44.2726 106.125 44.1873 107.745 43.4527 107.758C42.718 107.771 42.3179 107.543 41.6685 106.685C41.0191 105.826 34.2891 107.609 33.5938 109.743Z" stroke="#020901" stroke-width="0.75" stroke-linecap="round" stroke-linejoin="round"/>
<path d="M35.9767 110.212C36.0947 110.609 36.0554 110.973 35.898 111.019C35.7405 111.064 35.5109 110.778 35.3929 110.368C35.2748 109.958 35.3142 109.607 35.4716 109.561C35.629 109.516 35.8586 109.828 35.9767 110.212Z" fill="#020901" stroke="#020901" stroke-miterlimit="10"/>
<path d="M34.7539 109.105C35.6722 108.844 36.0658 109.528 36.1773 110.159L36.3479 110.907L36.9185 113.803L37.7844 113.438" stroke="#020901" stroke-width="0.5" stroke-linecap="round" stroke-linejoin="round"/>
<path d="M38.4961 109.326C38.6956 109.109 38.9439 108.942 39.2209 108.838C39.4978 108.734 39.7956 108.696 40.0901 108.728" stroke="#020901" stroke-width="0.5" stroke-linecap="round" stroke-linejoin="round"/>
<path d="M39.2562 107.524C38.883 107.602 38.5405 107.785 38.2704 108.052C38.0002 108.319 37.814 108.658 37.7344 109.028" stroke="#020901" stroke-width="0.5" stroke-linecap="round" stroke-linejoin="round"/>
<path d="M38.5664 114.376C38.5664 114.376 40.4687 113.999 40.6195 112.646" stroke="#020901" stroke-width="0.5" stroke-linecap="round" stroke-linejoin="round"/>
<path d="M54.7164 136.8L45.1133 134.145C45.1133 134.145 45.9595 117.877 47.4419 115.125C49.7508 110.85 55.0444 112.776 56.0414 118.151C56.9728 123.226 54.7164 136.8 54.7164 136.8Z" fill="#2A5F61" stroke="#020901" stroke-linecap="round" stroke-linejoin="round"/>
<path d="M45.3438 132.336C45.3438 132.336 50.5913 133.533 53.7858 134.574" stroke="#020901" stroke-width="0.5" stroke-linecap="round" stroke-linejoin="round"/>
<path d="M53.6562 112.281C53.6562 112.281 56.7786 112.522 58.8186 114.188" stroke="#2A5F61" stroke-width="0.5" stroke-linecap="round" stroke-linejoin="round"/>
<path d="M108.675 153.894C108.675 153.894 94.6899 158.788 93.4108 160.122C92.1317 161.456 92.2629 166.661 95.2803 169.193C98.2976 171.724 119.806 165.985 135.182 164.312C150.557 162.64 184.312 160.18 198.087 159.516C211.862 158.853 218.127 160.655 219.333 156.393C220.54 152.131 220.39 147.576 217.766 146.652C215.142 145.728 167.336 138.134 108.675 153.894Z" fill="#020901" stroke="#020901" stroke-width="0.75" stroke-linecap="round" stroke-linejoin="round"/>
<path d="M92.4141 162.965C92.4141 162.965 93.07 168.607 96.5662 169.472C100.062 170.338 141.61 162.529 166.097 161.664C190.583 160.798 212.013 160.147 212.013 160.147" stroke="white" stroke-width="0.5" stroke-linecap="round" stroke-linejoin="round"/>
<path d="M112.711 165.828C128.952 161.924 162.36 156.405 218.575 157.974" stroke="white" stroke-width="0.5" stroke-linecap="round" stroke-linejoin="round"/>
<path d="M99.3945 169.264C99.3945 169.264 103.127 168.366 108.801 166.83" stroke="white" stroke-width="0.5" stroke-linecap="round" stroke-linejoin="round"/>
<path d="M102.818 169.908C102.994 172.327 102.928 174.758 102.621 177.164" stroke="white" stroke-width="0.5" stroke-linecap="round" stroke-linejoin="round"/>
<path d="M102.223 65.8525C102.223 65.8525 99.0943 69.49 98.8516 72.7501" stroke="#020901" stroke-width="0.75" stroke-linecap="round" stroke-linejoin="round"/>
<path d="M98.5223 75.3789C98.5223 75.3789 96.1674 112.541 102.399 152.092" stroke="#020901" stroke-width="0.75" stroke-linecap="round" stroke-linejoin="round"/>
<path d="M99.2619 118.319C99.2619 118.319 94.1783 120.076 94.1127 122.354C93.9421 128.477 94.5915 141.543 95.9362 142.812C97.2809 144.081 101.459 140.723 101.459 140.723C101.459 140.723 107.363 141.231 108.019 139.917C108.675 138.602 106.215 120.102 105.848 118.488C105.48 116.875 99.2619 118.319 99.2619 118.319Z" fill="#2A5F61" stroke="#020901" stroke-linecap="round" stroke-linejoin="round"/>
<path d="M205.446 127.13C206.769 127.771 208.207 128.147 209.677 128.236C208.05 122.172 206.207 115.417 204.305 108.676C202.586 108.559 200.369 108.559 200.415 109.326C200.448 110.641 203.786 126.18 205.446 127.13Z" fill="#2A5F61" stroke="#020901" stroke-linecap="round" stroke-linejoin="round"/>
<path d="M98.5352 120.232C98.5352 120.232 98.7582 131.945 99.6306 136.5" stroke="#020901" stroke-width="0.75" stroke-linecap="round" stroke-linejoin="round"/>
<path d="M159.852 122.94C159.852 122.94 189.12 118.261 223.223 124.241" stroke="#020901" stroke-linecap="round" stroke-linejoin="round"/>
<path d="M248.957 141.283C250.971 141.882 252.952 142.513 254.861 143.19" stroke="#020901" stroke-linecap="round" stroke-linejoin="round"/>
<path d="M196.406 132.446C196.406 132.446 219.614 133.845 241.837 139.357" stroke="#020901" stroke-linecap="round" stroke-linejoin="round"/>
<path d="M125.773 186.059C144.882 183.162 164.296 182.819 183.497 185.037" stroke="#020901" stroke-linecap="round" stroke-linejoin="round"/>
<path d="M123.375 182.994C123.375 182.994 137.111 181.29 141.578 180.951" stroke="#020901" stroke-linecap="round" stroke-linejoin="round"/>
<path d="M215.367 56.6123C217.335 56.8921 219.303 57.263 221.087 57.686" stroke="#020901" stroke-linecap="round" stroke-linejoin="round"/>
<path d="M187.086 55.9687C195.168 55.4023 203.282 55.4567 211.356 56.1313" stroke="#020901" stroke-linecap="round" stroke-linejoin="round"/>
<path d="M81.2578 134.795C81.2578 134.795 100.858 125.588 129.214 123.03" stroke="#020901" stroke-linecap="round" stroke-linejoin="round"/>
<path d="M114.266 117.909C114.266 117.909 126.132 114.845 144.183 113.816" stroke="#020901" stroke-linecap="round" stroke-linejoin="round"/>
<path d="M80.9375 182.923C83.3195 187.155 87.1634 190.391 91.7607 192.033" stroke="#020901" stroke-linecap="round" stroke-linejoin="round"/>
<path d="M80.2773 185.851C80.2773 185.851 83.2291 190.406 87.1648 192.358" stroke="#020901" stroke-linecap="round" stroke-linejoin="round"/>
<path d="M177.031 169.583C177.031 169.583 178.999 178.693 186.87 182.597" stroke="#020901" stroke-linecap="round" stroke-linejoin="round"/>
<path d="M178.016 177.717C179.576 179.983 181.73 181.783 184.247 182.923" stroke="#020901" stroke-linecap="round" stroke-linejoin="round"/>
<path d="M48.2422 195.26C48.2422 195.26 50.21 198.513 57.0975 198.513" stroke="#020901" stroke-linecap="round" stroke-linejoin="round"/>
<path d="M46.9297 197.213C49.4389 199.283 52.5319 200.533 55.785 200.792" stroke="#020901" stroke-linecap="round" stroke-linejoin="round"/>
<path d="M135.603 189.182C118.182 190.122 100.889 192.689 83.9531 196.847L84.3598 197.453C84.3598 197.453 98.7907 194.414 125.462 200.921C152.133 207.428 153.89 212.634 183.185 212.634C212.48 212.634 240.909 205.697 240.909 205.697L237.354 203.745C211.05 192.702 174.999 186.996 135.603 189.182Z" fill="#2A5F61"/>
<path opacity="0.5" d="M135.603 189.182C118.182 190.122 100.889 192.689 83.9531 196.847L84.3598 197.453C84.3598 197.453 98.7907 194.414 125.462 200.921C152.133 207.428 153.89 212.634 183.185 212.634C212.48 212.634 240.909 205.697 240.909 205.697L237.354 203.745C211.05 192.702 174.999 186.996 135.603 189.182Z" fill="white"/>
<path d="M71.4258 204.07C71.4258 204.07 105.863 198.865 135.709 218.712" stroke="#020901" stroke-linecap="round" stroke-linejoin="round"/>
<path d="M107.5 211.554C107.5 211.554 121.603 215.783 130.13 224.893" stroke="#020901" stroke-linecap="round" stroke-linejoin="round"/>
<path d="M190.809 194.96C190.809 194.96 210.815 196.912 228.854 207.649" stroke="#020901" stroke-linecap="round" stroke-linejoin="round"/>
<path d="M253.188 211.774C256.79 213.961 260.22 216.417 263.447 219.121" stroke="#020901" stroke-linecap="round" stroke-linejoin="round"/>
<path d="M18.4961 227.125C42.4055 206.953 85.6063 191.986 135.603 189.181C181.237 186.611 222.398 194.719 249.082 209.354" stroke="#020901" stroke-linecap="round" stroke-linejoin="round"/>
<path d="M164.242 194.635C164.242 194.635 184.905 195.611 198.68 200.166" stroke="#020901" stroke-linecap="round" stroke-linejoin="round"/>
<path d="M70.5569 40.1553C70.5569 40.1553 69.901 31.1559 56.618 30.8306C43.335 30.5052 46.8903 39.8365 43.3285 42.088C39.7666 44.3394 38.7893 40.7865 35.2209 43.051C31.6526 45.3155 33.2531 49.8055 30.3603 50.4497C27.4676 51.0939 23.5516 47.554 19.9898 49.7989C16.428 52.0439 16.4214 53.9765 14.8012 53.9765C13.181 53.9765 9.94062 52.6751 7.99901 53.9765C6.0574 55.278 3.78125 56.8527 3.78125 56.8527H85.775C85.775 56.8527 86.7458 53.957 83.1512 52.0309C79.5566 50.1048 77.9626 51.7055 76.6704 50.0788C75.3782 48.452 80.2781 44.3394 70.5569 40.1553Z" fill="#2A5F61"/>
<path d="M119.273 5.71278C119.273 5.71278 118.88 0.298815 110.89 0.1036C102.901 -0.0916146 105.039 5.52406 102.894 6.87755C100.749 8.23104 100.165 6.1032 98.0204 7.45669C95.8755 8.81018 96.8528 11.5172 95.0949 11.9011C93.3369 12.285 91.0017 10.1637 88.8568 11.5172C86.7118 12.8707 86.7118 14.0289 85.7345 14.0289C84.7571 14.0289 82.8089 13.2611 81.6413 14.0289C80.4738 14.7968 79.1094 15.7728 79.1094 15.7728H128.437C128.437 15.7728 129.021 14.0289 126.876 12.8707C124.731 11.7124 123.76 12.6754 122.979 11.7124C122.199 10.7493 125.124 8.23105 119.273 5.71278Z" fill="#2A5F61"/>
<path opacity="0.7" d="M70.5569 40.1553C70.5569 40.1553 69.901 31.1559 56.618 30.8306C43.335 30.5052 46.8903 39.8365 43.3285 42.088C39.7666 44.3394 38.7893 40.7865 35.2209 43.051C31.6526 45.3155 33.2531 49.8055 30.3603 50.4497C27.4676 51.0939 23.5516 47.554 19.9898 49.7989C16.428 52.0439 16.4214 53.9765 14.8012 53.9765C13.181 53.9765 9.94062 52.6751 7.99901 53.9765C6.0574 55.278 3.78125 56.8527 3.78125 56.8527H85.775C85.775 56.8527 86.7458 53.957 83.1512 52.0309C79.5566 50.1048 77.9626 51.7055 76.6704 50.0788C75.3782 48.452 80.2781 44.3394 70.5569 40.1553Z" fill="white"/>
<path opacity="0.8" d="M119.273 5.71278C119.273 5.71278 118.88 0.298815 110.89 0.1036C102.901 -0.0916146 105.039 5.52406 102.894 6.87755C100.749 8.23104 100.165 6.1032 98.0204 7.45669C95.8755 8.81018 96.8528 11.5172 95.0949 11.9011C93.3369 12.285 91.0017 10.1637 88.8568 11.5172C86.7118 12.8707 86.7118 14.0289 85.7345 14.0289C84.7571 14.0289 82.8089 13.2611 81.6413 14.0289C80.4738 14.7968 79.1094 15.7728 79.1094 15.7728H128.437C128.437 15.7728 129.021 14.0289 126.876 12.8707C124.731 11.7124 123.76 12.6754 122.979 11.7124C122.199 10.7493 125.124 8.23105 119.273 5.71278Z" fill="white"/>
</svg>
